<?xml version="1.0" encoding="UTF-8" standalone="no"?>
<!DOCTYPE svg PUBLIC "-//W3C//DTD SVG 1.1//EN" "http://www.w3.org/Graphics/SVG/1.1/DTD/svg11.dtd">
<svg xmlns="http://www.w3.org/2000/svg" version="1.1" viewBox="0.00 0.00 180.00 180.00">
<g stroke-width="2.00" fill="none" stroke-linecap="butt">
<path stroke="#ba3aeb" vector-effect="non-scaling-stroke" d="
  M 78.24 0.97
  L 74.57 4.62
  Q 74.19 5.01 74.04 5.52
  C 73.66 6.80 72.40 7.54 71.58 8.66
  Q 70.52 10.12 69.31 11.44
  Q 65.59 15.55 60.94 20.19
  Q 55.94 25.18 50.72 30.54
  Q 48.96 32.35 46.03 34.02
  Q 45.02 34.59 44.27 36.12
  Q 44.24 36.17 44.19 36.16
  Q 44.00 36.11 43.81 36.14
  Q 43.36 36.21 43.25 36.65
  Q 42.89 38.06 41.64 38.76
  Q 40.68 39.31 41.78 39.35
  Q 43.04 39.39 44.05 38.76
  Q 44.19 38.68 44.08 38.55
  Q 44.04 38.51 43.99 38.48
  Q 43.89 38.40 44.00 38.33
  Q 44.73 37.88 45.46 37.86
  Q 45.77 37.85 45.50 38.01
  Q 45.33 38.10 45.13 38.15
  Q 44.52 38.27 44.96 38.70
  Q 45.13 38.86 45.48 38.87"
/>
<path stroke="#e696f7" vector-effect="non-scaling-stroke" d="
  M 45.48 38.87
  L 17.46 49.38
  Q 15.83 50.00 17.48 50.56
  L 22.37 52.24"
/>
<path stroke="#ba3aeb" vector-effect="non-scaling-stroke" d="
  M 22.37 52.24
  Q 21.73 53.33 20.08 52.69
  Q 19.68 52.54 20.03 52.78
  Q 20.15 52.87 20.24 52.99
  Q 20.53 53.36 20.09 53.53
  Q 19.29 53.84 18.70 54.47
  Q 18.34 54.85 17.81 54.89
  Q 16.83 54.96 15.97 55.43
  Q 15.53 55.66 15.34 56.13
  C 14.66 57.80 12.73 58.11 12.62 59.96
  Q 12.59 60.46 12.28 60.86
  Q 9.46 64.60 6.20 68.05
  C 5.63 68.66 4.72 68.93 3.91 68.85
  Q 3.37 68.80 3.12 69.29
  Q 1.87 71.71 0.99 69.52"
/>
<path stroke="#90b4eb" vector-effect="non-scaling-stroke" d="
  M 115.28 67.97
  Q 103.34 72.44 91.49 76.79
  C 89.48 77.53 88.22 77.02 86.45 76.12"
/>
<path stroke="#afaeec" vector-effect="non-scaling-stroke" d="
  M 86.45 76.12
  L 58.19 65.62"
/>
<path stroke="#d3a3f3" vector-effect="non-scaling-stroke" d="
  M 58.19 65.62
  L 22.37 52.24"
/>
<path stroke="#8352df" vector-effect="non-scaling-stroke" d="
  M 58.19 65.62
  Q 57.03 66.34 59.53 67.79
  Q 60.25 68.21 59.45 68.38
  Q 59.36 68.40 59.33 68.48
  Q 59.17 68.94 58.86 69.31
  Q 57.06 71.51 54.24 72.27
  Q 54.06 72.32 53.94 72.19
  L 53.63 71.88
  Q 53.26 71.52 52.79 71.72
  Q 52.39 71.89 52.10 72.32"
/>
<path stroke="#d3a3f3" vector-effect="non-scaling-stroke" d="
  M 52.10 72.32
  L 16.85 59.55
  A 0.33 0.32 -80.1 0 0 16.42 59.86
  L 16.42 96.36"
/>
<path stroke="#924fe1" vector-effect="non-scaling-stroke" d="
  M 16.42 96.36
  Q 15.46 95.50 15.87 93.13
  Q 15.89 93.01 15.78 93.00
  Q 15.64 92.99 15.51 92.94
  Q 15.43 92.92 15.42 93.00
  L 14.65 102.37
  A 0.10 0.10 0.0 0 1 14.50 102.45
  Q 14.28 102.32 14.02 102.35
  Q 13.49 102.43 13.22 102.96
  Q 12.60 104.21 11.14 105.00
  A 2.28 2.28 0.0 0 0 10.31 105.75
  Q 8.58 108.35 6.16 111.06
  Q 5.39 111.93 4.43 112.41
  Q 3.38 112.95 2.99 114.06
  Q 2.81 114.57 2.30 114.76
  L 0.99 115.23"
/>
<path stroke="#924fe1" vector-effect="non-scaling-stroke" d="
  M 108.51 0.98
  Q 105.53 4.30 102.64 7.39
  Q 101.48 8.64 99.65 11.98
  Q 99.40 12.44 98.93 12.67
  Q 98.40 12.94 98.21 13.49
  Q 98.03 14.02 97.63 14.40
  C 96.48 15.52 95.59 16.64 94.12 17.42
  Q 92.43 18.32 91.34 20.07
  Q 91.06 20.52 90.53 20.56
  Q 86.60 20.87 85.94 23.62"
/>
<path stroke="#d3a3f3" vector-effect="non-scaling-stroke" d="
  M 85.94 23.62
  L 45.48 38.87"
/>
<path stroke="#0083d9" vector-effect="non-scaling-stroke" d="
  M 179.00 23.81
  Q 178.15 24.02 178.34 22.95
  Q 178.55 21.81 178.27 22.94
  C 177.85 24.64 177.36 26.37 177.29 28.13
  Q 177.02 34.98 177.05 41.87
  Q 177.06 42.82 176.58 43.62
  Q 176.34 44.01 176.02 43.69
  Q 175.35 43.02 174.68 43.72
  Q 170.96 47.65 167.12 51.60
  C 166.98 51.74 166.90 52.00 166.92 52.19
  Q 166.98 52.73 166.56 53.08
  C 165.09 54.31 164.08 56.14 162.23 56.74
  A 0.53 0.47 -82.7 0 0 161.94 56.99
  L 161.81 57.23
  Q 161.58 57.65 162.05 57.71
  Q 163.32 57.89 163.48 59.38"
/>
<path stroke="#80bceb" vector-effect="non-scaling-stroke" d="
  M 163.48 59.38
  L 154.60 62.68
  Q 154.12 62.86 154.12 63.37
  L 154.02 86.83"
/>
<path stroke="#008dda" vector-effect="non-scaling-stroke" d="
  M 154.02 86.83
  Q 152.96 86.08 153.23 83.67
  Q 153.29 83.13 152.86 83.46
  Q 152.20 83.96 152.17 84.63
  Q 152.14 85.22 151.92 84.67
  Q 151.77 84.28 151.78 83.85
  Q 151.78 83.80 151.73 83.77
  Q 151.62 83.71 151.47 83.76
  Q 151.37 83.79 151.36 83.90
  Q 150.79 88.84 150.67 94.30
  Q 150.66 94.50 150.57 94.67
  Q 150.49 94.83 150.35 94.91
  Q 149.89 95.20 149.77 94.68
  L 149.56 93.78"
/>
<path stroke="#80bceb" vector-effect="non-scaling-stroke" d="
  M 149.56 93.78
  L 149.55 64.38"
/>
<path stroke="#1071d7" vector-effect="non-scaling-stroke" d="
  M 149.55 64.38
  Q 148.06 63.88 147.48 64.08
  Q 141.44 66.20 136.24 67.82
  Q 135.76 67.97 135.38 68.31
  Q 135.00 68.64 134.52 68.77
  Q 131.52 69.62 128.12 70.64
  C 127.08 70.95 126.38 71.82 125.24 71.62
  A 1.25 1.22 -61.7 0 0 124.16 71.96
  Q 123.34 72.77 122.27 72.88
  A 1.80 1.79 -68.7 0 0 121.27 73.32
  Q 120.40 74.07 119.22 73.89
  Q 118.78 73.82 118.42 74.10
  Q 116.22 75.81 113.54 75.63
  Q 113.09 75.60 112.71 75.83
  L 111.47 76.58
  Q 111.05 76.83 110.58 76.95
  Q 106.68 77.93 103.02 79.65
  Q 102.44 79.92 101.81 79.82
  Q 100.93 79.69 100.34 80.28
  Q 100.00 80.63 99.51 80.74
  L 98.09 81.09
  A 1.20 1.17 14.8 0 0 97.54 81.40
  Q 97.04 81.94 96.40 81.80
  Q 95.55 81.62 96.27 81.15
  Q 98.84 79.44 100.59 77.41
  Q 101.21 76.70 101.96 76.21
  Q 102.83 75.64 103.59 75.20
  Q 104.53 74.66 103.46 74.54
  Q 103.05 74.49 102.73 74.42
  Q 102.45 74.37 102.73 74.35
  Q 102.88 74.34 102.95 74.20
  A 0.30 0.28 22.4 0 1 103.28 74.07
  Q 104.33 74.38 105.03 73.68
  Q 105.35 73.37 105.78 73.24
  Q 106.02 73.17 106.27 73.19
  Q 106.77 73.21 107.17 72.90
  Q 109.91 70.70 112.97 70.15
  Q 115.41 69.72 115.28 67.97"
/>
<path stroke="#80bceb" vector-effect="non-scaling-stroke" d="
  M 115.28 67.97
  L 162.41 50.47
  Q 164.00 49.88 162.40 49.33
  L 157.26 47.58"
/>
<path stroke="#3466d6" vector-effect="non-scaling-stroke" d="
  M 159.16 1.03
  Q 154.15 5.49 150.37 10.67
  Q 150.29 10.78 150.15 10.78
  Q 150.03 10.77 149.95 10.63
  Q 149.93 10.58 149.89 10.62
  Q 147.07 13.55 144.17 16.39
  C 141.53 18.97 139.48 21.92 136.65 24.25
  A 7.48 7.43 -2.5 0 0 135.23 25.79
  Q 134.25 27.19 132.94 28.28
  Q 131.96 29.09 131.06 30.21
  Q 128.47 33.42 125.18 34.50"
/>
<path stroke="#246ad6" vector-effect="non-scaling-stroke" d="
  M 125.18 34.50
  Q 122.52 32.91 121.44 34.06"
/>
<path stroke="#a3b1eb" vector-effect="non-scaling-stroke" d="
  M 121.44 34.06
  L 103.78 27.45"
/>
<path stroke="#0075d7" vector-effect="non-scaling-stroke" d="
  M 178.92 15.61
  Q 177.60 14.99 176.89 18.21
  Q 176.67 19.18 176.64 21.34
  Q 176.62 23.11 176.33 24.86
  Q 176.33 24.87 176.33 24.88
  Q 176.33 24.89 176.35 24.89
  Q 176.41 24.88 176.38 24.82
  Q 176.31 24.69 176.34 24.51
  A 0.04 0.04 0.0 0 0 176.27 24.47
  Q 173.33 26.62 170.94 29.40
  Q 168.76 31.92 166.36 34.15
  Q 163.24 37.04 160.38 40.00
  Q 159.48 40.92 158.46 41.70
  Q 157.48 42.45 156.81 43.42
  Q 156.44 43.95 155.81 44.10
  Q 155.28 44.22 154.85 44.55
  Q 154.18 45.05 154.93 45.42
  Q 155.87 45.87 156.76 46.31
  Q 156.99 46.42 156.76 46.52
  Q 156.71 46.54 156.68 46.59
  Q 156.47 46.86 156.82 46.86
  Q 157.05 46.86 157.25 47.00
  Q 157.49 47.16 157.26 47.58"
/>
<path stroke="#80b8eb" vector-effect="non-scaling-stroke" d="
  M 157.26 47.58
  L 121.44 34.06"
/>
<path stroke="#4063d7" vector-effect="non-scaling-stroke" d="
  M 80.59 82.63
  L 82.73 81.31
  A 1.49 1.46 -8.8 0 0 83.38 80.44
  Q 83.55 79.80 84.11 79.40
  A 1.24 1.24 0.0 0 0 84.63 78.39
  L 84.63 77.26
  Q 84.63 76.68 85.19 76.84
  Q 86.20 77.12 86.45 76.12"
/>
<path stroke="#6e5ada" vector-effect="non-scaling-stroke" d="
  M 132.58 0.95
  Q 129.66 2.60 126.54 6.82
  Q 124.03 10.22 122.22 12.12
  Q 115.89 18.78 108.83 25.60
  Q 107.80 26.59 106.55 26.86
  Q 106.06 26.96 105.60 26.75
  Q 101.81 25.00 98.00 25.15"
/>
<path stroke="#beabee" vector-effect="non-scaling-stroke" d="
  M 98.00 25.15
  Q 94.85 24.18 91.32 22.89
  Q 89.84 22.35 88.62 22.68
  Q 87.42 22.99 85.94 23.62"
/>
<path stroke="#5360d7" vector-effect="non-scaling-stroke" d="
  M 145.55 1.00
  Q 144.15 2.34 142.94 3.78
  C 141.82 5.12 139.67 7.02 138.52 8.93
  Q 137.58 10.51 136.77 11.35
  Q 132.33 15.98 127.97 20.23
  Q 127.21 20.24 127.26 20.99
  Q 126.06 22.15 125.02 23.22
  Q 124.99 23.24 124.96 23.24
  Q 124.83 23.23 124.71 23.19
  Q 124.39 23.08 124.17 23.34
  Q 122.63 25.12 120.94 26.74
  Q 120.89 26.79 119.48 28.41
  Q 118.71 29.29 117.60 29.84
  Q 117.46 29.90 117.41 30.05
  Q 117.36 30.17 117.32 30.29
  Q 117.17 30.74 116.70 30.68
  Q 115.38 30.51 114.13 30.08
  Q 111.04 29.02 107.89 27.80
  Q 107.25 27.56 106.58 27.62
  Q 105.97 27.67 105.50 27.32
  A 1.35 1.35 0.0 0 0 104.69 27.05
  Q 103.78 27.05 103.78 27.45"
/>
<path stroke="#afaeec" vector-effect="non-scaling-stroke" d="
  M 103.78 27.45
  L 98.00 25.15"
/>
<path stroke="#afaeec" vector-effect="non-scaling-stroke" d="
  M 52.10 72.32
  L 80.59 82.63"
/>
<path stroke="#90b4eb" vector-effect="non-scaling-stroke" d="
  M 80.59 82.63
  L 89.07 85.73
  A 2.38 2.34 44.5 0 0 90.70 85.73
  L 149.55 64.38"
/>
<path stroke="#80d0ee" vector-effect="non-scaling-stroke" d="
  M 149.56 93.78
  Q 150.13 96.65 148.03 98.12
  A 2.29 2.22 87.3 0 0 147.36 98.88
  Q 144.79 103.63 149.37 106.67
  Q 149.78 106.94 149.58 107.39
  Q 146.99 113.37 146.48 120.97
  C 145.97 128.68 157.24 129.05 157.33 121.80
  Q 157.42 114.98 154.35 107.44
  Q 154.15 106.95 154.58 106.64
  Q 159.08 103.35 156.51 98.87
  C 156.00 97.99 154.95 97.48 154.34 96.67
  A 1.47 1.44 27.2 0 1 154.05 95.80
  L 154.02 86.83"
/>
<path stroke="#80d0ee" vector-effect="non-scaling-stroke" d="
  M 163.61 83.75
  L 163.58 124.71"
/>
<path stroke="#80d9f0" vector-effect="non-scaling-stroke" d="
  M 163.58 124.71
  L 163.39 132.86
  Q 163.38 133.37 162.91 133.55
  L 128.73 146.44"
/>
<path stroke="#80d0ee" vector-effect="non-scaling-stroke" d="
  M 128.73 146.44
  Q 109.85 153.54 90.99 160.68
  Q 89.97 161.06 88.45 160.59"
/>
<path stroke="#80c6ed" vector-effect="non-scaling-stroke" d="
  M 88.45 160.59
  L 77.47 156.55"
/>
<path stroke="#80bceb" vector-effect="non-scaling-stroke" d="
  M 77.47 156.55
  L 60.07 149.91"
/>
<path stroke="#80b8eb" vector-effect="non-scaling-stroke" d="
  M 60.07 149.91
  L 27.24 137.68"
/>
<path stroke="#90b4eb" vector-effect="non-scaling-stroke" d="
  M 27.24 137.68
  L 21.98 135.69"
/>
<path stroke="#a3b1eb" vector-effect="non-scaling-stroke" d="
  M 21.98 135.69
  L 17.17 133.83
  A 1.13 1.12 -88.9 0 1 16.52 133.15
  Q 16.28 132.46 16.40 131.49"
/>
<path stroke="#afaeec" vector-effect="non-scaling-stroke" d="
  M 16.40 131.49
  L 16.42 113.98"
/>
<path stroke="#beabee" vector-effect="non-scaling-stroke" d="
  M 16.42 113.98
  L 16.42 96.36"
/>
<path stroke="#6e5ada" vector-effect="non-scaling-stroke" d="
  M 16.42 113.98
  Q 16.19 112.92 15.73 111.88
  Q 15.50 111.34 15.63 111.92
  Q 15.68 112.10 15.50 112.23
  A 0.23 0.22 67.6 0 1 15.15 112.08
  Q 15.09 111.72 15.14 111.33
  Q 15.18 110.94 14.98 111.28
  Q 14.88 111.45 14.63 111.46
  Q 14.25 111.49 14.43 111.15
  L 14.65 110.75
  A 0.09 0.09 0.0 0 0 14.52 110.64
  Q 10.58 113.77 7.39 117.50
  Q 6.65 118.37 6.22 119.48
  Q 5.96 120.16 5.25 120.11
  Q 4.68 120.06 4.27 120.47
  Q 2.88 121.88 0.99 122.83"
/>
<path stroke="#0ba7df" vector-effect="non-scaling-stroke" d="
  M 178.98 49.54
  L 178.53 57.71
  Q 178.50 58.39 178.17 57.79
  L 177.99 57.44
  Q 177.60 56.71 177.59 57.54
  L 177.32 73.04"
/>
<path stroke="#0096dc" vector-effect="non-scaling-stroke" d="
  M 177.32 73.04
  Q 177.08 66.57 177.11 60.12
  Q 177.12 60.12 177.11 60.12
  Q 177.08 61.54 176.44 62.86
  Q 175.88 64.02 175.88 62.73
  L 175.88 62.27
  Q 175.88 60.52 174.68 61.80
  Q 170.41 66.40 166.53 70.19
  A 0.40 0.40 0.0 0 1 165.96 70.16
  Q 165.77 69.95 165.62 69.94
  Q 165.04 69.93 165.11 70.50
  Q 165.88 77.53 163.61 83.75"
/>
<path stroke="#80c6ed" vector-effect="non-scaling-stroke" d="
  M 163.61 83.75
  L 163.48 59.38"
/>
<path stroke="#106dd6" vector-effect="non-scaling-stroke" d="
  M 174.54 4.45
  Q 164.44 14.02 154.80 23.79
  C 154.40 24.20 154.27 24.69 153.88 25.09
  Q 149.83 29.14 145.51 33.55
  Q 144.44 34.65 143.56 35.90
  Q 142.24 37.75 140.07 38.41
  Q 138.41 38.92 135.14 37.86
  Q 129.91 36.18 125.18 34.50"
/>
<path stroke="#0075d7" vector-effect="non-scaling-stroke" d="
  M 60.07 149.91
  C 58.81 151.11 56.97 150.28 55.49 150.23
  Q 55.01 150.22 54.68 150.56
  Q 45.88 159.72 36.78 168.63
  Q 32.64 172.68 28.12 176.12
  Q 27.72 176.43 27.21 176.46
  L 16.05 177.23
  Q 15.36 177.28 15.66 177.90
  Q 15.93 178.47 16.45 178.68"
/>
<path stroke="#5360d7" vector-effect="non-scaling-stroke" d="
  M 16.40 131.49
  Q 16.30 133.11 14.67 133.32
  Q 14.62 133.32 14.60 133.37
  L 14.45 133.86
  Q 14.37 134.10 14.16 134.24
  Q 13.22 134.83 12.59 135.80
  Q 12.38 136.11 12.01 136.15
  Q 11.77 136.17 11.57 136.28
  Q 11.33 136.41 11.16 136.66
  Q 9.87 138.57 7.45 140.96
  Q 3.81 144.55 1.02 150.01"
/>
<path stroke="#3466d6" vector-effect="non-scaling-stroke" d="
  M 21.98 135.69
  Q 21.49 136.92 22.52 137.14
  A 0.77 0.77 0.0 0 1 22.87 138.47
  Q 19.44 141.54 17.07 144.91
  Q 16.68 145.47 16.09 145.83
  Q 15.56 146.16 15.14 146.63
  Q 9.89 152.37 4.51 158.75
  Q 4.28 159.02 3.94 158.95
  Q 3.71 158.90 3.57 159.10
  Q 3.39 159.37 3.36 159.70
  Q 3.13 162.87 1.06 164.94"
/>
<path stroke="#00a9df" vector-effect="non-scaling-stroke" d="
  M 177.06 99.22
  L 176.78 99.06
  Q 176.37 98.82 176.41 99.29
  Q 176.44 99.53 176.35 99.76
  Q 176.25 100.03 176.15 99.76
  Q 176.06 99.50 176.11 99.20
  Q 176.21 98.54 175.58 98.74
  Q 175.29 98.83 174.97 98.80
  A 1.11 1.10 24.6 0 0 174.10 99.12
  Q 170.01 103.35 166.01 107.76
  Q 165.78 108.02 165.87 107.69
  Q 165.92 107.53 165.85 107.38
  A 0.19 0.19 0.0 0 0 165.55 107.30
  Q 165.11 107.68 165.09 108.09
  Q 164.92 110.72 164.78 113.53
  Q 164.69 115.43 164.09 118.92
  Q 163.60 121.77 163.58 124.71"
/>
<path stroke="#106dd6" vector-effect="non-scaling-stroke" d="
  M 27.24 137.68
  Q 26.21 138.20 28.07 138.97
  Q 32.20 140.68 36.23 142.60
  Q 36.82 142.88 36.32 143.30
  Q 36.00 143.57 35.58 143.58
  Q 35.02 143.58 34.63 143.98
  L 8.39 170.27
  Q 7.99 170.67 7.76 171.18
  Q 7.54 171.68 7.12 172.03
  Q 6.73 172.35 6.55 172.83
  L 5.55 175.43"
/>
<path stroke="#008dda" vector-effect="non-scaling-stroke" d="
  M 22.29 178.67
  Q 23.42 178.61 24.53 178.20
  Q 25.40 177.88 25.95 178.33
  Q 26.32 178.63 26.79 178.56
  Q 28.95 178.26 31.13 178.38
  Q 31.27 178.39 31.40 178.32
  Q 31.52 178.26 31.51 178.10
  Q 31.49 177.88 31.72 177.88
  L 64.95 177.53"
/>
<path stroke="#0096dc" vector-effect="non-scaling-stroke" d="
  M 64.95 177.53
  Q 66.78 177.38 67.14 176.75
  Q 67.29 176.47 67.17 176.19
  Q 67.11 176.03 66.95 176.10
  Q 66.19 176.45 66.64 175.73
  Q 67.76 173.95 68.91 172.91
  Q 73.99 168.28 78.13 163.50
  Q 79.53 161.88 81.13 160.45
  A 2.00 1.98 -57.2 0 1 83.04 160.03
  L 87.98 161.54
  A 0.50 0.50 0.0 0 0 88.61 160.91
  Q 88.56 160.76 88.45 160.59"
/>
<path stroke="#0083d9" vector-effect="non-scaling-stroke" d="
  M 77.47 156.55
  Q 76.00 157.18 73.73 156.27
  Q 73.27 156.08 72.77 156.14
  Q 71.18 156.33 69.93 155.60
  Q 69.50 155.35 69.20 155.75
  Q 68.97 156.06 68.71 156.35
  Q 62.80 162.91 56.67 168.92
  Q 53.96 171.58 50.87 174.34
  Q 50.53 174.64 50.44 175.07
  Q 50.41 175.25 50.31 175.38
  Q 50.11 175.64 49.78 175.78
  Q 48.42 176.38 47.02 176.90
  Q 46.83 176.98 46.67 176.84
  Q 46.55 176.74 46.41 176.80
  Q 45.41 177.24 46.50 177.29
  Q 55.73 177.73 64.95 177.53"
/>
<path stroke="#00a9df" vector-effect="non-scaling-stroke" d="
  M 90.01 177.44
  Q 93.05 177.00 96.09 176.74
  Q 96.50 176.70 96.90 176.47
  Q 97.27 176.26 97.78 176.05
  Q 98.55 175.73 97.73 175.86
  Q 97.46 175.90 97.20 175.87
  Q 96.46 175.77 96.97 175.23
  Q 99.96 172.05 103.25 169.11
  Q 106.22 166.47 108.77 163.51
  Q 110.93 161.00 113.44 158.63
  Q 118.17 154.19 122.94 149.65
  A 3.77 1.86 7.9 0 1 125.21 148.90
  Q 125.63 148.88 125.86 148.53
  Q 126.12 148.10 126.58 147.88
  Q 127.42 147.48 128.36 147.49
  Q 128.90 147.50 128.87 146.97
  Q 128.85 146.72 128.73 146.44"
/>
<path stroke="#0bb1e1" vector-effect="non-scaling-stroke" d="
  M 121.03 178.54
  Q 100.71 177.47 80.39 177.64
  Q 80.37 177.64 80.37 177.63
  Q 80.37 177.63 80.37 177.62
  Q 80.37 177.58 80.41 177.58
  Q 85.26 177.76 90.01 177.44"
/>
<path stroke="#0bbae3" vector-effect="non-scaling-stroke" d="
  M 90.01 177.44
  L 121.91 176.82
  Q 122.04 176.81 122.03 176.68
  Q 122.01 176.53 121.90 176.43
  Q 121.68 176.23 121.82 175.96
  Q 122.20 175.22 122.65 174.52
  Q 123.06 173.88 123.66 173.36
  Q 127.13 170.34 130.49 167.00
  Q 131.75 165.75 133.08 164.46
  Q 139.00 158.70 142.95 154.04
  Q 144.38 152.34 146.29 150.74
  Q 148.00 149.30 149.59 147.57
  Q 149.96 147.16 150.49 147.06
  Q 150.96 146.97 151.25 146.59
  C 152.59 144.84 153.89 143.12 155.59 141.68
  Q 159.56 138.33 163.38 135.67
  Q 164.55 134.86 165.25 133.58
  Q 166.81 130.73 169.21 128.32
  Q 169.39 128.14 169.21 127.97
  L 169.00 127.75
  Q 168.71 127.46 168.94 127.12
  L 173.65 120.55
  Q 173.95 120.12 174.48 120.12
  L 176.09 120.12
  Q 176.78 120.12 176.79 119.43
  L 177.06 99.22"
/>
<path stroke="#0bb1e1" vector-effect="non-scaling-stroke" d="
  M 177.06 99.22
  L 177.32 73.04"
/>
</g>
<path fill="#cc2cef" d="
  M 78.24 0.97
  L 74.57 4.62
  Q 74.19 5.01 74.04 5.52
  C 73.66 6.80 72.40 7.54 71.58 8.66
  Q 70.52 10.12 69.31 11.44
  Q 65.59 15.55 60.94 20.19
  Q 55.94 25.18 50.72 30.54
  Q 48.96 32.35 46.03 34.02
  Q 45.02 34.59 44.27 36.12
  Q 44.24 36.17 44.19 36.16
  Q 44.00 36.11 43.81 36.14
  Q 43.36 36.21 43.25 36.65
  Q 42.89 38.06 41.64 38.76
  Q 40.68 39.31 41.78 39.35
  Q 43.04 39.39 44.05 38.76
  Q 44.19 38.68 44.08 38.55
  Q 44.04 38.51 43.99 38.48
  Q 43.89 38.40 44.00 38.33
  Q 44.73 37.88 45.46 37.86
  Q 45.77 37.85 45.50 38.01
  Q 45.33 38.10 45.13 38.15
  Q 44.52 38.27 44.96 38.70
  Q 45.13 38.86 45.48 38.87
  L 17.46 49.38
  Q 15.83 50.00 17.48 50.56
  L 22.37 52.24
  Q 21.73 53.33 20.08 52.69
  Q 19.68 52.54 20.03 52.78
  Q 20.15 52.87 20.24 52.99
  Q 20.53 53.36 20.09 53.53
  Q 19.29 53.84 18.70 54.47
  Q 18.34 54.85 17.81 54.89
  Q 16.83 54.96 15.97 55.43
  Q 15.53 55.66 15.34 56.13
  C 14.66 57.80 12.73 58.11 12.62 59.96
  Q 12.59 60.46 12.28 60.86
  Q 9.46 64.60 6.20 68.05
  C 5.63 68.66 4.72 68.93 3.91 68.85
  Q 3.37 68.80 3.12 69.29
  Q 1.87 71.71 0.99 69.52
  Q 0.95 43.71 0.99 17.86
  Q 1.00 11.17 2.21 8.74
  Q 4.56 4.01 9.05 2.08
  Q 11.55 1.00 17.30 0.99
  Q 48.01 0.95 78.24 0.97
  Z"
/>
<path fill="#a747e6" d="
  M 78.24 0.97
  L 108.51 0.98
  Q 105.53 4.30 102.64 7.39
  Q 101.48 8.64 99.65 11.98
  Q 99.40 12.44 98.93 12.67
  Q 98.40 12.94 98.21 13.49
  Q 98.03 14.02 97.63 14.40
  C 96.48 15.52 95.59 16.64 94.12 17.42
  Q 92.43 18.32 91.34 20.07
  Q 91.06 20.52 90.53 20.56
  Q 86.60 20.87 85.94 23.62
  L 45.48 38.87
  Q 45.13 38.86 44.96 38.70
  Q 44.52 38.27 45.13 38.15
  Q 45.33 38.10 45.50 38.01
  Q 45.77 37.85 45.46 37.86
  Q 44.73 37.88 44.00 38.33
  Q 43.89 38.40 43.99 38.48
  Q 44.04 38.51 44.08 38.55
  Q 44.19 38.68 44.05 38.76
  Q 43.04 39.39 41.78 39.35
  Q 40.68 39.31 41.64 38.76
  Q 42.89 38.06 43.25 36.65
  Q 43.36 36.21 43.81 36.14
  Q 44.00 36.11 44.19 36.16
  Q 44.24 36.17 44.27 36.12
  Q 45.02 34.59 46.03 34.02
  Q 48.96 32.35 50.72 30.54
  Q 55.94 25.18 60.94 20.19
  Q 65.59 15.55 69.31 11.44
  Q 70.52 10.12 71.58 8.66
  C 72.40 7.54 73.66 6.80 74.04 5.52
  Q 74.19 5.01 74.57 4.62
  L 78.24 0.97
  Z"
/>
<path fill="#7c56dc" d="
  M 108.51 0.98
  L 132.58 0.95
  Q 129.66 2.60 126.54 6.82
  Q 124.03 10.22 122.22 12.12
  Q 115.89 18.78 108.83 25.60
  Q 107.80 26.59 106.55 26.86
  Q 106.06 26.96 105.60 26.75
  Q 101.81 25.00 98.00 25.15
  Q 94.85 24.18 91.32 22.89
  Q 89.84 22.35 88.62 22.68
  Q 87.42 22.99 85.94 23.62
  Q 86.60 20.87 90.53 20.56
  Q 91.06 20.52 91.34 20.07
  Q 92.43 18.32 94.12 17.42
  C 95.59 16.64 96.48 15.52 97.63 14.40
  Q 98.03 14.02 98.21 13.49
  Q 98.40 12.94 98.93 12.67
  Q 99.40 12.44 99.65 11.98
  Q 101.48 8.64 102.64 7.39
  Q 105.53 4.30 108.51 0.98
  Z"
/>
<path fill="#5f5dd8" d="
  M 132.58 0.95
  L 145.55 1.00
  Q 144.15 2.34 142.94 3.78
  C 141.82 5.12 139.67 7.02 138.52 8.93
  Q 137.58 10.51 136.77 11.35
  Q 132.33 15.98 127.97 20.23
  Q 127.21 20.24 127.26 20.99
  Q 126.06 22.15 125.02 23.22
  Q 124.99 23.24 124.96 23.24
  Q 124.83 23.23 124.71 23.19
  Q 124.39 23.08 124.17 23.34
  Q 122.63 25.12 120.94 26.74
  Q 120.89 26.79 119.48 28.41
  Q 118.71 29.29 117.60 29.84
  Q 117.46 29.90 117.41 30.05
  Q 117.36 30.17 117.32 30.29
  Q 117.17 30.74 116.70 30.68
  Q 115.38 30.51 114.13 30.08
  Q 111.04 29.02 107.89 27.80
  Q 107.25 27.56 106.58 27.62
  Q 105.97 27.67 105.50 27.32
  A 1.35 1.35 0.0 0 0 104.69 27.05
  Q 103.78 27.05 103.78 27.45
  L 98.00 25.15
  Q 101.81 25.00 105.60 26.75
  Q 106.06 26.96 106.55 26.86
  Q 107.80 26.59 108.83 25.60
  Q 115.89 18.78 122.22 12.12
  Q 124.03 10.22 126.54 6.82
  Q 129.66 2.60 132.58 0.95
  Z"
/>
<path fill="#4762d6" d="
  M 145.55 1.00
  L 159.16 1.03
  Q 154.15 5.49 150.37 10.67
  Q 150.29 10.78 150.15 10.78
  Q 150.03 10.77 149.95 10.63
  Q 149.93 10.58 149.89 10.62
  Q 147.07 13.55 144.17 16.39
  C 141.53 18.97 139.48 21.92 136.65 24.25
  A 7.48 7.43 -2.5 0 0 135.23 25.79
  Q 134.25 27.19 132.94 28.28
  Q 131.96 29.09 131.06 30.21
  Q 128.47 33.42 125.18 34.50
  Q 122.52 32.91 121.44 34.06
  L 103.78 27.45
  Q 103.78 27.05 104.69 27.05
  A 1.35 1.35 0.0 0 1 105.50 27.32
  Q 105.97 27.67 106.58 27.62
  Q 107.25 27.56 107.89 27.80
  Q 111.04 29.02 114.13 30.08
  Q 115.38 30.51 116.70 30.68
  Q 117.17 30.74 117.32 30.29
  Q 117.36 30.17 117.41 30.05
  Q 117.46 29.90 117.60 29.84
  Q 118.71 29.29 119.48 28.41
  Q 120.89 26.79 120.94 26.74
  Q 122.63 25.12 124.17 23.34
  Q 124.39 23.08 124.71 23.19
  Q 124.83 23.23 124.96 23.24
  Q 124.99 23.24 125.02 23.22
  Q 126.06 22.15 127.26 20.99
  Q 127.21 20.24 127.97 20.23
  Q 132.33 15.98 136.77 11.35
  Q 137.58 10.51 138.52 8.93
  C 139.67 7.02 141.82 5.12 142.94 3.78
  Q 144.15 2.34 145.55 1.00
  Z"
/>
<path fill="#2069d6" d="
  M 159.16 1.03
  C 164.83 0.72 170.33 0.44 174.54 4.45
  Q 164.44 14.02 154.80 23.79
  C 154.40 24.20 154.27 24.69 153.88 25.09
  Q 149.83 29.14 145.51 33.55
  Q 144.44 34.65 143.56 35.90
  Q 142.24 37.75 140.07 38.41
  Q 138.41 38.92 135.14 37.86
  Q 129.91 36.18 125.18 34.50
  Q 128.47 33.42 131.06 30.21
  Q 131.96 29.09 132.94 28.28
  Q 134.25 27.19 135.23 25.79
  A 7.48 7.43 -2.5 0 1 136.65 24.25
  C 139.48 21.92 141.53 18.97 144.17 16.39
  Q 147.07 13.55 149.89 10.62
  Q 149.93 10.58 149.95 10.63
  Q 150.03 10.77 150.15 10.78
  Q 150.29 10.78 150.37 10.67
  Q 154.15 5.49 159.16 1.03
  Z"
/>
<path fill="#0071d6" d="
  M 174.54 4.45
  Q 179.57 9.04 178.92 15.61
  Q 177.60 14.99 176.89 18.21
  Q 176.67 19.18 176.64 21.34
  Q 176.62 23.11 176.33 24.86
  Q 176.33 24.87 176.33 24.88
  Q 176.33 24.89 176.35 24.89
  Q 176.41 24.88 176.38 24.82
  Q 176.31 24.69 176.34 24.51
  A 0.04 0.04 0.0 0 0 176.27 24.47
  Q 173.33 26.62 170.94 29.40
  Q 168.76 31.92 166.36 34.15
  Q 163.24 37.04 160.38 40.00
  Q 159.48 40.92 158.46 41.70
  Q 157.48 42.45 156.81 43.42
  Q 156.44 43.95 155.81 44.10
  Q 155.28 44.22 154.85 44.55
  Q 154.18 45.05 154.93 45.42
  Q 155.87 45.87 156.76 46.31
  Q 156.99 46.42 156.76 46.52
  Q 156.71 46.54 156.68 46.59
  Q 156.47 46.86 156.82 46.86
  Q 157.05 46.86 157.25 47.00
  Q 157.49 47.16 157.26 47.58
  L 121.44 34.06
  Q 122.52 32.91 125.18 34.50
  Q 129.91 36.18 135.14 37.86
  Q 138.41 38.92 140.07 38.41
  Q 142.24 37.75 143.56 35.90
  Q 144.44 34.65 145.51 33.55
  Q 149.83 29.14 153.88 25.09
  C 154.27 24.69 154.40 24.20 154.80 23.79
  Q 164.44 14.02 174.54 4.45
  Z"
/>
<path fill="#0079d7" d="
  M 178.92 15.61
  L 179.00 23.81
  Q 178.15 24.02 178.34 22.95
  Q 178.55 21.81 178.27 22.94
  C 177.85 24.64 177.36 26.37 177.29 28.13
  Q 177.02 34.98 177.05 41.87
  Q 177.06 42.82 176.58 43.62
  Q 176.34 44.01 176.02 43.69
  Q 175.35 43.02 174.68 43.72
  Q 170.96 47.65 167.12 51.60
  C 166.98 51.74 166.90 52.00 166.92 52.19
  Q 166.98 52.73 166.56 53.08
  C 165.09 54.31 164.08 56.14 162.23 56.74
  A 0.53 0.47 -82.7 0 0 161.94 56.99
  L 161.81 57.23
  Q 161.58 57.65 162.05 57.71
  Q 163.32 57.89 163.48 59.38
  L 154.60 62.68
  Q 154.12 62.86 154.12 63.37
  L 154.02 86.83
  Q 152.96 86.08 153.23 83.67
  Q 153.29 83.13 152.86 83.46
  Q 152.20 83.96 152.17 84.63
  Q 152.14 85.22 151.92 84.67
  Q 151.77 84.28 151.78 83.85
  Q 151.78 83.80 151.73 83.77
  Q 151.62 83.71 151.47 83.76
  Q 151.37 83.79 151.36 83.90
  Q 150.79 88.84 150.67 94.30
  Q 150.66 94.50 150.57 94.67
  Q 150.49 94.83 150.35 94.91
  Q 149.89 95.20 149.77 94.68
  L 149.56 93.78
  L 149.55 64.38
  Q 148.06 63.88 147.48 64.08
  Q 141.44 66.20 136.24 67.82
  Q 135.76 67.97 135.38 68.31
  Q 135.00 68.64 134.52 68.77
  Q 131.52 69.62 128.12 70.64
  C 127.08 70.95 126.38 71.82 125.24 71.62
  A 1.25 1.22 -61.7 0 0 124.16 71.96
  Q 123.34 72.77 122.27 72.88
  A 1.80 1.79 -68.7 0 0 121.27 73.32
  Q 120.40 74.07 119.22 73.89
  Q 118.78 73.82 118.42 74.10
  Q 116.22 75.81 113.54 75.63
  Q 113.09 75.60 112.71 75.83
  L 111.47 76.58
  Q 111.05 76.83 110.58 76.95
  Q 106.68 77.93 103.02 79.65
  Q 102.44 79.92 101.81 79.82
  Q 100.93 79.69 100.34 80.28
  Q 100.00 80.63 99.51 80.74
  L 98.09 81.09
  A 1.20 1.17 14.8 0 0 97.54 81.40
  Q 97.04 81.94 96.40 81.80
  Q 95.55 81.62 96.27 81.15
  Q 98.84 79.44 100.59 77.41
  Q 101.21 76.70 101.96 76.21
  Q 102.83 75.64 103.59 75.20
  Q 104.53 74.66 103.46 74.54
  Q 103.05 74.49 102.73 74.42
  Q 102.45 74.37 102.73 74.35
  Q 102.88 74.34 102.95 74.20
  A 0.30 0.28 22.4 0 1 103.28 74.07
  Q 104.33 74.38 105.03 73.68
  Q 105.35 73.37 105.78 73.24
  Q 106.02 73.17 106.27 73.19
  Q 106.77 73.21 107.17 72.90
  Q 109.91 70.70 112.97 70.15
  Q 115.41 69.72 115.28 67.97
  L 162.41 50.47
  Q 164.00 49.88 162.40 49.33
  L 157.26 47.58
  Q 157.49 47.16 157.25 47.00
  Q 157.05 46.86 156.82 46.86
  Q 156.47 46.86 156.68 46.59
  Q 156.71 46.54 156.76 46.52
  Q 156.99 46.42 156.76 46.31
  Q 155.87 45.87 154.93 45.42
  Q 154.18 45.05 154.85 44.55
  Q 155.28 44.22 155.81 44.10
  Q 156.44 43.95 156.81 43.42
  Q 157.48 42.45 158.46 41.70
  Q 159.48 40.92 160.38 40.00
  Q 163.24 37.04 166.36 34.15
  Q 168.76 31.92 170.94 29.40
  Q 173.33 26.62 176.27 24.47
  A 0.04 0.04 0.0 0 1 176.34 24.51
  Q 176.31 24.69 176.38 24.82
  Q 176.41 24.88 176.35 24.89
  Q 176.33 24.89 176.33 24.88
  Q 176.33 24.87 176.33 24.86
  Q 176.62 23.11 176.64 21.34
  Q 176.67 19.18 176.89 18.21
  Q 177.60 14.99 178.92 15.61
  Z"
/>
<path fill="#ffffff" d="
  M 98.00 25.15
  L 103.78 27.45
  L 121.44 34.06
  L 157.26 47.58
  L 162.40 49.33
  Q 164.00 49.88 162.41 50.47
  L 115.28 67.97
  Q 103.34 72.44 91.49 76.79
  C 89.48 77.53 88.22 77.02 86.45 76.12
  L 58.19 65.62
  L 22.37 52.24
  L 17.48 50.56
  Q 15.83 50.00 17.46 49.38
  L 45.48 38.87
  L 85.94 23.62
  Q 87.42 22.99 88.62 22.68
  Q 89.84 22.35 91.32 22.89
  Q 94.85 24.18 98.00 25.15
  Z"
/>
<path fill="#008cda" d="
  M 179.00 23.81
  L 178.98 49.54
  L 178.53 57.71
  Q 178.50 58.39 178.17 57.79
  L 177.99 57.44
  Q 177.60 56.71 177.59 57.54
  L 177.32 73.04
  Q 177.08 66.57 177.11 60.12
  Q 177.12 60.12 177.11 60.12
  Q 177.08 61.54 176.44 62.86
  Q 175.88 64.02 175.88 62.73
  L 175.88 62.27
  Q 175.88 60.52 174.68 61.80
  Q 170.41 66.40 166.53 70.19
  A 0.40 0.40 0.0 0 1 165.96 70.16
  Q 165.77 69.95 165.62 69.94
  Q 165.04 69.93 165.11 70.50
  Q 165.88 77.53 163.61 83.75
  L 163.48 59.38
  Q 163.32 57.89 162.05 57.71
  Q 161.58 57.65 161.81 57.23
  L 161.94 56.99
  A 0.53 0.47 -82.7 0 1 162.23 56.74
  C 164.08 56.14 165.09 54.31 166.56 53.08
  Q 166.98 52.73 166.92 52.19
  C 166.90 52.00 166.98 51.74 167.12 51.60
  Q 170.96 47.65 174.68 43.72
  Q 175.35 43.02 176.02 43.69
  Q 176.34 44.01 176.58 43.62
  Q 177.06 42.82 177.05 41.87
  Q 177.02 34.98 177.29 28.13
  C 177.36 26.37 177.85 24.64 178.27 22.94
  Q 178.55 21.81 178.34 22.95
  Q 178.15 24.02 179.00 23.81
  Z"
/>
<path fill="#15c1e4" d="
  M 178.98 49.54
  Q 179.04 105.98 179.00 162.41
  Q 178.99 168.65 177.73 171.16
  Q 175.53 175.55 171.21 177.57
  Q 168.74 178.73 163.02 178.77
  Q 141.94 178.90 121.03 178.54
  Q 100.71 177.47 80.39 177.64
  Q 80.37 177.64 80.37 177.63
  Q 80.37 177.63 80.37 177.62
  Q 80.37 177.58 80.41 177.58
  Q 85.26 177.76 90.01 177.44
  L 121.91 176.82
  Q 122.04 176.81 122.03 176.68
  Q 122.01 176.53 121.90 176.43
  Q 121.68 176.23 121.82 175.96
  Q 122.20 175.22 122.65 174.52
  Q 123.06 173.88 123.66 173.36
  Q 127.13 170.34 130.49 167.00
  Q 131.75 165.75 133.08 164.46
  Q 139.00 158.70 142.95 154.04
  Q 144.38 152.34 146.29 150.74
  Q 148.00 149.30 149.59 147.57
  Q 149.96 147.16 150.49 147.06
  Q 150.96 146.97 151.25 146.59
  C 152.59 144.84 153.89 143.12 155.59 141.68
  Q 159.56 138.33 163.38 135.67
  Q 164.55 134.86 165.25 133.58
  Q 166.81 130.73 169.21 128.32
  Q 169.39 128.14 169.21 127.97
  L 169.00 127.75
  Q 168.71 127.46 168.94 127.12
  L 173.65 120.55
  Q 173.95 120.12 174.48 120.12
  L 176.09 120.12
  Q 176.78 120.12 176.79 119.43
  L 177.06 99.22
  L 177.32 73.04
  L 177.59 57.54
  Q 177.60 56.71 177.99 57.44
  L 178.17 57.79
  Q 178.50 58.39 178.53 57.71
  L 178.98 49.54
  Z"
/>
<path fill="#a747e6" d="
  M 22.37 52.24
  L 58.19 65.62
  Q 57.03 66.34 59.53 67.79
  Q 60.25 68.21 59.45 68.38
  Q 59.36 68.40 59.33 68.48
  Q 59.17 68.94 58.86 69.31
  Q 57.06 71.51 54.24 72.27
  Q 54.06 72.32 53.94 72.19
  L 53.63 71.88
  Q 53.26 71.52 52.79 71.72
  Q 52.39 71.89 52.10 72.32
  L 16.85 59.55
  A 0.33 0.32 -80.1 0 0 16.42 59.86
  L 16.42 96.36
  Q 15.46 95.50 15.87 93.13
  Q 15.89 93.01 15.78 93.00
  Q 15.64 92.99 15.51 92.94
  Q 15.43 92.92 15.42 93.00
  L 14.65 102.37
  A 0.10 0.10 0.0 0 1 14.50 102.45
  Q 14.28 102.32 14.02 102.35
  Q 13.49 102.43 13.22 102.96
  Q 12.60 104.21 11.14 105.00
  A 2.28 2.28 0.0 0 0 10.31 105.75
  Q 8.58 108.35 6.16 111.06
  Q 5.39 111.93 4.43 112.41
  Q 3.38 112.95 2.99 114.06
  Q 2.81 114.57 2.30 114.76
  L 0.99 115.23
  L 0.99 69.52
  Q 1.87 71.71 3.12 69.29
  Q 3.37 68.80 3.91 68.85
  C 4.72 68.93 5.63 68.66 6.20 68.05
  Q 9.46 64.60 12.28 60.86
  Q 12.59 60.46 12.62 59.96
  C 12.73 58.11 14.66 57.80 15.34 56.13
  Q 15.53 55.66 15.97 55.43
  Q 16.83 54.96 17.81 54.89
  Q 18.34 54.85 18.70 54.47
  Q 19.29 53.84 20.09 53.53
  Q 20.53 53.36 20.24 52.99
  Q 20.15 52.87 20.03 52.78
  Q 19.68 52.54 20.08 52.69
  Q 21.73 53.33 22.37 52.24
  Z"
/>
<path fill="#ffffff" d="
  M 52.10 72.32
  L 80.59 82.63
  L 89.07 85.73
  A 2.38 2.34 44.5 0 0 90.70 85.73
  L 149.55 64.38
  L 149.56 93.78
  Q 150.13 96.65 148.03 98.12
  A 2.29 2.22 87.3 0 0 147.36 98.88
  Q 144.79 103.63 149.37 106.67
  Q 149.78 106.94 149.58 107.39
  Q 146.99 113.37 146.48 120.97
  C 145.97 128.68 157.24 129.05 157.33 121.80
  Q 157.42 114.98 154.35 107.44
  Q 154.15 106.95 154.58 106.64
  Q 159.08 103.35 156.51 98.87
  C 156.00 97.99 154.95 97.48 154.34 96.67
  A 1.47 1.44 27.2 0 1 154.05 95.80
  L 154.02 86.83
  L 154.12 63.37
  Q 154.12 62.86 154.60 62.68
  L 163.48 59.38
  L 163.61 83.75
  L 163.58 124.71
  L 163.39 132.86
  Q 163.38 133.37 162.91 133.55
  L 128.73 146.44
  Q 109.85 153.54 90.99 160.68
  Q 89.97 161.06 88.45 160.59
  L 77.47 156.55
  L 60.07 149.91
  L 27.24 137.68
  L 21.98 135.69
  L 17.17 133.83
  A 1.13 1.12 -88.9 0 1 16.52 133.15
  Q 16.28 132.46 16.40 131.49
  L 16.42 113.98
  L 16.42 96.36
  L 16.42 59.86
  A 0.33 0.32 -80.1 0 1 16.85 59.55
  L 52.10 72.32
  Z"
/>
<path fill="#00a0dd" d="
  M 177.32 73.04
  L 177.06 99.22
  L 176.78 99.06
  Q 176.37 98.82 176.41 99.29
  Q 176.44 99.53 176.35 99.76
  Q 176.25 100.03 176.15 99.76
  Q 176.06 99.50 176.11 99.20
  Q 176.21 98.54 175.58 98.74
  Q 175.29 98.83 174.97 98.80
  A 1.11 1.10 24.6 0 0 174.10 99.12
  Q 170.01 103.35 166.01 107.76
  Q 165.78 108.02 165.87 107.69
  Q 165.92 107.53 165.85 107.38
  A 0.19 0.19 0.0 0 0 165.55 107.30
  Q 165.11 107.68 165.09 108.09
  Q 164.92 110.72 164.78 113.53
  Q 164.69 115.43 164.09 118.92
  Q 163.60 121.77 163.58 124.71
  L 163.61 83.75
  Q 165.88 77.53 165.11 70.50
  Q 165.04 69.93 165.62 69.94
  Q 165.77 69.95 165.96 70.16
  A 0.40 0.40 0.0 0 0 166.53 70.19
  Q 170.41 66.40 174.68 61.80
  Q 175.88 60.52 175.88 62.27
  L 175.88 62.73
  Q 175.88 64.02 176.44 62.86
  Q 177.08 61.54 177.11 60.12
  Q 177.12 60.12 177.11 60.12
  Q 177.08 66.57 177.32 73.04
  Z"
/>
<path fill="#2069d6" d="
  M 149.55 64.38
  L 90.70 85.73
  A 2.38 2.34 44.5 0 1 89.07 85.73
  L 80.59 82.63
  L 82.73 81.31
  A 1.49 1.46 -8.8 0 0 83.38 80.44
  Q 83.55 79.80 84.11 79.40
  A 1.24 1.24 0.0 0 0 84.63 78.39
  L 84.63 77.26
  Q 84.63 76.68 85.19 76.84
  Q 86.20 77.12 86.45 76.12
  C 88.22 77.02 89.48 77.53 91.49 76.79
  Q 103.34 72.44 115.28 67.97
  Q 115.41 69.72 112.97 70.15
  Q 109.91 70.70 107.17 72.90
  Q 106.77 73.21 106.27 73.19
  Q 106.02 73.17 105.78 73.24
  Q 105.35 73.37 105.03 73.68
  Q 104.33 74.38 103.28 74.07
  A 0.30 0.28 22.4 0 0 102.95 74.20
  Q 102.88 74.34 102.73 74.35
  Q 102.45 74.37 102.73 74.42
  Q 103.05 74.49 103.46 74.54
  Q 104.53 74.66 103.59 75.20
  Q 102.83 75.64 101.96 76.21
  Q 101.21 76.70 100.59 77.41
  Q 98.84 79.44 96.27 81.15
  Q 95.55 81.62 96.40 81.80
  Q 97.04 81.94 97.54 81.40
  A 1.20 1.17 14.8 0 1 98.09 81.09
  L 99.51 80.74
  Q 100.00 80.63 100.34 80.28
  Q 100.93 79.69 101.81 79.82
  Q 102.44 79.92 103.02 79.65
  Q 106.68 77.93 110.58 76.95
  Q 111.05 76.83 111.47 76.58
  L 112.71 75.83
  Q 113.09 75.60 113.54 75.63
  Q 116.22 75.81 118.42 74.10
  Q 118.78 73.82 119.22 73.89
  Q 120.40 74.07 121.27 73.32
  A 1.80 1.79 -68.7 0 1 122.27 72.88
  Q 123.34 72.77 124.16 71.96
  A 1.25 1.22 -61.7 0 1 125.24 71.62
  C 126.38 71.82 127.08 70.95 128.12 70.64
  Q 131.52 69.62 134.52 68.77
  Q 135.00 68.64 135.38 68.31
  Q 135.76 67.97 136.24 67.82
  Q 141.44 66.20 147.48 64.08
  Q 148.06 63.88 149.55 64.38
  Z"
/>
<path fill="#5f5dd8" d="
  M 58.19 65.62
  L 86.45 76.12
  Q 86.20 77.12 85.19 76.84
  Q 84.63 76.68 84.63 77.26
  L 84.63 78.39
  A 1.24 1.24 0.0 0 1 84.11 79.40
  Q 83.55 79.80 83.38 80.44
  A 1.49 1.46 -8.8 0 1 82.73 81.31
  L 80.59 82.63
  L 52.10 72.32
  Q 52.39 71.89 52.79 71.72
  Q 53.26 71.52 53.63 71.88
  L 53.94 72.19
  Q 54.06 72.32 54.24 72.27
  Q 57.06 71.51 58.86 69.31
  Q 59.17 68.94 59.33 68.48
  Q 59.36 68.40 59.45 68.38
  Q 60.25 68.21 59.53 67.79
  Q 57.03 66.34 58.19 65.62
  Z"
/>
<path fill="#00a0dd" d="
  M 154.02 86.83
  L 154.05 95.80
  A 1.47 1.44 27.2 0 0 154.34 96.67
  C 154.95 97.48 156.00 97.99 156.51 98.87
  Q 159.08 103.35 154.58 106.64
  Q 154.15 106.95 154.35 107.44
  Q 157.42 114.98 157.33 121.80
  C 157.24 129.05 145.97 128.68 146.48 120.97
  Q 146.99 113.37 149.58 107.39
  Q 149.78 106.94 149.37 106.67
  Q 144.79 103.63 147.36 98.88
  A 2.29 2.22 87.3 0 1 148.03 98.12
  Q 150.13 96.65 149.56 93.78
  L 149.77 94.68
  Q 149.89 95.20 150.35 94.91
  Q 150.49 94.83 150.57 94.67
  Q 150.66 94.50 150.67 94.30
  Q 150.79 88.84 151.36 83.90
  Q 151.37 83.79 151.47 83.76
  Q 151.62 83.71 151.73 83.77
  Q 151.78 83.80 151.78 83.85
  Q 151.77 84.28 151.92 84.67
  Q 152.14 85.22 152.17 84.63
  Q 152.20 83.96 152.86 83.46
  Q 153.29 83.13 153.23 83.67
  Q 152.96 86.08 154.02 86.83
  Z"
/>
<path fill="#7c56dc" d="
  M 16.42 96.36
  L 16.42 113.98
  Q 16.19 112.92 15.73 111.88
  Q 15.50 111.34 15.63 111.92
  Q 15.68 112.10 15.50 112.23
  A 0.23 0.22 67.6 0 1 15.15 112.08
  Q 15.09 111.72 15.14 111.33
  Q 15.18 110.94 14.98 111.28
  Q 14.88 111.45 14.63 111.46
  Q 14.25 111.49 14.43 111.15
  L 14.65 110.75
  A 0.09 0.09 0.0 0 0 14.52 110.64
  Q 10.58 113.77 7.39 117.50
  Q 6.65 118.37 6.22 119.48
  Q 5.96 120.16 5.25 120.11
  Q 4.68 120.06 4.27 120.47
  Q 2.88 121.88 0.99 122.83
  L 0.99 115.23
  L 2.30 114.76
  Q 2.81 114.57 2.99 114.06
  Q 3.38 112.95 4.43 112.41
  Q 5.39 111.93 6.16 111.06
  Q 8.58 108.35 10.31 105.75
  A 2.28 2.28 0.0 0 1 11.14 105.00
  Q 12.60 104.21 13.22 102.96
  Q 13.49 102.43 14.02 102.35
  Q 14.28 102.32 14.50 102.45
  A 0.10 0.10 0.0 0 0 14.65 102.37
  L 15.42 93.00
  Q 15.43 92.92 15.51 92.94
  Q 15.64 92.99 15.78 93.00
  Q 15.89 93.01 15.87 93.13
  Q 15.46 95.50 16.42 96.36
  Z"
/>
<path fill="#00b2e1" d="
  M 177.06 99.22
  L 176.79 119.43
  Q 176.78 120.12 176.09 120.12
  L 174.48 120.12
  Q 173.95 120.12 173.65 120.55
  L 168.94 127.12
  Q 168.71 127.46 169.00 127.75
  L 169.21 127.97
  Q 169.39 128.14 169.21 128.32
  Q 166.81 130.73 165.25 133.58
  Q 164.55 134.86 163.38 135.67
  Q 159.56 138.33 155.59 141.68
  C 153.89 143.12 152.59 144.84 151.25 146.59
  Q 150.96 146.97 150.49 147.06
  Q 149.96 147.16 149.59 147.57
  Q 148.00 149.30 146.29 150.74
  Q 144.38 152.34 142.95 154.04
  Q 139.00 158.70 133.08 164.46
  Q 131.75 165.75 130.49 167.00
  Q 127.13 170.34 123.66 173.36
  Q 123.06 173.88 122.65 174.52
  Q 122.20 175.22 121.82 175.96
  Q 121.68 176.23 121.90 176.43
  Q 122.01 176.53 122.03 176.68
  Q 122.04 176.81 121.91 176.82
  L 90.01 177.44
  Q 93.05 177.00 96.09 176.74
  Q 96.50 176.70 96.90 176.47
  Q 97.27 176.26 97.78 176.05
  Q 98.55 175.73 97.73 175.86
  Q 97.46 175.90 97.20 175.87
  Q 96.46 175.77 96.97 175.23
  Q 99.96 172.05 103.25 169.11
  Q 106.22 166.47 108.77 163.51
  Q 110.93 161.00 113.44 158.63
  Q 118.17 154.19 122.94 149.65
  A 3.77 1.86 7.9 0 1 125.21 148.90
  Q 125.63 148.88 125.86 148.53
  Q 126.12 148.10 126.58 147.88
  Q 127.42 147.48 128.36 147.49
  Q 128.90 147.50 128.87 146.97
  Q 128.85 146.72 128.73 146.44
  L 162.91 133.55
  Q 163.38 133.37 163.39 132.86
  L 163.58 124.71
  Q 163.60 121.77 164.09 118.92
  Q 164.69 115.43 164.78 113.53
  Q 164.92 110.72 165.09 108.09
  Q 165.11 107.68 165.55 107.30
  A 0.19 0.19 0.0 0 1 165.85 107.38
  Q 165.92 107.53 165.87 107.69
  Q 165.78 108.02 166.01 107.76
  Q 170.01 103.35 174.10 99.12
  A 1.11 1.10 24.6 0 1 174.97 98.80
  Q 175.29 98.83 175.58 98.74
  Q 176.21 98.54 176.11 99.20
  Q 176.06 99.50 176.15 99.76
  Q 176.25 100.03 176.35 99.76
  Q 176.44 99.53 176.41 99.29
  Q 176.37 98.82 176.78 99.06
  L 177.06 99.22
  Z"
/>
<path fill="#5f5dd8" d="
  M 16.42 113.98
  L 16.40 131.49
  Q 16.30 133.11 14.67 133.32
  Q 14.62 133.32 14.60 133.37
  L 14.45 133.86
  Q 14.37 134.10 14.16 134.24
  Q 13.22 134.83 12.59 135.80
  Q 12.38 136.11 12.01 136.15
  Q 11.77 136.17 11.57 136.28
  Q 11.33 136.41 11.16 136.66
  Q 9.87 138.57 7.45 140.96
  Q 3.81 144.55 1.02 150.01
  L 0.99 122.83
  Q 2.88 121.88 4.27 120.47
  Q 4.68 120.06 5.25 120.11
  Q 5.96 120.16 6.22 119.48
  Q 6.65 118.37 7.39 117.50
  Q 10.58 113.77 14.52 110.64
  A 0.09 0.09 0.0 0 1 14.65 110.75
  L 14.43 111.15
  Q 14.25 111.49 14.63 111.46
  Q 14.88 111.45 14.98 111.28
  Q 15.18 110.94 15.14 111.33
  Q 15.09 111.72 15.15 112.08
  A 0.23 0.22 67.6 0 0 15.50 112.23
  Q 15.68 112.10 15.63 111.92
  Q 15.50 111.34 15.73 111.88
  Q 16.19 112.92 16.42 113.98
  Z"
/>
<path fill="#4762d6" d="
  M 16.40 131.49
  Q 16.28 132.46 16.52 133.15
  A 1.13 1.12 -88.9 0 0 17.17 133.83
  L 21.98 135.69
  Q 21.49 136.92 22.52 137.14
  A 0.77 0.77 0.0 0 1 22.87 138.47
  Q 19.44 141.54 17.07 144.91
  Q 16.68 145.47 16.09 145.83
  Q 15.56 146.16 15.14 146.63
  Q 9.89 152.37 4.51 158.75
  Q 4.28 159.02 3.94 158.95
  Q 3.71 158.90 3.57 159.10
  Q 3.39 159.37 3.36 159.70
  Q 3.13 162.87 1.06 164.94
  L 1.02 150.01
  Q 3.81 144.55 7.45 140.96
  Q 9.87 138.57 11.16 136.66
  Q 11.33 136.41 11.57 136.28
  Q 11.77 136.17 12.01 136.15
  Q 12.38 136.11 12.59 135.80
  Q 13.22 134.83 14.16 134.24
  Q 14.37 134.10 14.45 133.86
  L 14.60 133.37
  Q 14.62 133.32 14.67 133.32
  Q 16.30 133.11 16.40 131.49
  Z"
/>
<path fill="#2069d6" d="
  M 21.98 135.69
  L 27.24 137.68
  Q 26.21 138.20 28.07 138.97
  Q 32.20 140.68 36.23 142.60
  Q 36.82 142.88 36.32 143.30
  Q 36.00 143.57 35.58 143.58
  Q 35.02 143.58 34.63 143.98
  L 8.39 170.27
  Q 7.99 170.67 7.76 171.18
  Q 7.54 171.68 7.12 172.03
  Q 6.73 172.35 6.55 172.83
  L 5.55 175.43
  Q 0.66 170.88 1.06 164.94
  Q 3.13 162.87 3.36 159.70
  Q 3.39 159.37 3.57 159.10
  Q 3.71 158.90 3.94 158.95
  Q 4.28 159.02 4.51 158.75
  Q 9.89 152.37 15.14 146.63
  Q 15.56 146.16 16.09 145.83
  Q 16.68 145.47 17.07 144.91
  Q 19.44 141.54 22.87 138.47
  A 0.77 0.77 0.0 0 0 22.52 137.14
  Q 21.49 136.92 21.98 135.69
  Z"
/>
<path fill="#0071d6" d="
  M 27.24 137.68
  L 60.07 149.91
  C 58.81 151.11 56.97 150.28 55.49 150.23
  Q 55.01 150.22 54.68 150.56
  Q 45.88 159.72 36.78 168.63
  Q 32.64 172.68 28.12 176.12
  Q 27.72 176.43 27.21 176.46
  L 16.05 177.23
  Q 15.36 177.28 15.66 177.90
  Q 15.93 178.47 16.45 178.68
  Q 9.97 179.36 5.55 175.43
  L 6.55 172.83
  Q 6.73 172.35 7.12 172.03
  Q 7.54 171.68 7.76 171.18
  Q 7.99 170.67 8.39 170.27
  L 34.63 143.98
  Q 35.02 143.58 35.58 143.58
  Q 36.00 143.57 36.32 143.30
  Q 36.82 142.88 36.23 142.60
  Q 32.20 140.68 28.07 138.97
  Q 26.21 138.20 27.24 137.68
  Z"
/>
<path fill="#00a0dd" d="
  M 128.73 146.44
  Q 128.85 146.72 128.87 146.97
  Q 128.90 147.50 128.36 147.49
  Q 127.42 147.48 126.58 147.88
  Q 126.12 148.10 125.86 148.53
  Q 125.63 148.88 125.21 148.90
  A 3.77 1.86 7.9 0 0 122.94 149.65
  Q 118.17 154.19 113.44 158.63
  Q 110.93 161.00 108.77 163.51
  Q 106.22 166.47 103.25 169.11
  Q 99.96 172.05 96.97 175.23
  Q 96.46 175.77 97.20 175.87
  Q 97.46 175.90 97.73 175.86
  Q 98.55 175.73 97.78 176.05
  Q 97.27 176.26 96.90 176.47
  Q 96.50 176.70 96.09 176.74
  Q 93.05 177.00 90.01 177.44
  Q 85.26 177.76 80.41 177.58
  Q 80.37 177.58 80.37 177.62
  Q 80.37 177.63 80.37 177.63
  Q 80.37 177.64 80.39 177.64
  Q 100.71 177.47 121.03 178.54
  L 22.29 178.67
  Q 23.42 178.61 24.53 178.20
  Q 25.40 177.88 25.95 178.33
  Q 26.32 178.63 26.79 178.56
  Q 28.95 178.26 31.13 178.38
  Q 31.27 178.39 31.40 178.32
  Q 31.52 178.26 31.51 178.10
  Q 31.49 177.88 31.72 177.88
  L 64.95 177.53
  Q 66.78 177.38 67.14 176.75
  Q 67.29 176.47 67.17 176.19
  Q 67.11 176.03 66.95 176.10
  Q 66.19 176.45 66.64 175.73
  Q 67.76 173.95 68.91 172.91
  Q 73.99 168.28 78.13 163.50
  Q 79.53 161.88 81.13 160.45
  A 2.00 1.98 -57.2 0 1 83.04 160.03
  L 87.98 161.54
  A 0.50 0.50 0.0 0 0 88.61 160.91
  Q 88.56 160.76 88.45 160.59
  Q 89.97 161.06 90.99 160.68
  Q 109.85 153.54 128.73 146.44
  Z"
/>
<path fill="#0079d7" d="
  M 60.07 149.91
  L 77.47 156.55
  Q 76.00 157.18 73.73 156.27
  Q 73.27 156.08 72.77 156.14
  Q 71.18 156.33 69.93 155.60
  Q 69.50 155.35 69.20 155.75
  Q 68.97 156.06 68.71 156.35
  Q 62.80 162.91 56.67 168.92
  Q 53.96 171.58 50.87 174.34
  Q 50.53 174.64 50.44 175.07
  Q 50.41 175.25 50.31 175.38
  Q 50.11 175.64 49.78 175.78
  Q 48.42 176.38 47.02 176.90
  Q 46.83 176.98 46.67 176.84
  Q 46.55 176.74 46.41 176.80
  Q 45.41 177.24 46.50 177.29
  Q 55.73 177.73 64.95 177.53
  L 31.72 177.88
  Q 31.49 177.88 31.51 178.10
  Q 31.52 178.26 31.40 178.32
  Q 31.27 178.39 31.13 178.38
  Q 28.95 178.26 26.79 178.56
  Q 26.32 178.63 25.95 178.33
  Q 25.40 177.88 24.53 178.20
  Q 23.42 178.61 22.29 178.67
  L 16.45 178.68
  Q 15.93 178.47 15.66 177.90
  Q 15.36 177.28 16.05 177.23
  L 27.21 176.46
  Q 27.72 176.43 28.12 176.12
  Q 32.64 172.68 36.78 168.63
  Q 45.88 159.72 54.68 150.56
  Q 55.01 150.22 55.49 150.23
  C 56.97 150.28 58.81 151.11 60.07 149.91
  Z"
/>
<path fill="#008cda" d="
  M 77.47 156.55
  L 88.45 160.59
  Q 88.56 160.76 88.61 160.91
  A 0.50 0.50 0.0 0 1 87.98 161.54
  L 83.04 160.03
  A 2.00 1.98 -57.2 0 0 81.13 160.45
  Q 79.53 161.88 78.13 163.50
  Q 73.99 168.28 68.91 172.91
  Q 67.76 173.95 66.64 175.73
  Q 66.19 176.45 66.95 176.10
  Q 67.11 176.03 67.17 176.19
  Q 67.29 176.47 67.14 176.75
  Q 66.78 177.38 64.95 177.53
  Q 55.73 177.73 46.50 177.29
  Q 45.41 177.24 46.41 176.80
  Q 46.55 176.74 46.67 176.84
  Q 46.83 176.98 47.02 176.90
  Q 48.42 176.38 49.78 175.78
  Q 50.11 175.64 50.31 175.38
  Q 50.41 175.25 50.44 175.07
  Q 50.53 174.64 50.87 174.34
  Q 53.96 171.58 56.67 168.92
  Q 62.80 162.91 68.71 156.35
  Q 68.97 156.06 69.20 155.75
  Q 69.50 155.35 69.93 155.60
  Q 71.18 156.33 72.77 156.14
  Q 73.27 156.08 73.73 156.27
  Q 76.00 157.18 77.47 156.55
  Z"
/>
</svg>
