<?xml version="1.0" encoding="UTF-8" standalone="no"?>
<!DOCTYPE svg PUBLIC "-//W3C//DTD SVG 1.1//EN" "http://www.w3.org/Graphics/SVG/1.1/DTD/svg11.dtd">
<svg xmlns="http://www.w3.org/2000/svg" version="1.1" viewBox="0.00 0.00 256.00 256.00">
<g stroke-width="2.00" fill="none" stroke-linecap="butt">
<path stroke="#f5e7fc" stroke-opacity="0.580" vector-effect="non-scaling-stroke" d="
  M 103.00 0.00
  L 109.87 0.38
  A 0.01 0.01 0.0 0 1 109.88 0.40
  C 107.12 1.17 104.11 1.20 101.22 1.83
  Q 67.13 9.31 41.28 32.78"
/>
<path stroke="#f5e7fc" stroke-opacity="0.580" vector-effect="non-scaling-stroke" d="
  M 34.78 39.24
  L 21.71 55.45"
/>
<path stroke="#f5e7fc" stroke-opacity="0.580" vector-effect="non-scaling-stroke" d="
  M 9.35 78.83
  Q 2.09 96.60 0.61 115.68"
/>
<path stroke="#e3abf0" stroke-opacity="0.580" vector-effect="non-scaling-stroke" d="
  M 0.61 115.68
  Q 0.56 115.76 0.30 115.80"
/>
<path stroke="#f5e7fc" stroke-opacity="0.580" vector-effect="non-scaling-stroke" d="
  M 0.30 115.80
  L 0.00 108.49"
/>
<path stroke="#f5e7fc" stroke-opacity="0.580" vector-effect="non-scaling-stroke" d="
  M 152.63 0.00
  L 146.75 0.43
  A 0.20 0.17 -2.3 0 0 146.58 0.59
  L 146.58 0.60
  A 0.17 0.16 8.0 0 0 146.72 0.77
  C 149.20 1.14 151.38 1.15 154.01 1.71
  C 206.11 12.87 244.70 53.06 254.19 105.28
  C 254.80 108.64 255.00 112.27 255.35 115.78"
/>
<path stroke="#f5dcf8" vector-effect="non-scaling-stroke" d="
  M 255.35 115.78
  Q 255.10 116.98 255.47 118.02
  A 0.15 0.14 -50.9 0 0 255.75 117.99
  Q 255.90 116.74 255.63 115.46"
/>
<path stroke="#f5e7fc" stroke-opacity="0.580" vector-effect="non-scaling-stroke" d="
  M 255.63 115.46
  L 256.00 109.24"
/>
<path stroke="#eddef4" stroke-opacity="0.604" vector-effect="non-scaling-stroke" d="
  M 256.00 149.38
  L 255.53 138.46"
/>
<path stroke="#f5dcf8" vector-effect="non-scaling-stroke" d="
  M 255.53 138.46
  Q 255.63 138.25 255.61 137.94
  A 0.18 0.18 0.0 0 0 255.27 137.86
  Q 255.17 138.03 255.25 138.46"
/>
<path stroke="#eddef4" stroke-opacity="0.604" vector-effect="non-scaling-stroke" d="
  M 255.25 138.46
  C 254.92 142.02 254.79 145.68 254.19 149.06
  Q 248.62 180.42 229.95 204.67
  Q 198.11 246.00 145.31 254.11"
/>
<path stroke="#d6b8e4" vector-effect="non-scaling-stroke" d="
  M 145.31 254.11
  Q 144.45 253.71 144.20 254.27"
/>
<path stroke="#eddef4" stroke-opacity="0.604" vector-effect="non-scaling-stroke" d="
  M 144.20 254.27
  L 134.00 254.88"
/>
<path stroke="#f5dcf8" vector-effect="non-scaling-stroke" d="
  M 134.00 254.88
  L 133.03 254.86"
/>
<path stroke="#eddef4" stroke-opacity="0.604" vector-effect="non-scaling-stroke" d="
  M 133.03 254.86
  L 112.73 254.33"
/>
<path stroke="#d6b8e4" vector-effect="non-scaling-stroke" d="
  M 112.73 254.33
  Q 112.50 253.98 112.01 254.14"
/>
<path stroke="#eddef4" stroke-opacity="0.604" vector-effect="non-scaling-stroke" d="
  M 112.01 254.14
  Q 84.86 250.73 62.69 237.31
  Q 14.72 208.27 2.37 152.46"
/>
<path stroke="#f5e7fc" stroke-opacity="0.580" vector-effect="non-scaling-stroke" d="
  M 2.37 152.46
  L 0.60 138.63
  A 0.07 0.07 0.0 0 0 0.46 138.64
  L 0.40 140.04"
/>
<path stroke="#f5dcf8" vector-effect="non-scaling-stroke" d="
  M 0.40 140.04
  L 0.37 140.96"
/>
<path stroke="#eddef4" stroke-opacity="0.604" vector-effect="non-scaling-stroke" d="
  M 0.37 140.96
  L 0.30 142.47"
/>
<path stroke="#f5e7fc" stroke-opacity="0.580" vector-effect="non-scaling-stroke" d="
  M 0.30 142.47
  L 0.00 152.76"
/>
<path stroke="#f5dcf8" vector-effect="non-scaling-stroke" d="
  M 0.30 115.80
  Q 0.13 117.11 0.41 118.45
  A 0.15 0.14 46.5 0 0 0.69 118.46
  Q 1.00 117.17 0.61 115.68"
/>
<path stroke="#eddef4" stroke-opacity="0.604" vector-effect="non-scaling-stroke" d="
  M 9.35 78.83
  Q 14.44 66.58 21.71 55.45"
/>
<path stroke="#eddef4" stroke-opacity="0.604" vector-effect="non-scaling-stroke" d="
  M 34.78 39.24
  L 41.28 32.78"
/>
<path stroke="#eabcf4" vector-effect="non-scaling-stroke" d="
  M 112.07 12.71
  A 115.50 115.48 -64.0 0 0 70.10 27.17"
/>
<path stroke="#f2bfeb" vector-effect="non-scaling-stroke" d="
  M 70.10 27.17
  A 115.49 115.47 85.1 0 0 19.73 86.90"
/>
<path stroke="#f7b3e0" vector-effect="non-scaling-stroke" d="
  M 19.73 86.90
  A 115.42 115.42 0.0 0 0 14.14 146.44"
/>
<path stroke="#faaad8" vector-effect="non-scaling-stroke" d="
  M 14.14 146.44
  A 115.65 115.46 -64.5 0 0 27.26 183.58"
/>
<path stroke="#fd9dcd" vector-effect="non-scaling-stroke" d="
  M 27.26 183.58
  A 115.52 115.51 -1.4 0 0 76.37 230.41"
/>
<path stroke="#f3a9d3" vector-effect="non-scaling-stroke" d="
  M 76.37 230.41
  A 115.70 115.59 63.3 0 0 107.53 240.76"
/>
<path stroke="#e8b0da" vector-effect="non-scaling-stroke" d="
  M 107.53 240.76
  A 115.64 115.35 -42.0 0 0 136.63 242.26"
/>
<path stroke="#e1b4de" vector-effect="non-scaling-stroke" d="
  M 136.63 242.26
  A 106.38 98.84 -3.7 0 0 151.52 240.16"
/>
<path stroke="#dcb6e1" vector-effect="non-scaling-stroke" d="
  M 151.52 240.16
  A 115.23 114.99 -60.8 0 0 167.59 235.59"
/>
<path stroke="#d6b8e4" vector-effect="non-scaling-stroke" d="
  M 167.59 235.59
  A 115.27 114.97 -69.6 0 0 184.30 227.93"
/>
<path stroke="#cdbbea" vector-effect="non-scaling-stroke" d="
  M 184.30 227.93
  A 115.35 115.06 -80.9 0 0 206.31 211.97"
/>
<path stroke="#c7bced" vector-effect="non-scaling-stroke" d="
  M 206.31 211.97
  A 115.51 114.92 -4.4 0 0 223.52 192.00"
/>
<path stroke="#c1bef0" vector-effect="non-scaling-stroke" d="
  M 223.52 192.00
  A 94.36 77.31 -57.7 0 0 230.37 180.55"
/>
<path stroke="#babff3" vector-effect="non-scaling-stroke" d="
  M 230.37 180.55
  A 115.47 115.36 -25.7 0 0 241.29 149.48"
/>
<path stroke="#a8c1f9" vector-effect="non-scaling-stroke" d="
  M 241.29 149.48
  A 115.57 115.44 -40.3 0 0 243.43 123.46"
/>
<path stroke="#9bc2fd" vector-effect="non-scaling-stroke" d="
  M 243.43 123.46
  A 115.66 115.53 31.3 0 0 232.16 77.22"
/>
<path stroke="#a8c1f9" vector-effect="non-scaling-stroke" d="
  M 232.16 77.22
  A 46.84 19.19 62.9 0 0 229.13 71.33"
/>
<path stroke="#b2bffe" vector-effect="non-scaling-stroke" d="
  M 229.13 71.33
  A 115.46 115.31 10.9 0 0 217.15 53.68"
/>
<path stroke="#c1befc" vector-effect="non-scaling-stroke" d="
  M 217.15 53.68
  A 116.09 115.88 89.7 0 0 200.67 37.34"
/>
<path stroke="#cebbfb" vector-effect="non-scaling-stroke" d="
  M 200.67 37.34
  A 115.66 115.47 75.0 0 0 169.73 19.41"
/>
<path stroke="#ddbcfa" vector-effect="non-scaling-stroke" d="
  M 169.73 19.41
  A 115.71 115.51 59.3 0 0 143.31 12.63"
/>
<path stroke="#e5baf9" vector-effect="non-scaling-stroke" d="
  M 143.31 12.63
  A 115.73 115.48 44.8 0 0 112.07 12.71"
/>
<path stroke="#c377f4" vector-effect="non-scaling-stroke" d="
  M 143.31 12.63
  Q 142.12 20.51 142.57 25.93
  C 143.47 36.97 144.08 44.49 142.22 53.45
  Q 134.76 89.44 128.54 125.74"
/>
<path stroke="#d077ed" vector-effect="non-scaling-stroke" d="
  M 128.54 125.74
  L 129.20 74.93"
/>
<path stroke="#d788ed" vector-effect="non-scaling-stroke" d="
  M 129.20 74.93
  C 133.51 65.86 134.02 56.82 128.11 48.16"
/>
<path stroke="#d890f0" vector-effect="non-scaling-stroke" d="
  M 128.11 48.16
  Q 125.05 43.44 119.96 40.50"
/>
<path stroke="#da97f2" vector-effect="non-scaling-stroke" d="
  M 119.96 40.50
  L 114.18 38.06"
/>
<path stroke="#dda1f4" vector-effect="non-scaling-stroke" d="
  M 114.18 38.06
  L 112.06 37.37"
/>
<path stroke="#d077ed" vector-effect="non-scaling-stroke" d="
  M 112.06 37.37
  Q 110.04 30.21 107.57 23.08
  Q 105.33 16.60 112.07 12.71"
/>
<path stroke="#dd8ae8" vector-effect="non-scaling-stroke" d="
  M 129.20 74.93
  Q 122.69 84.17 111.99 87.11"
/>
<path stroke="#c773d6" vector-effect="non-scaling-stroke" d="
  M 128.33 127.29
  L 129.01 131.29"
/>
<path stroke="#cc71d2" vector-effect="non-scaling-stroke" d="
  M 129.01 131.29
  L 127.87 128.96"
/>
<path stroke="#e567cc" vector-effect="non-scaling-stroke" d="
  M 127.87 128.96
  L 126.77 127.41"
/>
<path stroke="#e270d5" vector-effect="non-scaling-stroke" d="
  M 126.77 127.41
  Q 127.31 127.40 127.68 127.23"
/>
<path stroke="#e2a3ef" vector-effect="non-scaling-stroke" d="
  M 112.06 37.37
  L 94.01 37.01"
/>
<path stroke="#e099ed" vector-effect="non-scaling-stroke" d="
  M 94.01 37.01
  L 84.08 36.95"
/>
<path stroke="#de92eb" vector-effect="non-scaling-stroke" d="
  M 84.08 36.95
  L 77.33 37.37"
/>
<path stroke="#dd8ae8" vector-effect="non-scaling-stroke" d="
  M 77.33 37.37
  L 70.06 39.87"
/>
<path stroke="#dd7cdf" vector-effect="non-scaling-stroke" d="
  M 70.06 39.87
  Q 66.75 40.19 65.64 34.04
  C 65.11 31.12 67.95 29.04 70.10 27.17"
/>
<path stroke="#ac78f6" vector-effect="non-scaling-stroke" d="
  M 169.73 19.41
  Q 168.24 38.38 166.09 49.53
  Q 162.08 70.34 150.08 90.78
  Q 139.91 108.11 129.44 125.61"
/>
<path stroke="#9f7bf7" vector-effect="non-scaling-stroke" d="
  M 129.44 125.61
  Q 128.59 126.24 128.70 127.29"
/>
<path stroke="#ba72dc" vector-effect="non-scaling-stroke" d="
  M 128.70 127.29
  L 128.33 127.29"
/>
<path stroke="#c879ef" vector-effect="non-scaling-stroke" d="
  M 128.33 127.29
  L 128.54 125.74"
/>
<path stroke="#edc3f4" vector-effect="non-scaling-stroke" d="
  M 94.01 37.01
  C 88.06 43.92 84.30 51.88 89.61 60.44
  C 93.15 66.14 101.07 68.92 107.23 65.33
  C 116.86 59.70 115.78 47.32 114.18 38.06"
/>
<path stroke="#e8b2f0" vector-effect="non-scaling-stroke" d="
  M 84.08 36.95
  C 81.97 44.74 80.56 53.15 82.86 61.10
  C 85.53 70.36 93.95 77.49 103.76 73.92
  C 117.14 69.06 119.90 52.74 119.96 40.50"
/>
<path stroke="#e5a3eb" vector-effect="non-scaling-stroke" d="
  M 128.11 48.16
  C 123.43 62.71 116.15 77.88 98.53 78.30
  C 85.10 78.61 76.91 66.99 76.27 54.60
  Q 75.84 46.47 77.33 37.37"
/>
<path stroke="#e58ddf" vector-effect="non-scaling-stroke" d="
  M 70.06 39.87
  Q 69.19 46.13 68.89 52.79
  Q 68.43 63.06 73.10 71.69
  C 80.81 85.95 97.39 87.29 111.99 87.11"
/>
<path stroke="#dd7cdf" vector-effect="non-scaling-stroke" d="
  M 111.99 87.11
  C 106.05 89.69 98.25 94.01 103.68 101.17
  C 107.74 106.51 114.34 109.59 118.90 114.60
  Q 124.10 120.29 127.68 127.23"
/>
<path stroke="#ea73cc" vector-effect="non-scaling-stroke" d="
  M 127.68 127.23
  Q 114.08 124.67 100.13 123.54
  C 77.54 121.70 53.87 120.86 36.81 103.94
  Q 28.32 95.52 19.73 86.90"
/>
<path stroke="#f15eb9" vector-effect="non-scaling-stroke" d="
  M 126.77 127.41
  Q 111.46 134.71 95.67 140.86
  Q 78.27 147.62 59.69 148.77
  Q 47.97 149.50 43.83 149.31
  Q 29.12 148.66 14.14 146.44"
/>
<path stroke="#dc5fb6" vector-effect="non-scaling-stroke" d="
  M 127.87 128.96
  L 127.49 130.53"
/>
<path stroke="#e35bb2" vector-effect="non-scaling-stroke" d="
  M 127.49 130.53
  L 125.53 133.76"
/>
<path stroke="#ee54ab" vector-effect="non-scaling-stroke" d="
  M 125.53 133.76
  Q 115.08 148.89 105.04 166.94
  Q 100.39 175.29 93.53 184.02"
/>
<path stroke="#f848a5" vector-effect="non-scaling-stroke" d="
  M 93.53 184.02
  C 94.82 180.28 98.19 170.31 96.55 166.56
  C 95.21 163.53 90.31 164.55 87.96 165.39
  C 74.53 170.18 64.84 174.29 53.23 174.65
  Q 49.34 174.77 41.96 174.64
  C 34.82 174.52 29.15 175.77 27.26 183.58"
/>
<path stroke="#ca64b8" vector-effect="non-scaling-stroke" d="
  M 136.63 242.26
  Q 137.68 219.80 133.99 197.74
  C 132.69 190.02 128.51 177.73 127.43 168.72
  Q 126.59 161.70 126.71 155.31
  Q 126.95 142.93 127.49 130.53"
/>
<path stroke="#aa72cc" vector-effect="non-scaling-stroke" d="
  M 128.77 127.47
  L 130.23 131.70"
/>
<path stroke="#b36fc6" vector-effect="non-scaling-stroke" d="
  M 130.23 131.70
  C 135.47 148.88 140.51 167.30 147.91 182.99
  Q 160.40 209.49 167.59 235.59"
/>
<path stroke="#be6ac0" vector-effect="non-scaling-stroke" d="
  M 151.52 240.16
  C 149.82 223.73 146.77 210.68 142.45 194.77
  C 136.67 173.47 132.45 152.72 129.01 131.29"
/>
<path stroke="#747efb" vector-effect="non-scaling-stroke" d="
  M 217.15 53.68
  C 205.16 63.58 195.36 74.14 185.76 85.72
  C 175.05 98.61 163.09 106.20 148.70 115.34
  Q 141.69 119.78 135.30 127.12"
/>
<path stroke="#7c7ef0" vector-effect="non-scaling-stroke" d="
  M 135.30 127.12
  L 131.18 127.85"
/>
<path stroke="#897bea" vector-effect="non-scaling-stroke" d="
  M 131.18 127.85
  Q 130.39 127.65 129.49 127.79"
/>
<path stroke="#8f7ae7" vector-effect="non-scaling-stroke" d="
  M 129.49 127.79
  Q 129.21 127.53 128.77 127.47"
/>
<path stroke="#9e75de" vector-effect="non-scaling-stroke" d="
  M 128.77 127.47
  Q 128.74 127.38 128.70 127.29"
/>
<path stroke="#907af8" vector-effect="non-scaling-stroke" d="
  M 200.67 37.34
  Q 188.44 51.52 178.76 67.28
  Q 167.75 85.21 167.74 85.22
  C 158.66 98.40 146.89 111.09 135.69 121.38
  Q 133.68 123.23 129.44 125.61"
/>
<path stroke="#dc59ad" vector-effect="non-scaling-stroke" d="
  M 107.53 240.76
  Q 114.03 222.45 116.17 200.65
  Q 119.57 165.92 120.28 156.29
  Q 120.81 149.10 125.53 133.76"
/>
<path stroke="#f147a0" vector-effect="non-scaling-stroke" d="
  M 76.37 230.41
  Q 88.50 208.40 93.53 184.02"
/>
<path stroke="#9578d7" vector-effect="non-scaling-stroke" d="
  M 129.49 127.79
  C 137.10 135.67 144.55 143.34 151.94 151.74
  C 169.79 172.02 187.67 192.41 206.31 211.97"
/>
<path stroke="#a474cf" vector-effect="non-scaling-stroke" d="
  M 184.30 227.93
  C 171.88 208.03 161.28 187.49 148.86 167.47
  C 142.52 157.24 136.34 143.58 130.23 131.70"
/>
<path stroke="#7c7de3" vector-effect="non-scaling-stroke" d="
  M 230.37 180.55
  Q 215.41 176.99 198.42 167.08
  C 178.09 155.22 167.33 148.85 149.73 140.79"
/>
<path stroke="#827ce0" vector-effect="non-scaling-stroke" d="
  M 149.73 140.79
  L 131.18 127.85"
/>
<path stroke="#5b81f8" vector-effect="non-scaling-stroke" d="
  M 229.13 71.33
  Q 217.04 76.64 209.39 81.79
  C 187.95 96.23 174.32 105.24 153.86 116.21
  Q 151.24 117.62 146.54 120.86"
/>
<path stroke="#4d82fb" vector-effect="non-scaling-stroke" d="
  M 146.54 120.86
  L 139.46 123.67
  A 0.98 0.98 0.0 0 0 139.16 125.29
  L 139.79 125.87"
/>
<path stroke="#6d7ff1" vector-effect="non-scaling-stroke" d="
  M 139.79 125.87
  L 135.30 127.12"
/>
<path stroke="#897bdd" vector-effect="non-scaling-stroke" d="
  M 149.73 140.79
  Q 156.25 149.77 164.63 155.66
  Q 189.63 173.21 199.76 180.59
  Q 209.88 187.96 223.52 192.00"
/>
<path stroke="#4483f7" vector-effect="non-scaling-stroke" d="
  M 243.43 123.46
  C 233.20 122.44 226.34 122.55 215.55 122.85
  C 203.85 123.18 192.82 122.43 180.49 122.05
  Q 163.50 121.52 140.78 125.80"
/>
<path stroke="#5681f0" vector-effect="non-scaling-stroke" d="
  M 140.78 125.80
  L 139.79 125.87"
/>
<path stroke="#6380ed" vector-effect="non-scaling-stroke" d="
  M 241.29 149.48
  Q 219.08 147.44 197.92 141.21
  Q 190.61 139.05 169.05 131.92
  Q 160.13 128.97 140.78 125.80"
/>
<path stroke="#4483f7" vector-effect="non-scaling-stroke" d="
  M 232.16 77.22
  Q 212.11 86.87 203.14 93.13
  Q 194.33 99.28 189.63 102.15
  C 176.71 110.01 161.12 115.69 146.54 120.86"
/>
<path stroke="#f5dcf8" vector-effect="non-scaling-stroke" d="
  M 0.96 137.89
  Q 0.99 137.71 0.79 137.35
  A 0.27 0.27 0.0 0 0 0.29 137.49
  Q 0.30 137.85 0.32 137.93
  A 0.33 0.33 0.0 0 0 0.96 137.89"
/>
<path stroke="#e3abf0" stroke-opacity="0.580" vector-effect="non-scaling-stroke" d="
  M 255.63 115.46
  L 255.35 115.78"
/>
<path stroke="#f3d9f8" vector-effect="non-scaling-stroke" d="
  M 104.42 52.67
  A 2.60 2.60 0.0 0 0 101.82 50.07
  A 2.60 2.60 0.0 0 0 99.22 52.67
  A 2.60 2.60 0.0 0 0 101.82 55.27
  A 2.60 2.60 0.0 0 0 104.42 52.67"
/>
<path stroke="#747efb" vector-effect="non-scaling-stroke" d="
  M 130.37 127.02
  A 0.14 0.14 0.0 0 0 130.23 126.88
  A 0.14 0.14 0.0 0 0 130.09 127.02
  A 0.14 0.14 0.0 0 0 130.23 127.16
  A 0.14 0.14 0.0 0 0 130.37 127.02"
/>
<path stroke="#dba4e8" stroke-opacity="0.604" vector-effect="non-scaling-stroke" d="
  M 255.53 138.46
  Q 255.39 138.46 255.25 138.46"
/>
<path stroke="#e3abf0" stroke-opacity="0.580" vector-effect="non-scaling-stroke" d="
  M 0.38 141.04
  L 0.40 140.04"
/>
<path stroke="#e5c8f0" stroke-opacity="0.604" vector-effect="non-scaling-stroke" d="
  M 139.60 256.00
  L 113.41 256.00"
/>
<path stroke="#a969c7" stroke-opacity="0.604" vector-effect="non-scaling-stroke" d="
  M 112.01 254.14
  Q 112.42 254.13 112.73 254.33"
/>
<path stroke="#dba4e8" stroke-opacity="0.604" vector-effect="non-scaling-stroke" d="
  M 133.03 254.86
  L 134.00 254.88"
/>
<path stroke="#a969c7" stroke-opacity="0.604" vector-effect="non-scaling-stroke" d="
  M 144.20 254.27
  Q 145.25 254.47 145.31 254.11"
/>
<path stroke="#dba4e8" stroke-opacity="0.604" vector-effect="non-scaling-stroke" d="
  M 0.38 141.04
  Q 0.37 141.00 0.37 140.96"
/>
<path stroke="#fcf6fe" stroke-opacity="0.529" vector-effect="non-scaling-stroke" d="
  M 0.51 256.00
  Q 0.31 255.69 0.00 255.50"
/>
</g>
<path fill="#bd54f3" fill-opacity="0.055" d="
  M 68.68 0.00
  Q 59.98 4.97 57.76 6.38
  C 44.66 14.70 34.63 26.04 23.61 36.95
  C 16.27 44.20 10.38 51.31 5.62 59.70
  Q 4.27 62.08 0.00 70.29
  L 0.00 0.00
  L 68.68 0.00
  Z"
/>
<path fill="#b850ec" fill-opacity="0.157" d="
  M 103.00 0.00
  L 109.87 0.38
  A 0.01 0.01 0.0 0 1 109.88 0.40
  C 107.12 1.17 104.11 1.20 101.22 1.83
  Q 67.13 9.31 41.28 32.78
  Q 36.94 34.94 34.78 39.24
  L 21.71 55.45
  Q 12.34 65.18 9.35 78.83
  Q 2.09 96.60 0.61 115.68
  Q 0.56 115.76 0.30 115.80
  L 0.00 108.49
  L 0.00 70.29
  Q 4.27 62.08 5.62 59.70
  C 10.38 51.31 16.27 44.20 23.61 36.95
  C 34.63 26.04 44.66 14.70 57.76 6.38
  Q 59.98 4.97 68.68 0.00
  L 103.00 0.00
  Z"
/>
<path fill="#ffffff" d="
  M 152.63 0.00
  L 146.75 0.43
  A 0.20 0.17 -2.3 0 0 146.58 0.59
  L 146.58 0.60
  A 0.17 0.16 8.0 0 0 146.72 0.77
  C 149.20 1.14 151.38 1.15 154.01 1.71
  C 206.11 12.87 244.70 53.06 254.19 105.28
  C 254.80 108.64 255.00 112.27 255.35 115.78
  Q 255.10 116.98 255.47 118.02
  A 0.15 0.14 -50.9 0 0 255.75 117.99
  Q 255.90 116.74 255.63 115.46
  L 256.00 109.24
  L 256.00 149.38
  L 255.53 138.46
  Q 255.63 138.25 255.61 137.94
  A 0.18 0.18 0.0 0 0 255.27 137.86
  Q 255.17 138.03 255.25 138.46
  C 254.92 142.02 254.79 145.68 254.19 149.06
  Q 248.62 180.42 229.95 204.67
  Q 198.11 246.00 145.31 254.11
  Q 144.45 253.71 144.20 254.27
  L 134.00 254.88
  L 133.03 254.86
  L 112.73 254.33
  Q 112.50 253.98 112.01 254.14
  Q 84.86 250.73 62.69 237.31
  Q 14.72 208.27 2.37 152.46
  L 0.60 138.63
  A 0.07 0.07 0.0 0 0 0.46 138.64
  L 0.40 140.04
  L 0.37 140.96
  L 0.30 142.47
  L 0.00 152.76
  L 0.00 108.49
  L 0.30 115.80
  Q 0.13 117.11 0.41 118.45
  A 0.15 0.14 46.5 0 0 0.69 118.46
  Q 1.00 117.17 0.61 115.68
  Q 2.09 96.60 9.35 78.83
  Q 14.44 66.58 21.71 55.45
  L 34.78 39.24
  L 41.28 32.78
  Q 67.13 9.31 101.22 1.83
  C 104.11 1.20 107.12 1.17 109.88 0.40
  A 0.01 0.01 0.0 0 0 109.87 0.38
  L 103.00 0.00
  L 152.63 0.00
  Z
  M 112.07 12.71
  A 115.50 115.48 -64.0 0 0 70.10 27.17
  A 115.49 115.47 85.1 0 0 19.73 86.90
  A 115.42 115.42 0.0 0 0 14.14 146.44
  A 115.65 115.46 -64.5 0 0 27.26 183.58
  A 115.52 115.51 -1.4 0 0 76.37 230.41
  A 115.70 115.59 63.3 0 0 107.53 240.76
  A 115.64 115.35 -42.0 0 0 136.63 242.26
  A 106.38 98.84 -3.7 0 0 151.52 240.16
  A 115.23 114.99 -60.8 0 0 167.59 235.59
  A 115.27 114.97 -69.6 0 0 184.30 227.93
  A 115.35 115.06 -80.9 0 0 206.31 211.97
  A 115.51 114.92 -4.4 0 0 223.52 192.00
  A 94.36 77.31 -57.7 0 0 230.37 180.55
  A 115.47 115.36 -25.7 0 0 241.29 149.48
  A 115.57 115.44 -40.3 0 0 243.43 123.46
  A 115.66 115.53 31.3 0 0 232.16 77.22
  A 46.84 19.19 62.9 0 0 229.13 71.33
  A 115.46 115.31 10.9 0 0 217.15 53.68
  A 116.09 115.88 89.7 0 0 200.67 37.34
  A 115.66 115.47 75.0 0 0 169.73 19.41
  A 115.71 115.51 59.3 0 0 143.31 12.63
  A 115.73 115.48 44.8 0 0 112.07 12.71
  Z
  M 0.96 137.89
  Q 0.99 137.71 0.79 137.35
  A 0.27 0.27 0.0 0 0 0.29 137.49
  Q 0.30 137.85 0.32 137.93
  A 0.33 0.33 0.0 0 0 0.96 137.89
  Z"
/>
<path fill="#b850ec" fill-opacity="0.157" d="
  M 184.46 0.00
  Q 200.79 7.52 211.30 16.70
  Q 222.03 26.07 232.20 36.05
  Q 244.61 48.22 252.04 63.94
  Q 254.02 68.14 256.00 72.42
  L 256.00 109.24
  L 255.63 115.46
  L 255.35 115.78
  C 255.00 112.27 254.80 108.64 254.19 105.28
  C 244.70 53.06 206.11 12.87 154.01 1.71
  C 151.38 1.15 149.20 1.14 146.72 0.77
  A 0.17 0.16 8.0 0 1 146.58 0.60
  L 146.58 0.59
  A 0.20 0.17 -2.3 0 1 146.75 0.43
  L 152.63 0.00
  L 184.46 0.00
  Z"
/>
<path fill="#be56f2" fill-opacity="0.086" d="
  M 208.20 0.00
  Q 221.76 2.75 231.01 12.99
  C 236.65 19.24 241.68 26.22 247.32 32.04
  Q 251.69 36.56 256.00 41.14
  L 256.00 72.42
  Q 254.02 68.14 252.04 63.94
  Q 244.61 48.22 232.20 36.05
  Q 222.03 26.07 211.30 16.70
  Q 200.79 7.52 184.46 0.00
  L 208.20 0.00
  Z"
/>
<path fill="#bd54f3" fill-opacity="0.055" d="
  M 256.00 0.00
  L 256.00 41.14
  Q 251.69 36.56 247.32 32.04
  C 241.68 26.22 236.65 19.24 231.01 12.99
  Q 221.76 2.75 208.20 0.00
  L 256.00 0.00
  Z"
/>
<path fill="#ca75f2" d="
  M 143.31 12.63
  Q 142.12 20.51 142.57 25.93
  C 143.47 36.97 144.08 44.49 142.22 53.45
  Q 134.76 89.44 128.54 125.74
  L 129.20 74.93
  C 133.51 65.86 134.02 56.82 128.11 48.16
  Q 125.05 43.44 119.96 40.50
  L 114.18 38.06
  L 112.06 37.37
  Q 110.04 30.21 107.57 23.08
  Q 105.33 16.60 112.07 12.71
  A 115.73 115.48 44.8 0 1 143.31 12.63
  Z"
/>
<path fill="#d579e8" d="
  M 112.07 12.71
  Q 105.33 16.60 107.57 23.08
  Q 110.04 30.21 112.06 37.37
  L 94.01 37.01
  L 84.08 36.95
  L 77.33 37.37
  L 70.06 39.87
  Q 66.75 40.19 65.64 34.04
  C 65.11 31.12 67.95 29.04 70.10 27.17
  A 115.50 115.48 -64.0 0 1 112.07 12.71
  Z"
/>
<path fill="#bb78f5" d="
  M 143.31 12.63
  A 115.71 115.51 59.3 0 1 169.73 19.41
  Q 168.24 38.38 166.09 49.53
  Q 162.08 70.34 150.08 90.78
  Q 139.91 108.11 129.44 125.61
  Q 128.59 126.24 128.70 127.29
  L 128.33 127.29
  L 128.54 125.74
  Q 134.76 89.44 142.22 53.45
  C 144.08 44.49 143.47 36.97 142.57 25.93
  Q 142.12 20.51 143.31 12.63
  Z"
/>
<path fill="#9c77f7" d="
  M 200.67 37.34
  Q 188.44 51.52 178.76 67.28
  Q 167.75 85.21 167.74 85.22
  C 158.66 98.40 146.89 111.09 135.69 121.38
  Q 133.68 123.23 129.44 125.61
  Q 139.91 108.11 150.08 90.78
  Q 162.08 70.34 166.09 49.53
  Q 168.24 38.38 169.73 19.41
  A 115.66 115.47 75.0 0 1 200.67 37.34
  Z"
/>
<path fill="#e57ed6" d="
  M 70.10 27.17
  C 67.95 29.04 65.11 31.12 65.64 34.04
  Q 66.75 40.19 70.06 39.87
  Q 69.19 46.13 68.89 52.79
  Q 68.43 63.06 73.10 71.69
  C 80.81 85.95 97.39 87.29 111.99 87.11
  C 106.05 89.69 98.25 94.01 103.68 101.17
  C 107.74 106.51 114.34 109.59 118.90 114.60
  Q 124.10 120.29 127.68 127.23
  Q 114.08 124.67 100.13 123.54
  C 77.54 121.70 53.87 120.86 36.81 103.94
  Q 28.32 95.52 19.73 86.90
  A 115.49 115.47 85.1 0 1 70.10 27.17
  Z"
/>
<path fill="#9540bf" fill-opacity="0.208" d="
  M 41.28 32.78
  L 34.78 39.24
  Q 36.94 34.94 41.28 32.78
  Z"
/>
<path fill="#e6abee" d="
  M 84.08 36.95
  C 81.97 44.74 80.56 53.15 82.86 61.10
  C 85.53 70.36 93.95 77.49 103.76 73.92
  C 117.14 69.06 119.90 52.74 119.96 40.50
  Q 125.05 43.44 128.11 48.16
  C 123.43 62.71 116.15 77.88 98.53 78.30
  C 85.10 78.61 76.91 66.99 76.27 54.60
  Q 75.84 46.47 77.33 37.37
  L 84.08 36.95
  Z"
/>
<path fill="#eab9f1" d="
  M 84.08 36.95
  L 94.01 37.01
  C 88.06 43.92 84.30 51.88 89.61 60.44
  C 93.15 66.14 101.07 68.92 107.23 65.33
  C 116.86 59.70 115.78 47.32 114.18 38.06
  L 119.96 40.50
  C 119.90 52.74 117.14 69.06 103.76 73.92
  C 93.95 77.49 85.53 70.36 82.86 61.10
  C 80.56 53.15 81.97 44.74 84.08 36.95
  Z"
/>
<path fill="#efcdf6" d="
  M 112.06 37.37
  L 114.18 38.06
  C 115.78 47.32 116.86 59.70 107.23 65.33
  C 101.07 68.92 93.15 66.14 89.61 60.44
  C 84.30 51.88 88.06 43.92 94.01 37.01
  L 112.06 37.37
  Z
  M 104.42 52.67
  A 2.60 2.60 0.0 0 0 101.82 50.07
  A 2.60 2.60 0.0 0 0 99.22 52.67
  A 2.60 2.60 0.0 0 0 101.82 55.27
  A 2.60 2.60 0.0 0 0 104.42 52.67
  Z"
/>
<path fill="#837df9" d="
  M 200.67 37.34
  A 116.09 115.88 89.7 0 1 217.15 53.68
  C 205.16 63.58 195.36 74.14 185.76 85.72
  C 175.05 98.61 163.09 106.20 148.70 115.34
  Q 141.69 119.78 135.30 127.12
  L 131.18 127.85
  Q 130.39 127.65 129.49 127.79
  Q 129.21 127.53 128.77 127.47
  Q 128.74 127.38 128.70 127.29
  Q 128.59 126.24 129.44 125.61
  Q 133.68 123.23 135.69 121.38
  C 146.89 111.09 158.66 98.40 167.74 85.22
  Q 167.75 85.21 178.76 67.28
  Q 188.44 51.52 200.67 37.34
  Z
  M 130.37 127.02
  A 0.14 0.14 0.0 0 0 130.23 126.88
  A 0.14 0.14 0.0 0 0 130.09 127.02
  A 0.14 0.14 0.0 0 0 130.23 127.16
  A 0.14 0.14 0.0 0 0 130.37 127.02
  Z"
/>
<path fill="#e49be8" d="
  M 77.33 37.37
  Q 75.84 46.47 76.27 54.60
  C 76.91 66.99 85.10 78.61 98.53 78.30
  C 116.15 77.88 123.43 62.71 128.11 48.16
  C 134.02 56.82 133.51 65.86 129.20 74.93
  Q 122.69 84.17 111.99 87.11
  C 97.39 87.29 80.81 85.95 73.10 71.69
  Q 68.43 63.06 68.89 52.79
  Q 69.19 46.13 70.06 39.87
  L 77.33 37.37
  Z"
/>
<circle fill="#f6e4fa" cx="101.82" cy="52.67" r="2.60"/>
<path fill="#647ffc" d="
  M 217.15 53.68
  A 115.46 115.31 10.9 0 1 229.13 71.33
  Q 217.04 76.64 209.39 81.79
  C 187.95 96.23 174.32 105.24 153.86 116.21
  Q 151.24 117.62 146.54 120.86
  L 139.46 123.67
  A 0.98 0.98 0.0 0 0 139.16 125.29
  L 139.79 125.87
  L 135.30 127.12
  Q 141.69 119.78 148.70 115.34
  C 163.09 106.20 175.05 98.61 185.76 85.72
  C 195.36 74.14 205.16 63.58 217.15 53.68
  Z"
/>
<path fill="#9540bf" fill-opacity="0.208" d="
  M 21.71 55.45
  Q 14.44 66.58 9.35 78.83
  Q 12.34 65.18 21.71 55.45
  Z"
/>
<path fill="#5182f3" d="
  M 229.13 71.33
  A 46.84 19.19 62.9 0 1 232.16 77.22
  Q 212.11 86.87 203.14 93.13
  Q 194.33 99.28 189.63 102.15
  C 176.71 110.01 161.12 115.69 146.54 120.86
  Q 151.24 117.62 153.86 116.21
  C 174.32 105.24 187.95 96.23 209.39 81.79
  Q 217.04 76.64 229.13 71.33
  Z"
/>
<path fill="#d579e8" d="
  M 129.20 74.93
  L 128.54 125.74
  L 128.33 127.29
  L 129.01 131.29
  L 127.87 128.96
  L 126.77 127.41
  Q 127.31 127.40 127.68 127.23
  Q 124.10 120.29 118.90 114.60
  C 114.34 109.59 107.74 106.51 103.68 101.17
  C 98.25 94.01 106.05 89.69 111.99 87.11
  Q 122.69 84.17 129.20 74.93
  Z"
/>
<path fill="#3684fa" d="
  M 232.16 77.22
  A 115.66 115.53 31.3 0 1 243.43 123.46
  C 233.20 122.44 226.34 122.55 215.55 122.85
  C 203.85 123.18 192.82 122.43 180.49 122.05
  Q 163.50 121.52 140.78 125.80
  L 139.79 125.87
  L 139.16 125.29
  A 0.98 0.98 0.0 0 1 139.46 123.67
  L 146.54 120.86
  C 161.12 115.69 176.71 110.01 189.63 102.15
  Q 194.33 99.28 203.14 93.13
  Q 212.11 86.87 232.16 77.22
  Z"
/>
<path fill="#ee67c1" d="
  M 127.68 127.23
  Q 127.31 127.40 126.77 127.41
  Q 111.46 134.71 95.67 140.86
  Q 78.27 147.62 59.69 148.77
  Q 47.97 149.50 43.83 149.31
  Q 29.12 148.66 14.14 146.44
  A 115.42 115.42 0.0 0 1 19.73 86.90
  Q 28.32 95.52 36.81 103.94
  C 53.87 120.86 77.54 121.70 100.13 123.54
  Q 114.08 124.67 127.68 127.23
  Z"
/>
<path fill="#eab9f1" d="
  M 255.63 115.46
  Q 255.90 116.74 255.75 117.99
  A 0.15 0.14 -50.9 0 1 255.47 118.02
  Q 255.10 116.98 255.35 115.78
  L 255.63 115.46
  Z"
/>
<path fill="#eab9f1" d="
  M 0.61 115.68
  Q 1.00 117.17 0.69 118.46
  A 0.15 0.14 46.5 0 1 0.41 118.45
  Q 0.13 117.11 0.30 115.80
  Q 0.56 115.76 0.61 115.68
  Z"
/>
<path fill="#5182f3" d="
  M 243.43 123.46
  A 115.57 115.44 -40.3 0 1 241.29 149.48
  Q 219.08 147.44 197.92 141.21
  Q 190.61 139.05 169.05 131.92
  Q 160.13 128.97 140.78 125.80
  Q 163.50 121.52 180.49 122.05
  C 192.82 122.43 203.85 123.18 215.55 122.85
  C 226.34 122.55 233.20 122.44 243.43 123.46
  Z"
/>
<path fill="#757ee6" d="
  M 140.78 125.80
  Q 160.13 128.97 169.05 131.92
  Q 190.61 139.05 197.92 141.21
  Q 219.08 147.44 241.29 149.48
  A 115.47 115.36 -25.7 0 1 230.37 180.55
  Q 215.41 176.99 198.42 167.08
  C 178.09 155.22 167.33 148.85 149.73 140.79
  L 131.18 127.85
  L 135.30 127.12
  L 139.79 125.87
  L 140.78 125.80
  Z"
/>
<circle fill="#647ffc" cx="130.23" cy="127.02" r="0.14"/>
<path fill="#b96cc3" d="
  M 128.70 127.29
  Q 128.74 127.38 128.77 127.47
  L 130.23 131.70
  C 135.47 148.88 140.51 167.30 147.91 182.99
  Q 160.40 209.49 167.59 235.59
  A 115.23 114.99 -60.8 0 1 151.52 240.16
  C 149.82 223.73 146.77 210.68 142.45 194.77
  C 136.67 173.47 132.45 152.72 129.01 131.29
  L 128.33 127.29
  L 128.70 127.29
  Z"
/>
<path fill="#f455b0" d="
  M 126.77 127.41
  L 127.87 128.96
  L 127.49 130.53
  L 125.53 133.76
  Q 115.08 148.89 105.04 166.94
  Q 100.39 175.29 93.53 184.02
  C 94.82 180.28 98.19 170.31 96.55 166.56
  C 95.21 163.53 90.31 164.55 87.96 165.39
  C 74.53 170.18 64.84 174.29 53.23 174.65
  Q 49.34 174.77 41.96 174.64
  C 34.82 174.52 29.15 175.77 27.26 183.58
  A 115.65 115.46 -64.5 0 1 14.14 146.44
  Q 29.12 148.66 43.83 149.31
  Q 47.97 149.50 59.69 148.77
  Q 78.27 147.62 95.67 140.86
  Q 111.46 134.71 126.77 127.41
  Z"
/>
<path fill="#9a77d4" d="
  M 129.49 127.79
  C 137.10 135.67 144.55 143.34 151.94 151.74
  C 169.79 172.02 187.67 192.41 206.31 211.97
  A 115.35 115.06 -80.9 0 1 184.30 227.93
  C 171.88 208.03 161.28 187.49 148.86 167.47
  C 142.52 157.24 136.34 143.58 130.23 131.70
  L 128.77 127.47
  Q 129.21 127.53 129.49 127.79
  Z"
/>
<path fill="#8f79da" d="
  M 131.18 127.85
  L 149.73 140.79
  Q 156.25 149.77 164.63 155.66
  Q 189.63 173.21 199.76 180.59
  Q 209.88 187.96 223.52 192.00
  A 115.51 114.92 -4.4 0 1 206.31 211.97
  C 187.67 192.41 169.79 172.02 151.94 151.74
  C 144.55 143.34 137.10 135.67 129.49 127.79
  Q 130.39 127.65 131.18 127.85
  Z"
/>
<path fill="#c368bc" d="
  M 129.01 131.29
  C 132.45 152.72 136.67 173.47 142.45 194.77
  C 146.77 210.68 149.82 223.73 151.52 240.16
  A 106.38 98.84 -3.7 0 1 136.63 242.26
  Q 137.68 219.80 133.99 197.74
  C 132.69 190.02 128.51 177.73 127.43 168.72
  Q 126.59 161.70 126.71 155.31
  Q 126.95 142.93 127.49 130.53
  L 127.87 128.96
  L 129.01 131.29
  Z"
/>
<path fill="#d160b4" d="
  M 127.49 130.53
  Q 126.95 142.93 126.71 155.31
  Q 126.59 161.70 127.43 168.72
  C 128.51 177.73 132.69 190.02 133.99 197.74
  Q 137.68 219.80 136.63 242.26
  A 115.64 115.35 -42.0 0 1 107.53 240.76
  Q 114.03 222.45 116.17 200.65
  Q 119.57 165.92 120.28 156.29
  Q 120.81 149.10 125.53 133.76
  L 127.49 130.53
  Z"
/>
<path fill="#ad71c9" d="
  M 184.30 227.93
  A 115.27 114.97 -69.6 0 1 167.59 235.59
  Q 160.40 209.49 147.91 182.99
  C 140.51 167.30 135.47 148.88 130.23 131.70
  C 136.34 143.58 142.52 157.24 148.86 167.47
  C 161.28 187.49 171.88 208.03 184.30 227.93
  Z"
/>
<path fill="#e752a6" d="
  M 125.53 133.76
  Q 120.81 149.10 120.28 156.29
  Q 119.57 165.92 116.17 200.65
  Q 114.03 222.45 107.53 240.76
  A 115.70 115.59 63.3 0 1 76.37 230.41
  Q 88.50 208.40 93.53 184.02
  Q 100.39 175.29 105.04 166.94
  Q 115.08 148.89 125.53 133.76
  Z"
/>
<path fill="#eab9f1" d="
  M 0.32 137.93
  Q 0.30 137.85 0.29 137.49
  A 0.27 0.27 0.0 0 1 0.79 137.35
  Q 0.99 137.71 0.96 137.89
  A 0.33 0.33 0.0 0 1 0.32 137.93
  Z"
/>
<path fill="#eab9f1" d="
  M 255.53 138.46
  Q 255.39 138.46 255.25 138.46
  Q 255.17 138.03 255.27 137.86
  A 0.18 0.18 0.0 0 1 255.61 137.94
  Q 255.63 138.25 255.53 138.46
  Z"
/>
<path fill="#b850ec" fill-opacity="0.157" d="
  M 2.37 152.46
  Q 2.38 165.29 5.64 175.14
  C 11.06 191.52 22.29 206.37 34.17 220.15
  C 49.63 238.09 68.05 248.81 90.44 255.34
  A 0.15 0.15 0.0 0 1 90.43 255.63
  Q 89.99 255.73 89.74 256.00
  L 83.76 256.00
  L 79.29 255.86
  A 1.83 1.78 -30.9 0 1 78.57 255.69
  Q 69.37 251.32 60.29 246.02
  C 46.05 237.70 35.22 226.95 24.41 213.63
  Q 13.79 200.53 7.06 188.39
  Q 5.44 185.48 0.00 175.04
  L 0.00 152.76
  L 0.30 142.47
  L 0.38 141.04
  L 0.40 140.04
  L 0.46 138.64
  A 0.07 0.07 0.0 0 1 0.60 138.63
  L 2.37 152.46
  Z"
/>
<path fill="#9540bf" fill-opacity="0.208" d="
  M 255.53 138.46
  L 256.00 149.38
  L 256.00 159.93
  Q 252.01 173.60 247.17 184.09
  C 234.72 211.05 212.20 235.41 185.46 248.50
  Q 176.01 253.12 163.29 256.00
  L 139.60 256.00
  L 113.41 256.00
  L 89.74 256.00
  Q 89.99 255.73 90.43 255.63
  A 0.15 0.15 0.0 0 0 90.44 255.34
  C 68.05 248.81 49.63 238.09 34.17 220.15
  C 22.29 206.37 11.06 191.52 5.64 175.14
  Q 2.38 165.29 2.37 152.46
  Q 14.72 208.27 62.69 237.31
  Q 84.86 250.73 112.01 254.14
  Q 112.42 254.13 112.73 254.33
  L 133.03 254.86
  L 134.00 254.88
  L 144.20 254.27
  Q 145.25 254.47 145.31 254.11
  Q 198.11 246.00 229.95 204.67
  Q 248.62 180.42 254.19 149.06
  C 254.79 145.68 254.92 142.02 255.25 138.46
  Q 255.39 138.46 255.53 138.46
  Z"
/>
<path fill="#eab9f1" d="
  M 0.40 140.04
  L 0.38 141.04
  Q 0.37 141.00 0.37 140.96
  L 0.40 140.04
  Z"
/>
<path fill="#837ce0" d="
  M 230.37 180.55
  A 94.36 77.31 -57.7 0 1 223.52 192.00
  Q 209.88 187.96 199.76 180.59
  Q 189.63 173.21 164.63 155.66
  Q 156.25 149.77 149.73 140.79
  C 167.33 148.85 178.09 155.22 198.42 167.08
  Q 215.41 176.99 230.37 180.55
  Z"
/>
<path fill="#9540bf" fill-opacity="0.208" d="
  M 0.38 141.04
  L 0.30 142.47
  L 0.37 140.96
  Q 0.37 141.00 0.38 141.04
  Z"
/>
<path fill="#fb3b9a" d="
  M 93.53 184.02
  Q 88.50 208.40 76.37 230.41
  A 115.52 115.51 -1.4 0 1 27.26 183.58
  C 29.15 175.77 34.82 174.52 41.96 174.64
  Q 49.34 174.77 53.23 174.65
  C 64.84 174.29 74.53 170.18 87.96 165.39
  C 90.31 164.55 95.21 163.53 96.55 166.56
  C 98.19 170.31 94.82 180.28 93.53 184.02
  Z"
/>
<path fill="#a249cd" fill-opacity="0.125" d="
  M 256.00 159.93
  L 256.00 204.77
  Q 248.46 217.93 237.31 230.32
  C 226.45 242.39 215.68 251.86 199.19 255.45
  A 0.15 0.15 0.0 0 0 199.07 255.62
  L 199.07 255.63
  A 0.17 0.17 0.0 0 0 199.26 255.77
  Q 202.85 255.29 206.39 256.00
  L 163.29 256.00
  Q 176.01 253.12 185.46 248.50
  C 212.20 235.41 234.72 211.05 247.17 184.09
  Q 252.01 173.60 256.00 159.93
  Z"
/>
<path fill="#a249cd" fill-opacity="0.125" d="
  M 83.76 256.00
  L 57.79 256.00
  C 47.32 251.37 41.57 245.83 31.63 236.49
  Q 24.66 229.95 20.14 225.35
  Q 7.75 212.77 0.00 195.75
  L 0.00 175.04
  Q 5.44 185.48 7.06 188.39
  Q 13.79 200.53 24.41 213.63
  C 35.22 226.95 46.05 237.70 60.29 246.02
  Q 69.37 251.32 78.57 255.69
  A 1.83 1.78 -30.9 0 0 79.29 255.86
  L 83.76 256.00
  Z"
/>
<path fill="#bd54f3" fill-opacity="0.055" d="
  M 57.79 256.00
  L 0.51 256.00
  Q 0.31 255.69 0.00 255.50
  L 0.00 195.75
  Q 7.75 212.77 20.14 225.35
  Q 24.66 229.95 31.63 236.49
  C 41.57 245.83 47.32 251.37 57.79 256.00
  Z"
/>
<path fill="#bd54f3" fill-opacity="0.055" d="
  M 256.00 204.77
  L 256.00 256.00
  L 206.39 256.00
  Q 202.85 255.29 199.26 255.77
  A 0.17 0.17 0.0 0 1 199.07 255.63
  L 199.07 255.62
  A 0.15 0.15 0.0 0 1 199.19 255.45
  C 215.68 251.86 226.45 242.39 237.31 230.32
  Q 248.46 217.93 256.00 204.77
  Z"
/>
<path fill="#ad71c9" d="
  M 112.73 254.33
  Q 112.42 254.13 112.01 254.14
  Q 112.50 253.98 112.73 254.33
  Z"
/>
<path fill="#ad71c9" d="
  M 145.31 254.11
  Q 145.25 254.47 144.20 254.27
  Q 144.45 253.71 145.31 254.11
  Z"
/>
<path fill="#eab9f1" d="
  M 134.00 254.88
  L 133.03 254.86
  L 134.00 254.88
  Z"
/>
<path fill="#ffffff" d="
  M 0.51 256.00
  L 0.00 256.00
  L 0.00 255.50
  Q 0.31 255.69 0.51 256.00
  Z"
/>
<path fill="#f6e4fa" d="
  M 139.60 256.00
  L 113.41 256.00
  L 139.60 256.00
  Z"
/>
</svg>
