<?xml version="1.0" encoding="UTF-8" standalone="no"?>
<!DOCTYPE svg PUBLIC "-//W3C//DTD SVG 1.1//EN" "http://www.w3.org/Graphics/SVG/1.1/DTD/svg11.dtd">
<svg xmlns="http://www.w3.org/2000/svg" version="1.1" viewBox="0.00 0.00 48.00 48.00">
<g stroke-width="2.00" fill="none" stroke-linecap="butt">
<path stroke="#6c5c21" vector-effect="non-scaling-stroke" d="
  M 13.86 28.39
  A 3.04 3.04 0.0 0 0 16.55 32.83
  L 30.92 32.86
  A 3.04 3.04 0.0 0 0 33.63 28.42
  L 26.47 14.57
  A 3.04 3.04 0.0 0 0 21.07 14.56
  L 13.86 28.39"
/>
<path stroke="#6c5c21" vector-effect="non-scaling-stroke" d="
  M 19.28 24.84
  A 0.15 0.15 0.0 0 1 19.22 24.63
  L 24.79 14.19
  A 0.40 0.40 0.0 0 0 24.44 13.60
  L 23.20 13.60
  A 1.41 1.40 -75.6 0 0 21.97 14.33
  L 14.30 28.71
  A 0.26 0.26 0.0 0 0 14.53 29.09
  L 25.59 29.09
  A 0.55 0.55 0.0 0 0 26.08 28.28
  L 25.59 27.35
  A 1.63 1.61 75.8 0 0 24.16 26.48
  L 19.13 26.48
  A 0.40 0.39 70.4 0 1 18.82 26.33
  Q 18.50 25.92 19.06 25.41
  A 0.34 0.34 0.0 0 1 19.48 25.38
  Q 20.93 26.33 22.33 25.41
  A 0.61 0.60 -36.5 0 1 23.12 25.52
  Q 23.36 25.79 24.21 26.08
  A 0.36 0.36 0.0 0 0 24.66 25.62
  Q 24.22 24.34 23.47 24.11
  A 0.44 0.43 10.0 0 0 22.91 24.50
  Q 22.88 24.89 22.69 25.03
  A 0.17 0.17 0.0 0 1 22.44 24.82
  L 25.05 19.94
  A 0.42 0.42 0.0 0 1 25.79 19.94
  L 31.43 30.67
  A 0.20 0.20 0.0 0 1 31.11 30.90
  Q 30.08 29.86 29.29 28.18
  Q 27.80 25.02 25.81 21.55
  A 0.54 0.53 -45.9 0 0 24.87 21.57
  L 24.55 22.17
  A 1.77 1.76 45.5 0 0 24.54 23.82
  L 27.33 29.12
  A 0.51 0.50 -13.8 0 1 26.88 29.86
  L 14.89 29.86
  A 0.61 0.61 0.0 0 0 14.35 30.76
  L 14.49 31.04
  A 1.93 1.92 76.1 0 0 16.17 32.06
  Q 29.86 32.12 30.23 32.06
  Q 32.30 31.70 33.26 30.05
  A 1.02 1.01 46.6 0 0 33.28 29.07
  L 26.01 15.23
  A 0.61 0.61 0.0 0 0 24.93 15.23
  L 19.77 24.90
  A 0.19 0.17 -61.2 0 1 19.53 24.98
  L 19.28 24.84"
/>
</g>
<path fill="#111111" d="
  M 42.69 33.65
  A 10.01 10.01 0.0 0 1 32.68 43.66
  L 14.80 43.66
  A 10.01 10.01 0.0 0 1 4.79 33.65
  L 4.79 12.39
  A 10.01 10.01 0.0 0 1 14.80 2.38
  L 32.68 2.38
  A 10.01 10.01 0.0 0 1 42.69 12.39
  L 42.69 33.65
  Z
  M 13.86 28.39
  A 3.04 3.04 0.0 0 0 16.55 32.83
  L 30.92 32.86
  A 3.04 3.04 0.0 0 0 33.63 28.42
  L 26.47 14.57
  A 3.04 3.04 0.0 0 0 21.07 14.56
  L 13.86 28.39
  Z"
/>
<path fill="#c7a630" d="
  M 13.86 28.39
  L 21.07 14.56
  A 3.04 3.04 0.0 0 1 26.47 14.57
  L 33.63 28.42
  A 3.04 3.04 0.0 0 1 30.92 32.86
  L 16.55 32.83
  A 3.04 3.04 0.0 0 1 13.86 28.39
  Z
  M 19.28 24.84
  A 0.15 0.15 0.0 0 1 19.22 24.63
  L 24.79 14.19
  A 0.40 0.40 0.0 0 0 24.44 13.60
  L 23.20 13.60
  A 1.41 1.40 -75.6 0 0 21.97 14.33
  L 14.30 28.71
  A 0.26 0.26 0.0 0 0 14.53 29.09
  L 25.59 29.09
  A 0.55 0.55 0.0 0 0 26.08 28.28
  L 25.59 27.35
  A 1.63 1.61 75.8 0 0 24.16 26.48
  L 19.13 26.48
  A 0.40 0.39 70.4 0 1 18.82 26.33
  Q 18.50 25.92 19.06 25.41
  A 0.34 0.34 0.0 0 1 19.48 25.38
  Q 20.93 26.33 22.33 25.41
  A 0.61 0.60 -36.5 0 1 23.12 25.52
  Q 23.36 25.79 24.21 26.08
  A 0.36 0.36 0.0 0 0 24.66 25.62
  Q 24.22 24.34 23.47 24.11
  A 0.44 0.43 10.0 0 0 22.91 24.50
  Q 22.88 24.89 22.69 25.03
  A 0.17 0.17 0.0 0 1 22.44 24.82
  L 25.05 19.94
  A 0.42 0.42 0.0 0 1 25.79 19.94
  L 31.43 30.67
  A 0.20 0.20 0.0 0 1 31.11 30.90
  Q 30.08 29.86 29.29 28.18
  Q 27.80 25.02 25.81 21.55
  A 0.54 0.53 -45.9 0 0 24.87 21.57
  L 24.55 22.17
  A 1.77 1.76 45.5 0 0 24.54 23.82
  L 27.33 29.12
  A 0.51 0.50 -13.8 0 1 26.88 29.86
  L 14.89 29.86
  A 0.61 0.61 0.0 0 0 14.35 30.76
  L 14.49 31.04
  A 1.93 1.92 76.1 0 0 16.17 32.06
  Q 29.86 32.12 30.23 32.06
  Q 32.30 31.70 33.26 30.05
  A 1.02 1.01 46.6 0 0 33.28 29.07
  L 26.01 15.23
  A 0.61 0.61 0.0 0 0 24.93 15.23
  L 19.77 24.90
  A 0.19 0.17 -61.2 0 1 19.53 24.98
  L 19.28 24.84
  Z"
/>
<path fill="#111111" d="
  M 19.77 24.90
  L 24.93 15.23
  A 0.61 0.61 0.0 0 1 26.01 15.23
  L 33.28 29.07
  A 1.02 1.01 46.6 0 1 33.26 30.05
  Q 32.30 31.70 30.23 32.06
  Q 29.86 32.12 16.17 32.06
  A 1.93 1.92 76.1 0 1 14.49 31.04
  L 14.35 30.76
  A 0.61 0.61 0.0 0 1 14.89 29.86
  L 26.88 29.86
  A 0.51 0.50 -13.8 0 0 27.33 29.12
  L 24.54 23.82
  A 1.77 1.76 45.5 0 1 24.55 22.17
  L 24.87 21.57
  A 0.54 0.53 -45.9 0 1 25.81 21.55
  Q 27.80 25.02 29.29 28.18
  Q 30.08 29.86 31.11 30.90
  A 0.20 0.20 0.0 0 0 31.43 30.67
  L 25.79 19.94
  A 0.42 0.42 0.0 0 0 25.05 19.94
  L 22.44 24.82
  A 0.17 0.17 0.0 0 0 22.69 25.03
  Q 22.88 24.89 22.91 24.50
  A 0.44 0.43 10.0 0 1 23.47 24.11
  Q 24.22 24.34 24.66 25.62
  A 0.36 0.36 0.0 0 1 24.21 26.08
  Q 23.36 25.79 23.12 25.52
  A 0.61 0.60 -36.5 0 0 22.33 25.41
  Q 20.93 26.33 19.48 25.38
  A 0.34 0.34 0.0 0 0 19.06 25.41
  Q 18.50 25.92 18.82 26.33
  A 0.40 0.39 70.4 0 0 19.13 26.48
  L 24.16 26.48
  A 1.63 1.61 75.8 0 1 25.59 27.35
  L 26.08 28.28
  A 0.55 0.55 0.0 0 1 25.59 29.09
  L 14.53 29.09
  A 0.26 0.26 0.0 0 1 14.30 28.71
  L 21.97 14.33
  A 1.41 1.40 -75.6 0 1 23.20 13.60
  L 24.44 13.60
  A 0.40 0.40 0.0 0 1 24.79 14.19
  L 19.22 24.63
  A 0.15 0.15 0.0 0 0 19.28 24.84
  L 19.53 24.98
  A 0.19 0.17 -61.2 0 0 19.77 24.90
  Z"
/>
</svg>
