<svg width="666" height="666" viewBox="0 0 666 666" fill="none" xmlns="http://www.w3.org/2000/svg">
  <g transform="translate(0 69)">
    <rect x="385" y="104" width="104" height="104" rx="52" transform="rotate(-180 385 104)" fill="#278664"/>
    <path fill-rule="evenodd" clip-rule="evenodd" d="M366 528L300 528L300 318.181L195.158 499.773L138 466.773L242.851 285.166L61.0001 390.158L28.0001 333L209.866 228L2.62268e-05 228L3.19967e-05 162L209.592 162L28.0001 57.1577L61.0001 8.14438e-06L281 127.017C281.009 155.728 304.287 179 333 179C361.719 179 385 155.719 385 127C385 126.962 385 126.924 385 126.886L604.773 0.000116718L637.773 57.1577L456.181 162L666 162L666 228L455.908 228L637.773 333L604.773 390.158L423.499 285.499L528.158 466.773L471 499.773L366 317.908L366 528Z" fill="#278664"/>
  </g>
</svg>
