<svg
  width="64"
  height="64"
  viewBox="0 0 64 64"
  fill="none"
  xmlns="http://www.w3.org/2000/svg"
  role="img"
  aria-labelledby="title desc"
>
  <title id="title">LinkToText logo</title>
  <desc id="desc">A rounded gradient square with a clean interlocking chain symbol.</desc>
  <defs>
    <linearGradient id="bg" x1="10" y1="8" x2="55" y2="57" gradientUnits="userSpaceOnUse">
      <stop stop-color="#A78BFA"/>
      <stop offset="0.52" stop-color="#7C3AED"/>
      <stop offset="1" stop-color="#DB2777"/>
    </linearGradient>
    <linearGradient id="sheen" x1="20" y1="16" x2="38" y2="32" gradientUnits="userSpaceOnUse">
      <stop stop-color="#FFFFFF" stop-opacity="0.24"/>
      <stop offset="1" stop-color="#FFFFFF" stop-opacity="0.06"/>
    </linearGradient>
  </defs>

  <rect x="6" y="6" width="52" height="52" rx="18" fill="url(#bg)"/>
  <rect x="18" y="14" width="24" height="20" rx="9" fill="url(#sheen)"/>

  <g transform="translate(13 13) scale(1.58)">
    <path
      d="M10 13a5 5 0 0 0 7.54.54l3-3a5 5 0 0 0-7.07-7.07l-1.72 1.71"
      stroke="white"
      stroke-width="3.5"
      stroke-linecap="round"
      stroke-linejoin="round"
    />
    <path
      d="M14 11a5 5 0 0 0-7.54-.54l-3 3a5 5 0 0 0 7.07 7.07l1.71-1.71"
      stroke="white"
      stroke-width="3.5"
      stroke-linecap="round"
      stroke-linejoin="round"
    />
  </g>
</svg>
