<?xml version="1.0" encoding="UTF-8" standalone="no"?>
<!DOCTYPE svg PUBLIC "-//W3C//DTD SVG 1.1//EN" "http://www.w3.org/Graphics/SVG/1.1/DTD/svg11.dtd">
<svg xmlns="http://www.w3.org/2000/svg" version="1.1" viewBox="0.00 0.00 128.00 128.00">
<path fill="#d64238" d="
  M 88.03 86.95
  Q 88.77 87.00 89.85 86.69
  A 0.81 0.81 0.0 0 1 90.89 87.41
  Q 91.36 94.11 91.08 97.83
  C 90.88 100.39 89.05 102.00 86.55 102.99
  Q 74.28 107.84 61.55 105.06
  Q 54.61 103.54 48.50 99.69
  C 30.70 88.47 24.25 65.37 33.46 46.63
  C 40.27 32.76 54.23 23.68 69.70 23.46
  Q 80.72 23.31 90.59 28.46
  A 0.75 0.75 0.0 0 1 90.89 29.50
  L 85.96 38.05
  A 0.69 0.68 -47.4 0 1 84.81 38.10
  Q 84.45 37.59 83.87 37.34
  Q 68.55 30.76 54.98 38.77
  C 44.78 44.78 39.23 56.17 40.48 68.10
  Q 41.77 80.47 52.35 89.04
  A 0.47 0.47 0.0 0 0 53.11 88.67
  L 53.11 76.57
  A 2.73 2.61 -35.1 0 1 53.31 75.56
  C 56.21 68.56 64.56 68.95 67.38 75.92
  A 1.53 1.46 -57.8 0 1 67.50 76.51
  L 67.57 84.99
  A 0.33 0.32 78.0 0 0 68.02 85.29
  Q 77.18 81.39 80.59 72.70
  C 81.62 70.07 81.98 66.28 82.36 63.78
  A 0.59 0.59 0.0 0 1 82.94 63.28
  L 94.64 63.28
  A 0.77 0.77 0.0 0 1 95.41 64.08
  Q 95.01 76.69 87.77 86.39
  A 0.35 0.35 0.0 0 0 88.03 86.95
  Z"
/>
<path fill="#0a1628" d="
  M 62.96 62.82
  Q 57.74 62.44 55.60 57.70
  Q 54.14 54.45 55.67 51.46
  Q 58.73 45.48 65.00 46.77
  Q 69.29 47.65 71.11 52.89
  A 2.45 2.45 0.0 0 1 71.26 53.84
  Q 71.07 61.82 62.96 63.02
  A 0.10 0.03 -69.2 0 1 62.97 62.90
  Q 62.98 62.88 62.98 62.86
  A 0.03 0.02 -75.1 0 0 62.96 62.82
  Z"
/>
<path fill="#091116" fill-opacity="0.341" d="
  M 64.11 114.49
  Q 63.38 114.58 62.95 114.29
  A 0.86 0.85 47.7 0 0 62.07 114.24
  Q 60.41 115.11 58.61 114.35
  A 1.57 1.53 47.0 0 0 57.52 114.30
  Q 54.93 115.16 52.69 114.63
  A 1.22 1.17 -49.1 0 1 52.57 112.37
  Q 52.70 112.31 53.10 112.52
  A 0.67 0.65 45.5 0 0 53.72 112.53
  Q 55.71 111.57 57.23 112.65
  A 0.93 0.92 -49.1 0 0 58.42 112.56
  Q 58.53 112.46 58.55 112.45
  A 2.29 2.27 -58.1 0 1 59.77 112.16
  L 65.20 112.38
  A 0.43 0.38 57.7 0 1 65.41 112.44
  Q 65.86 112.71 65.70 113.11
  A 0.69 0.68 23.1 0 0 66.06 114.00
  Q 66.52 114.21 66.54 114.24
  A 0.35 0.35 0.0 0 1 65.97 114.64
  Q 63.98 112.45 63.75 113.43
  A 0.26 0.23 36.7 0 0 63.80 113.66
  L 64.23 114.19
  A 0.19 0.18 67.4 0 1 64.11 114.49
  Z"
/>
<path fill="#091116" fill-opacity="0.341" d="
  M 43.59 112.42
  L 50.57 112.42
  A 0.36 0.36 0.0 0 1 50.93 112.84
  Q 50.81 113.51 50.97 114.15
  A 0.39 0.39 0.0 0 1 50.58 114.64
  L 43.91 114.43
  A 0.35 0.35 0.0 0 1 43.61 113.92
  Q 43.70 113.76 43.24 113.06
  A 0.42 0.41 -16.5 0 1 43.59 112.42
  Z"
/>
<path fill="#0a1628" d="
  M 69.99 112.88
  Q 69.05 113.10 69.11 114.02
  A 0.36 0.36 0.0 0 1 68.42 114.17
  Q 68.23 113.69 68.70 112.99
  Q 69.15 112.30 69.99 112.51
  A 0.19 0.19 0.0 0 1 69.99 112.88
  Z"
/>
<path fill="#0a1628" d="
  M 78.87 112.61
  Q 79.56 112.46 80.08 112.67
  A 0.17 0.17 0.0 0 1 80.05 112.99
  Q 79.12 113.18 78.87 113.13
  A 0.27 0.26 -45.2 0 1 78.87 112.61
  Z"
/>
<path fill="#0a1628" d="
  M 74.54 112.88
  A 0.16 0.16 0.0 0 1 74.70 113.07
  L 74.70 113.08
  A 0.30 0.30 0.0 0 1 74.25 113.29
  Q 73.30 112.74 72.41 113.13
  A 1.08 1.07 -40.1 0 1 71.40 113.05
  Q 71.31 112.99 70.87 112.88
  C 71.72 112.66 73.61 112.87 74.54 112.88
  Z"
/>
<path fill="#0a1628" d="
  M 75.59 113.05
  Q 75.58 113.07 75.33 113.17
  A 0.15 0.15 0.0 0 1 75.19 112.90
  Q 75.29 112.84 75.50 112.84
  A 0.13 0.12 -68.6 0 1 75.59 113.05
  Z"
/>
<path fill="#0a1628" d="
  M 85.03 113.30
  Q 85.09 113.67 84.75 114.24
  A 0.28 0.28 0.0 0 1 84.23 114.15
  Q 84.22 114.11 84.57 113.25
  A 0.24 0.24 0.0 0 1 85.03 113.30
  Z"
/>
<path fill="#0a1628" d="
  M 71.90 113.85
  Q 72.57 113.84 73.26 114.12
  L 73.26 114.13
  Q 71.99 114.13 71.94 114.13
  A 0.15 0.13 40.8 0 1 71.90 113.85
  Z"
/>
<path fill="#0a1628" d="
  M 75.19 113.99
  Q 75.22 113.97 75.26 113.96
  A 0.05 0.05 0.0 0 1 75.33 114.02
  Q 75.32 114.08 75.26 114.11
  A 0.07 0.07 0.0 0 1 75.19 113.99
  Z"
/>
<path fill="#0a1628" d="
  M 77.74 114.12
  Q 77.87 114.12 78.01 114.12
  Q 78.04 114.12 78.01 114.13
  Q 77.87 114.13 77.74 114.12
  Z"
/>
</svg>
