<?xml version="1.0" encoding="UTF-8" standalone="no"?>
<!DOCTYPE svg PUBLIC "-//W3C//DTD SVG 1.1//EN" "http://www.w3.org/Graphics/SVG/1.1/DTD/svg11.dtd">
<svg xmlns="http://www.w3.org/2000/svg" version="1.1" viewBox="0.00 0.00 1024.00 1024.00">
<g stroke-width="2.00" fill="none" stroke-linecap="butt">
<path stroke="#161e2b" vector-effect="non-scaling-stroke" d="
  M 417.87 251.31
  A 0.73 0.72 88.9 0 1 418.63 252.05
  Q 418.24 295.59 418.48 355.50
  Q 418.56 375.20 418.32 383.37
  C 417.94 396.57 413.38 408.09 406.57 419.56
  Q 390.42 446.74 357.98 502.79
  Q 357.29 503.97 355.63 506.83
  Q 301.43 599.76 289.95 619.41
  Q 277.23 641.19 275.38 644.63
  Q 264.71 664.51 261.65 685.41
  C 257.36 714.80 264.72 743.81 282.00 767.86
  C 303.65 798.00 336.62 813.52 373.50 813.50
  Q 617.74 813.34 635.67 813.44
  Q 661.59 813.58 670.77 811.97
  Q 693.24 808.04 711.58 796.57
  Q 723.24 789.27 735.56 776.29
  C 737.26 774.49 738.56 772.25 740.21 770.08
  Q 766.00 736.14 762.64 692.27
  Q 760.93 669.88 750.37 648.62
  Q 745.72 639.26 741.58 632.68
  Q 739.55 629.46 738.50 627.25
  Q 736.31 622.68 735.62 621.68
  Q 733.18 618.12 731.20 614.57
  Q 726.15 605.53 716.94 590.03
  Q 716.21 588.79 715.48 587.83
  C 714.05 585.91 713.18 583.37 712.08 581.65
  Q 710.26 578.80 709.80 578.00
  Q 689.91 543.35 671.72 512.98
  C 670.42 510.80 668.89 507.39 667.10 504.64
  Q 662.56 497.70 656.62 486.83
  C 655.43 484.64 653.66 482.49 652.72 480.76
  Q 647.73 471.57 641.35 460.93
  C 639.00 457.00 637.53 453.69 635.60 450.69
  Q 633.13 446.83 631.17 443.09
  C 628.81 438.60 626.08 435.23 623.98 431.07
  Q 621.68 426.49 618.72 421.90
  Q 615.11 416.29 613.32 412.76
  Q 609.12 404.48 608.12 400.93
  Q 605.17 390.52 605.16 384.76
  Q 604.93 308.21 604.81 254.75
  Q 604.81 254.31 604.89 252.11
  A 0.80 0.79 -87.5 0 1 605.72 251.34
  C 610.47 251.56 615.25 251.50 619.16 249.50
  C 626.03 246.01 630.37 240.08 630.28 232.09
  C 630.17 222.87 623.40 216.55 614.38 215.42
  Q 611.93 215.11 606.68 215.12
  Q 507.28 215.32 412.00 215.10
  Q 407.28 215.09 403.39 216.90
  C 386.96 224.53 391.11 249.30 409.35 251.09
  Q 413.66 251.51 417.87 251.31"
/>
<path stroke="#80807f" vector-effect="non-scaling-stroke" d="
  M 604.19 250.21
  Q 606.65 250.07 610.00 250.18
  C 633.55 250.92 636.84 216.33 611.50 216.30
  Q 600.57 216.29 414.55 216.29
  Q 408.38 216.29 406.02 217.01
  C 399.39 219.03 394.41 224.73 394.28 231.76
  Q 394.04 245.37 406.01 249.43
  C 409.55 250.63 415.17 250.10 419.07 250.12
  A 0.69 0.69 0.0 0 1 419.76 250.81
  Q 419.65 336.34 419.77 372.71
  Q 419.82 386.41 418.25 393.94
  Q 415.84 405.54 409.84 415.85
  Q 373.13 478.94 278.93 640.44
  C 261.25 670.75 256.15 705.69 268.04 738.99
  C 281.51 776.72 312.94 804.14 352.33 810.68
  Q 362.16 812.32 385.80 812.29
  Q 524.42 812.14 637.08 812.26
  Q 662.24 812.29 671.34 810.76
  C 733.50 800.32 772.74 738.46 759.30 677.91
  Q 754.92 658.21 746.77 644.24
  Q 638.58 458.80 621.08 428.93
  Q 610.95 411.66 608.95 406.85
  Q 603.97 394.91 603.92 382.25
  Q 603.69 312.31 603.90 250.53
  A 0.32 0.31 88.1 0 1 604.19 250.21"
/>
<path stroke="#949aa2" vector-effect="non-scaling-stroke" d="
  M 533.29 250.10
  L 453.07 250.09"
/>
<path stroke="#80807f" vector-effect="non-scaling-stroke" d="
  M 453.07 250.09
  Q 452.23 249.94 451.88 250.14
  A 0.24 0.24 0.0 0 0 451.76 250.35
  Q 451.80 301.28 451.80 365.15
  Q 451.80 385.96 451.43 389.85
  Q 450.14 403.03 446.56 414.04
  Q 443.93 422.12 436.87 434.13
  Q 419.77 463.22 313.59 644.72
  Q 301.13 666.02 298.68 672.58
  C 288.32 700.37 293.83 732.30 313.79 754.25
  Q 336.46 779.18 370.78 779.20
  Q 620.73 779.30 656.25 779.14
  C 679.57 779.04 701.13 767.16 714.79 748.48
  C 733.01 723.55 735.15 688.75 719.45 661.77
  Q 668.13 573.51 584.51 431.24
  Q 571.67 409.38 571.48 383.22
  Q 571.23 348.61 571.40 250.70
  A 0.55 0.55 0.0 0 0 570.85 250.15
  L 533.29 250.10"
/>
<path stroke="#161e2b" vector-effect="non-scaling-stroke" d="
  M 453.07 250.09
  Q 453.11 314.06 453.11 378.02
  Q 453.11 385.99 452.36 391.97
  C 450.96 403.16 448.52 413.11 444.31 422.92
  Q 442.19 427.85 435.73 438.84
  Q 390.14 516.39 376.73 539.49
  Q 343.82 596.16 325.85 626.61
  Q 307.53 657.63 307.48 657.72
  C 301.44 668.05 297.13 677.82 295.65 689.03
  Q 293.79 703.14 296.14 716.40
  Q 297.43 723.66 299.84 729.38
  Q 302.45 735.59 305.91 741.40
  Q 308.47 745.70 311.79 750.48
  A 4.83 4.01 -89.9 0 0 312.32 751.12
  Q 318.49 757.45 318.52 757.47
  A 3.93 2.19 39.5 0 0 318.97 757.79
  Q 320.93 759.11 322.38 761.12
  A 2.38 2.33 -89.4 0 0 322.85 761.61
  Q 332.35 768.80 343.36 773.14
  Q 355.31 777.86 364.77 777.85
  Q 541.06 777.74 650.41 777.87
  Q 664.75 777.88 671.02 776.46
  Q 685.42 773.20 696.61 765.03
  C 718.52 749.04 730.22 724.20 728.70 697.11
  Q 727.60 677.69 717.83 660.92
  Q 637.22 522.64 586.11 436.02
  Q 579.11 424.14 576.49 416.89
  Q 570.22 399.55 570.21 382.69
  Q 570.09 260.03 570.29 252.50
  Q 570.31 252.10 570.14 251.72
  A 0.87 0.87 0.0 0 0 569.35 251.21
  Q 551.85 251.44 533.50 251.22
  Q 532.97 251.22 532.87 250.69
  Q 532.80 250.26 533.29 250.10"
/>
<path stroke="#161e2b" vector-effect="non-scaling-stroke" d="
  M 506.2566 455.5252
  A 22.07 21.84 1.0 0 0 484.5712 433.3033
  A 22.07 21.84 1.0 0 0 462.1234 454.7548
  A 22.07 21.84 1.0 0 0 483.8088 476.9767
  A 22.07 21.84 1.0 0 0 506.2566 455.5252"
/>
<path stroke="#161e2b" vector-effect="non-scaling-stroke" d="
  M 554.86 455.21
  A 21.91 21.91 0.0 0 0 532.95 433.30
  A 21.91 21.91 0.0 0 0 511.04 455.21
  A 21.91 21.91 0.0 0 0 532.95 477.12
  A 21.91 21.91 0.0 0 0 554.86 455.21"
/>
<path stroke="#949aa2" vector-effect="non-scaling-stroke" d="
  M 479.89 547.21
  L 539.56 547.15"
/>
<path stroke="#161e2b" vector-effect="non-scaling-stroke" d="
  M 539.56 547.15
  Q 539.45 548.49 542.97 548.05
  Q 550.66 547.11 553.73 540.76
  C 555.20 537.71 555.07 533.59 555.21 530.08
  A 0.40 0.40 0.0 0 1 555.80 529.75
  L 579.47 542.41
  A 2.25 2.24 61.0 0 0 580.41 542.68
  Q 587.28 543.15 587.74 537.28
  C 588.47 528.11 588.01 515.76 588.28 503.44
  Q 588.40 497.91 588.09 494.02
  C 587.64 488.44 583.56 485.86 578.72 488.44
  Q 567.33 494.51 556.17 500.34
  A 0.55 0.54 -14.2 0 1 555.37 499.87
  C 555.35 495.99 555.40 493.02 553.59 489.34
  Q 551.62 485.34 547.23 483.03
  Q 544.48 481.58 538.54 481.70
  Q 528.91 481.90 483.48 481.76
  Q 475.86 481.74 474.54 482.01
  C 468.79 483.19 463.24 487.96 463.21 494.01
  Q 463.07 521.78 463.19 531.75
  Q 463.22 534.37 463.39 536.93
  A 5.77 5.73 -57.8 0 0 463.77 538.63
  Q 468.29 550.23 479.89 547.21"
/>
<path stroke="#80807f" vector-effect="non-scaling-stroke" d="
  M 539.56 547.15
  Q 550.12 547.46 553.54 538.34
  A 2.21 2.19 57.2 0 0 553.67 537.72
  L 554.20 527.96
  A 0.35 0.35 0.0 0 1 554.72 527.67
  Q 574.27 538.61 578.64 540.83
  Q 584.24 543.67 586.55 538.53
  A 5.59 5.53 -33.2 0 0 587.04 536.25
  L 587.04 493.46
  A 4.32 4.21 36.5 0 0 586.82 492.11
  C 585.23 487.38 581.20 488.09 577.35 490.17
  Q 564.87 496.91 554.74 502.53
  A 0.37 0.37 0.0 0 1 554.19 502.22
  L 553.89 493.16
  A 2.39 2.36 -54.0 0 0 553.81 492.63
  Q 552.08 486.65 547.09 484.19
  Q 544.69 483.01 536.71 482.99
  Q 484.67 482.91 480.46 482.83
  C 473.56 482.69 469.09 483.62 465.71 489.04
  Q 464.15 491.55 464.08 499.76
  Q 463.90 523.78 464.15 534.47
  Q 464.36 543.79 473.34 546.56
  A 3.73 3.45 53.5 0 0 474.13 546.71
  L 479.89 547.21"
/>
<path stroke="#161e2b" vector-effect="non-scaling-stroke" d="
  M 658.57 635.02
  A 60.20 60.20 0.0 0 0 598.37 574.82
  A 60.20 60.20 0.0 0 0 538.17 635.02
  A 60.20 60.20 0.0 0 0 598.37 695.22
  A 60.20 60.20 0.0 0 0 658.57 635.02"
/>
<path stroke="#161e2b" vector-effect="non-scaling-stroke" d="
  M 391.70 683.17
  A 10.19 10.19 0.0 0 0 407.01 691.98
  L 486.49 645.72
  A 10.19 10.19 0.0 0 0 486.40 628.05
  L 406.99 583.02
  A 10.19 10.19 0.0 0 0 391.77 591.88
  L 391.70 683.17"
/>
<path stroke="#80807f" vector-effect="non-scaling-stroke" d="
  M 505.0664 452.6664
  A 21.03 20.82 -6.7 0 0 481.7509 434.4422
  A 21.03 20.82 -6.7 0 0 463.2936 457.5736
  A 21.03 20.82 -6.7 0 0 486.6091 475.7978
  A 21.03 20.82 -6.7 0 0 505.0664 452.6664"
/>
<path stroke="#80807f" vector-effect="non-scaling-stroke" d="
  M 553.76 455.17
  A 20.86 20.86 0.0 0 0 532.90 434.31
  A 20.86 20.86 0.0 0 0 512.04 455.17
  A 20.86 20.86 0.0 0 0 532.90 476.03
  A 20.86 20.86 0.0 0 0 553.76 455.17"
/>
<path stroke="#80807f" vector-effect="non-scaling-stroke" d="
  M 657.36 634.98
  A 59.10 59.10 0.0 0 0 598.26 575.88
  A 59.10 59.10 0.0 0 0 539.16 634.98
  A 59.10 59.10 0.0 0 0 598.26 694.08
  A 59.10 59.10 0.0 0 0 657.36 634.98"
/>
<path stroke="#80807f" vector-effect="non-scaling-stroke" d="
  M 611.25 605.32
  A 12.98 12.98 0.0 0 0 598.27 592.34
  A 12.98 12.98 0.0 0 0 585.29 605.32
  A 12.98 12.98 0.0 0 0 598.27 618.30
  A 12.98 12.98 0.0 0 0 611.25 605.32"
/>
<path stroke="#80807f" vector-effect="non-scaling-stroke" d="
  M 581.62 635.31
  A 13.06 13.06 0.0 0 0 568.56 622.25
  A 13.06 13.06 0.0 0 0 555.50 635.31
  A 13.06 13.06 0.0 0 0 568.56 648.37
  A 13.06 13.06 0.0 0 0 581.62 635.31"
/>
<path stroke="#80807f" vector-effect="non-scaling-stroke" d="
  M 641.17 635.40
  A 13.04 13.04 0.0 0 0 628.13 622.36
  A 13.04 13.04 0.0 0 0 615.09 635.40
  A 13.04 13.04 0.0 0 0 628.13 648.44
  A 13.04 13.04 0.0 0 0 641.17 635.40"
/>
<path stroke="#80807f" vector-effect="non-scaling-stroke" d="
  M 605.34 635.52
  A 7.15 7.15 0.0 0 0 598.19 628.37
  A 7.15 7.15 0.0 0 0 591.04 635.52
  A 7.15 7.15 0.0 0 0 598.19 642.67
  A 7.15 7.15 0.0 0 0 605.34 635.52"
/>
<path stroke="#80807f" vector-effect="non-scaling-stroke" d="
  M 611.29 665.12
  A 12.93 12.93 0.0 0 0 598.36 652.19
  A 12.93 12.93 0.0 0 0 585.43 665.12
  A 12.93 12.93 0.0 0 0 598.36 678.05
  A 12.93 12.93 0.0 0 0 611.29 665.12"
/>
<path stroke="#80807f" vector-effect="non-scaling-stroke" d="
  M 392.92 683.46
  A 8.85 8.85 0.0 0 0 406.23 691.10
  L 485.98 644.69
  A 8.85 8.85 0.0 0 0 485.90 629.34
  L 406.13 584.01
  A 8.85 8.85 0.0 0 0 392.91 591.71
  L 392.92 683.46"
/>
<path stroke="#161e2b" vector-effect="non-scaling-stroke" d="
  M 610.06 605.40
  A 11.80 11.80 0.0 0 0 598.26 593.60
  A 11.80 11.80 0.0 0 0 586.46 605.40
  A 11.80 11.80 0.0 0 0 598.26 617.20
  A 11.80 11.80 0.0 0 0 610.06 605.40"
/>
<path stroke="#161e2b" vector-effect="non-scaling-stroke" d="
  M 580.48 635.31
  A 11.92 11.92 0.0 0 0 568.56 623.39
  A 11.92 11.92 0.0 0 0 556.64 635.31
  A 11.92 11.92 0.0 0 0 568.56 647.23
  A 11.92 11.92 0.0 0 0 580.48 635.31"
/>
<path stroke="#161e2b" vector-effect="non-scaling-stroke" d="
  M 639.99 635.47
  A 11.86 11.86 0.0 0 0 628.13 623.61
  A 11.86 11.86 0.0 0 0 616.27 635.47
  A 11.86 11.86 0.0 0 0 628.13 647.33
  A 11.86 11.86 0.0 0 0 639.99 635.47"
/>
<path stroke="#161e2b" vector-effect="non-scaling-stroke" d="
  M 604.19 635.58
  A 6.03 6.03 0.0 0 0 598.16 629.55
  A 6.03 6.03 0.0 0 0 592.13 635.58
  A 6.03 6.03 0.0 0 0 598.16 641.61
  A 6.03 6.03 0.0 0 0 604.19 635.58"
/>
<path stroke="#161e2b" vector-effect="non-scaling-stroke" d="
  M 610.17 665.12
  A 11.79 11.79 0.0 0 0 598.38 653.33
  A 11.79 11.79 0.0 0 0 586.59 665.12
  A 11.79 11.79 0.0 0 0 598.38 676.91
  A 11.79 11.79 0.0 0 0 610.17 665.12"
/>
</g>
<path fill="#2a384d" d="
  M 1024.00 0.00
  L 1024.00 1024.00
  L 0.00 1024.00
  L 0.00 0.00
  L 1024.00 0.00
  Z
  M 417.87 251.31
  A 0.73 0.72 88.9 0 1 418.63 252.05
  Q 418.24 295.59 418.48 355.50
  Q 418.56 375.20 418.32 383.37
  C 417.94 396.57 413.38 408.09 406.57 419.56
  Q 390.42 446.74 357.98 502.79
  Q 357.29 503.97 355.63 506.83
  Q 301.43 599.76 289.95 619.41
  Q 277.23 641.19 275.38 644.63
  Q 264.71 664.51 261.65 685.41
  C 257.36 714.80 264.72 743.81 282.00 767.86
  C 303.65 798.00 336.62 813.52 373.50 813.50
  Q 617.74 813.34 635.67 813.44
  Q 661.59 813.58 670.77 811.97
  Q 693.24 808.04 711.58 796.57
  Q 723.24 789.27 735.56 776.29
  C 737.26 774.49 738.56 772.25 740.21 770.08
  Q 766.00 736.14 762.64 692.27
  Q 760.93 669.88 750.37 648.62
  Q 745.72 639.26 741.58 632.68
  Q 739.55 629.46 738.50 627.25
  Q 736.31 622.68 735.62 621.68
  Q 733.18 618.12 731.20 614.57
  Q 726.15 605.53 716.94 590.03
  Q 716.21 588.79 715.48 587.83
  C 714.05 585.91 713.18 583.37 712.08 581.65
  Q 710.26 578.80 709.80 578.00
  Q 689.91 543.35 671.72 512.98
  C 670.42 510.80 668.89 507.39 667.10 504.64
  Q 662.56 497.70 656.62 486.83
  C 655.43 484.64 653.66 482.49 652.72 480.76
  Q 647.73 471.57 641.35 460.93
  C 639.00 457.00 637.53 453.69 635.60 450.69
  Q 633.13 446.83 631.17 443.09
  C 628.81 438.60 626.08 435.23 623.98 431.07
  Q 621.68 426.49 618.72 421.90
  Q 615.11 416.29 613.32 412.76
  Q 609.12 404.48 608.12 400.93
  Q 605.17 390.52 605.16 384.76
  Q 604.93 308.21 604.81 254.75
  Q 604.81 254.31 604.89 252.11
  A 0.80 0.79 -87.5 0 1 605.72 251.34
  C 610.47 251.56 615.25 251.50 619.16 249.50
  C 626.03 246.01 630.37 240.08 630.28 232.09
  C 630.17 222.87 623.40 216.55 614.38 215.42
  Q 611.93 215.11 606.68 215.12
  Q 507.28 215.32 412.00 215.10
  Q 407.28 215.09 403.39 216.90
  C 386.96 224.53 391.11 249.30 409.35 251.09
  Q 413.66 251.51 417.87 251.31
  Z"
/>
<path fill="#020308" d="
  M 417.87 251.31
  Q 413.66 251.51 409.35 251.09
  C 391.11 249.30 386.96 224.53 403.39 216.90
  Q 407.28 215.09 412.00 215.10
  Q 507.28 215.32 606.68 215.12
  Q 611.93 215.11 614.38 215.42
  C 623.40 216.55 630.17 222.87 630.28 232.09
  C 630.37 240.08 626.03 246.01 619.16 249.50
  C 615.25 251.50 610.47 251.56 605.72 251.34
  A 0.80 0.79 -87.5 0 0 604.89 252.11
  Q 604.81 254.31 604.81 254.75
  Q 604.93 308.21 605.16 384.76
  Q 605.17 390.52 608.12 400.93
  Q 609.12 404.48 613.32 412.76
  Q 615.11 416.29 618.72 421.90
  Q 621.68 426.49 623.98 431.07
  C 626.08 435.23 628.81 438.60 631.17 443.09
  Q 633.13 446.83 635.60 450.69
  C 637.53 453.69 639.00 457.00 641.35 460.93
  Q 647.73 471.57 652.72 480.76
  C 653.66 482.49 655.43 484.64 656.62 486.83
  Q 662.56 497.70 667.10 504.64
  C 668.89 507.39 670.42 510.80 671.72 512.98
  Q 689.91 543.35 709.80 578.00
  Q 710.26 578.80 712.08 581.65
  C 713.18 583.37 714.05 585.91 715.48 587.83
  Q 716.21 588.79 716.94 590.03
  Q 726.15 605.53 731.20 614.57
  Q 733.18 618.12 735.62 621.68
  Q 736.31 622.68 738.50 627.25
  Q 739.55 629.46 741.58 632.68
  Q 745.72 639.26 750.37 648.62
  Q 760.93 669.88 762.64 692.27
  Q 766.00 736.14 740.21 770.08
  C 738.56 772.25 737.26 774.49 735.56 776.29
  Q 723.24 789.27 711.58 796.57
  Q 693.24 808.04 670.77 811.97
  Q 661.59 813.58 635.67 813.44
  Q 617.74 813.34 373.50 813.50
  C 336.62 813.52 303.65 798.00 282.00 767.86
  C 264.72 743.81 257.36 714.80 261.65 685.41
  Q 264.71 664.51 275.38 644.63
  Q 277.23 641.19 289.95 619.41
  Q 301.43 599.76 355.63 506.83
  Q 357.29 503.97 357.98 502.79
  Q 390.42 446.74 406.57 419.56
  C 413.38 408.09 417.94 396.57 418.32 383.37
  Q 418.56 375.20 418.48 355.50
  Q 418.24 295.59 418.63 252.05
  A 0.73 0.72 88.9 0 0 417.87 251.31
  Z
  M 604.19 250.21
  Q 606.65 250.07 610.00 250.18
  C 633.55 250.92 636.84 216.33 611.50 216.30
  Q 600.57 216.29 414.55 216.29
  Q 408.38 216.29 406.02 217.01
  C 399.39 219.03 394.41 224.73 394.28 231.76
  Q 394.04 245.37 406.01 249.43
  C 409.55 250.63 415.17 250.10 419.07 250.12
  A 0.69 0.69 0.0 0 1 419.76 250.81
  Q 419.65 336.34 419.77 372.71
  Q 419.82 386.41 418.25 393.94
  Q 415.84 405.54 409.84 415.85
  Q 373.13 478.94 278.93 640.44
  C 261.25 670.75 256.15 705.69 268.04 738.99
  C 281.51 776.72 312.94 804.14 352.33 810.68
  Q 362.16 812.32 385.80 812.29
  Q 524.42 812.14 637.08 812.26
  Q 662.24 812.29 671.34 810.76
  C 733.50 800.32 772.74 738.46 759.30 677.91
  Q 754.92 658.21 746.77 644.24
  Q 638.58 458.80 621.08 428.93
  Q 610.95 411.66 608.95 406.85
  Q 603.97 394.91 603.92 382.25
  Q 603.69 312.31 603.90 250.53
  A 0.32 0.31 88.1 0 1 604.19 250.21
  Z"
/>
<path fill="#fefcf6" d="
  M 604.19 250.21
  A 0.32 0.31 88.1 0 0 603.90 250.53
  Q 603.69 312.31 603.92 382.25
  Q 603.97 394.91 608.95 406.85
  Q 610.95 411.66 621.08 428.93
  Q 638.58 458.80 746.77 644.24
  Q 754.92 658.21 759.30 677.91
  C 772.74 738.46 733.50 800.32 671.34 810.76
  Q 662.24 812.29 637.08 812.26
  Q 524.42 812.14 385.80 812.29
  Q 362.16 812.32 352.33 810.68
  C 312.94 804.14 281.51 776.72 268.04 738.99
  C 256.15 705.69 261.25 670.75 278.93 640.44
  Q 373.13 478.94 409.84 415.85
  Q 415.84 405.54 418.25 393.94
  Q 419.82 386.41 419.77 372.71
  Q 419.65 336.34 419.76 250.81
  A 0.69 0.69 0.0 0 0 419.07 250.12
  C 415.17 250.10 409.55 250.63 406.01 249.43
  Q 394.04 245.37 394.28 231.76
  C 394.41 224.73 399.39 219.03 406.02 217.01
  Q 408.38 216.29 414.55 216.29
  Q 600.57 216.29 611.50 216.30
  C 636.84 216.33 633.55 250.92 610.00 250.18
  Q 606.65 250.07 604.19 250.21
  Z
  M 533.29 250.10
  L 453.07 250.09
  Q 452.23 249.94 451.88 250.14
  A 0.24 0.24 0.0 0 0 451.76 250.35
  Q 451.80 301.28 451.80 365.15
  Q 451.80 385.96 451.43 389.85
  Q 450.14 403.03 446.56 414.04
  Q 443.93 422.12 436.87 434.13
  Q 419.77 463.22 313.59 644.72
  Q 301.13 666.02 298.68 672.58
  C 288.32 700.37 293.83 732.30 313.79 754.25
  Q 336.46 779.18 370.78 779.20
  Q 620.73 779.30 656.25 779.14
  C 679.57 779.04 701.13 767.16 714.79 748.48
  C 733.01 723.55 735.15 688.75 719.45 661.77
  Q 668.13 573.51 584.51 431.24
  Q 571.67 409.38 571.48 383.22
  Q 571.23 348.61 571.40 250.70
  A 0.55 0.55 0.0 0 0 570.85 250.15
  L 533.29 250.10
  Z"
/>
<path fill="#020308" d="
  M 453.07 250.09
  Q 453.11 314.06 453.11 378.02
  Q 453.11 385.99 452.36 391.97
  C 450.96 403.16 448.52 413.11 444.31 422.92
  Q 442.19 427.85 435.73 438.84
  Q 390.14 516.39 376.73 539.49
  Q 343.82 596.16 325.85 626.61
  Q 307.53 657.63 307.48 657.72
  C 301.44 668.05 297.13 677.82 295.65 689.03
  Q 293.79 703.14 296.14 716.40
  Q 297.43 723.66 299.84 729.38
  Q 302.45 735.59 305.91 741.40
  Q 308.47 745.70 311.79 750.48
  A 4.83 4.01 -89.9 0 0 312.32 751.12
  Q 318.49 757.45 318.52 757.47
  A 3.93 2.19 39.5 0 0 318.97 757.79
  Q 320.93 759.11 322.38 761.12
  A 2.38 2.33 -89.4 0 0 322.85 761.61
  Q 332.35 768.80 343.36 773.14
  Q 355.31 777.86 364.77 777.85
  Q 541.06 777.74 650.41 777.87
  Q 664.75 777.88 671.02 776.46
  Q 685.42 773.20 696.61 765.03
  C 718.52 749.04 730.22 724.20 728.70 697.11
  Q 727.60 677.69 717.83 660.92
  Q 637.22 522.64 586.11 436.02
  Q 579.11 424.14 576.49 416.89
  Q 570.22 399.55 570.21 382.69
  Q 570.09 260.03 570.29 252.50
  Q 570.31 252.10 570.14 251.72
  A 0.87 0.87 0.0 0 0 569.35 251.21
  Q 551.85 251.44 533.50 251.22
  Q 532.97 251.22 532.87 250.69
  Q 532.80 250.26 533.29 250.10
  L 570.85 250.15
  A 0.55 0.55 0.0 0 1 571.40 250.70
  Q 571.23 348.61 571.48 383.22
  Q 571.67 409.38 584.51 431.24
  Q 668.13 573.51 719.45 661.77
  C 735.15 688.75 733.01 723.55 714.79 748.48
  C 701.13 767.16 679.57 779.04 656.25 779.14
  Q 620.73 779.30 370.78 779.20
  Q 336.46 779.18 313.79 754.25
  C 293.83 732.30 288.32 700.37 298.68 672.58
  Q 301.13 666.02 313.59 644.72
  Q 419.77 463.22 436.87 434.13
  Q 443.93 422.12 446.56 414.04
  Q 450.14 403.03 451.43 389.85
  Q 451.80 385.96 451.80 365.15
  Q 451.80 301.28 451.76 250.35
  A 0.24 0.24 0.0 0 1 451.88 250.14
  Q 452.23 249.94 453.07 250.09
  Z"
/>
<path fill="#2a384d" d="
  M 533.29 250.10
  Q 532.80 250.26 532.87 250.69
  Q 532.97 251.22 533.50 251.22
  Q 551.85 251.44 569.35 251.21
  A 0.87 0.87 0.0 0 1 570.14 251.72
  Q 570.31 252.10 570.29 252.50
  Q 570.09 260.03 570.21 382.69
  Q 570.22 399.55 576.49 416.89
  Q 579.11 424.14 586.11 436.02
  Q 637.22 522.64 717.83 660.92
  Q 727.60 677.69 728.70 697.11
  C 730.22 724.20 718.52 749.04 696.61 765.03
  Q 685.42 773.20 671.02 776.46
  Q 664.75 777.88 650.41 777.87
  Q 541.06 777.74 364.77 777.85
  Q 355.31 777.86 343.36 773.14
  Q 332.35 768.80 322.85 761.61
  A 2.38 2.33 -89.4 0 1 322.38 761.12
  Q 320.93 759.11 318.97 757.79
  A 3.93 2.19 39.5 0 1 318.52 757.47
  Q 318.49 757.45 312.32 751.12
  A 4.83 4.01 -89.9 0 1 311.79 750.48
  Q 308.47 745.70 305.91 741.40
  Q 302.45 735.59 299.84 729.38
  Q 297.43 723.66 296.14 716.40
  Q 293.79 703.14 295.65 689.03
  C 297.13 677.82 301.44 668.05 307.48 657.72
  Q 307.53 657.63 325.85 626.61
  Q 343.82 596.16 376.73 539.49
  Q 390.14 516.39 435.73 438.84
  Q 442.19 427.85 444.31 422.92
  C 448.52 413.11 450.96 403.16 452.36 391.97
  Q 453.11 385.99 453.11 378.02
  Q 453.11 314.06 453.07 250.09
  L 533.29 250.10
  Z
  M 506.2566 455.5252
  A 22.07 21.84 1.0 0 0 484.5712 433.3033
  A 22.07 21.84 1.0 0 0 462.1234 454.7548
  A 22.07 21.84 1.0 0 0 483.8088 476.9767
  A 22.07 21.84 1.0 0 0 506.2566 455.5252
  Z
  M 554.86 455.21
  A 21.91 21.91 0.0 0 0 532.95 433.30
  A 21.91 21.91 0.0 0 0 511.04 455.21
  A 21.91 21.91 0.0 0 0 532.95 477.12
  A 21.91 21.91 0.0 0 0 554.86 455.21
  Z
  M 479.89 547.21
  L 539.56 547.15
  Q 539.45 548.49 542.97 548.05
  Q 550.66 547.11 553.73 540.76
  C 555.20 537.71 555.07 533.59 555.21 530.08
  A 0.40 0.40 0.0 0 1 555.80 529.75
  L 579.47 542.41
  A 2.25 2.24 61.0 0 0 580.41 542.68
  Q 587.28 543.15 587.74 537.28
  C 588.47 528.11 588.01 515.76 588.28 503.44
  Q 588.40 497.91 588.09 494.02
  C 587.64 488.44 583.56 485.86 578.72 488.44
  Q 567.33 494.51 556.17 500.34
  A 0.55 0.54 -14.2 0 1 555.37 499.87
  C 555.35 495.99 555.40 493.02 553.59 489.34
  Q 551.62 485.34 547.23 483.03
  Q 544.48 481.58 538.54 481.70
  Q 528.91 481.90 483.48 481.76
  Q 475.86 481.74 474.54 482.01
  C 468.79 483.19 463.24 487.96 463.21 494.01
  Q 463.07 521.78 463.19 531.75
  Q 463.22 534.37 463.39 536.93
  A 5.77 5.73 -57.8 0 0 463.77 538.63
  Q 468.29 550.23 479.89 547.21
  Z
  M 658.57 635.02
  A 60.20 60.20 0.0 0 0 598.37 574.82
  A 60.20 60.20 0.0 0 0 538.17 635.02
  A 60.20 60.20 0.0 0 0 598.37 695.22
  A 60.20 60.20 0.0 0 0 658.57 635.02
  Z
  M 391.70 683.17
  A 10.19 10.19 0.0 0 0 407.01 691.98
  L 486.49 645.72
  A 10.19 10.19 0.0 0 0 486.40 628.05
  L 406.99 583.02
  A 10.19 10.19 0.0 0 0 391.77 591.88
  L 391.70 683.17
  Z"
/>
<path fill="#020308" d="
  M 506.2566 455.5252
  A 22.07 21.84 1.0 0 1 483.8088 476.9767
  A 22.07 21.84 1.0 0 1 462.1234 454.7548
  A 22.07 21.84 1.0 0 1 484.5712 433.3033
  A 22.07 21.84 1.0 0 1 506.2566 455.5252
  Z
  M 505.0664 452.6664
  A 21.03 20.82 -6.7 0 0 481.7509 434.4422
  A 21.03 20.82 -6.7 0 0 463.2936 457.5736
  A 21.03 20.82 -6.7 0 0 486.6091 475.7978
  A 21.03 20.82 -6.7 0 0 505.0664 452.6664
  Z"
/>
<path fill="#020308" d="
  M 554.86 455.21
  A 21.91 21.91 0.0 0 1 532.95 477.12
  A 21.91 21.91 0.0 0 1 511.04 455.21
  A 21.91 21.91 0.0 0 1 532.95 433.30
  A 21.91 21.91 0.0 0 1 554.86 455.21
  Z
  M 553.76 455.17
  A 20.86 20.86 0.0 0 0 532.90 434.31
  A 20.86 20.86 0.0 0 0 512.04 455.17
  A 20.86 20.86 0.0 0 0 532.90 476.03
  A 20.86 20.86 0.0 0 0 553.76 455.17
  Z"
/>
<ellipse fill="#fefcf6" cx="0.00" cy="0.00" transform="translate(484.18,455.12) rotate(-6.7)" rx="21.03" ry="20.82"/>
<circle fill="#fefcf6" cx="532.90" cy="455.17" r="20.86"/>
<path fill="#020308" d="
  M 539.56 547.15
  Q 550.12 547.46 553.54 538.34
  A 2.21 2.19 57.2 0 0 553.67 537.72
  L 554.20 527.96
  A 0.35 0.35 0.0 0 1 554.72 527.67
  Q 574.27 538.61 578.64 540.83
  Q 584.24 543.67 586.55 538.53
  A 5.59 5.53 -33.2 0 0 587.04 536.25
  L 587.04 493.46
  A 4.32 4.21 36.5 0 0 586.82 492.11
  C 585.23 487.38 581.20 488.09 577.35 490.17
  Q 564.87 496.91 554.74 502.53
  A 0.37 0.37 0.0 0 1 554.19 502.22
  L 553.89 493.16
  A 2.39 2.36 -54.0 0 0 553.81 492.63
  Q 552.08 486.65 547.09 484.19
  Q 544.69 483.01 536.71 482.99
  Q 484.67 482.91 480.46 482.83
  C 473.56 482.69 469.09 483.62 465.71 489.04
  Q 464.15 491.55 464.08 499.76
  Q 463.90 523.78 464.15 534.47
  Q 464.36 543.79 473.34 546.56
  A 3.73 3.45 53.5 0 0 474.13 546.71
  L 479.89 547.21
  Q 468.29 550.23 463.77 538.63
  A 5.77 5.73 -57.8 0 1 463.39 536.93
  Q 463.22 534.37 463.19 531.75
  Q 463.07 521.78 463.21 494.01
  C 463.24 487.96 468.79 483.19 474.54 482.01
  Q 475.86 481.74 483.48 481.76
  Q 528.91 481.90 538.54 481.70
  Q 544.48 481.58 547.23 483.03
  Q 551.62 485.34 553.59 489.34
  C 555.40 493.02 555.35 495.99 555.37 499.87
  A 0.55 0.54 -14.2 0 0 556.17 500.34
  Q 567.33 494.51 578.72 488.44
  C 583.56 485.86 587.64 488.44 588.09 494.02
  Q 588.40 497.91 588.28 503.44
  C 588.01 515.76 588.47 528.11 587.74 537.28
  Q 587.28 543.15 580.41 542.68
  A 2.25 2.24 61.0 0 1 579.47 542.41
  L 555.80 529.75
  A 0.40 0.40 0.0 0 0 555.21 530.08
  C 555.07 533.59 555.20 537.71 553.73 540.76
  Q 550.66 547.11 542.97 548.05
  Q 539.45 548.49 539.56 547.15
  Z"
/>
<path fill="#fefcf6" d="
  M 539.56 547.15
  L 479.89 547.21
  L 474.13 546.71
  A 3.73 3.45 53.5 0 1 473.34 546.56
  Q 464.36 543.79 464.15 534.47
  Q 463.90 523.78 464.08 499.76
  Q 464.15 491.55 465.71 489.04
  C 469.09 483.62 473.56 482.69 480.46 482.83
  Q 484.67 482.91 536.71 482.99
  Q 544.69 483.01 547.09 484.19
  Q 552.08 486.65 553.81 492.63
  A 2.39 2.36 -54.0 0 1 553.89 493.16
  L 554.19 502.22
  A 0.37 0.37 0.0 0 0 554.74 502.53
  Q 564.87 496.91 577.35 490.17
  C 581.20 488.09 585.23 487.38 586.82 492.11
  A 4.32 4.21 36.5 0 1 587.04 493.46
  L 587.04 536.25
  A 5.59 5.53 -33.2 0 1 586.55 538.53
  Q 584.24 543.67 578.64 540.83
  Q 574.27 538.61 554.72 527.67
  A 0.35 0.35 0.0 0 0 554.20 527.96
  L 553.67 537.72
  A 2.21 2.19 57.2 0 1 553.54 538.34
  Q 550.12 547.46 539.56 547.15
  Z"
/>
<path fill="#020308" d="
  M 658.57 635.02
  A 60.20 60.20 0.0 0 1 598.37 695.22
  A 60.20 60.20 0.0 0 1 538.17 635.02
  A 60.20 60.20 0.0 0 1 598.37 574.82
  A 60.20 60.20 0.0 0 1 658.57 635.02
  Z
  M 657.36 634.98
  A 59.10 59.10 0.0 0 0 598.26 575.88
  A 59.10 59.10 0.0 0 0 539.16 634.98
  A 59.10 59.10 0.0 0 0 598.26 694.08
  A 59.10 59.10 0.0 0 0 657.36 634.98
  Z"
/>
<path fill="#fefcf6" d="
  M 657.36 634.98
  A 59.10 59.10 0.0 0 1 598.26 694.08
  A 59.10 59.10 0.0 0 1 539.16 634.98
  A 59.10 59.10 0.0 0 1 598.26 575.88
  A 59.10 59.10 0.0 0 1 657.36 634.98
  Z
  M 611.25 605.32
  A 12.98 12.98 0.0 0 0 598.27 592.34
  A 12.98 12.98 0.0 0 0 585.29 605.32
  A 12.98 12.98 0.0 0 0 598.27 618.30
  A 12.98 12.98 0.0 0 0 611.25 605.32
  Z
  M 581.62 635.31
  A 13.06 13.06 0.0 0 0 568.56 622.25
  A 13.06 13.06 0.0 0 0 555.50 635.31
  A 13.06 13.06 0.0 0 0 568.56 648.37
  A 13.06 13.06 0.0 0 0 581.62 635.31
  Z
  M 641.17 635.40
  A 13.04 13.04 0.0 0 0 628.13 622.36
  A 13.04 13.04 0.0 0 0 615.09 635.40
  A 13.04 13.04 0.0 0 0 628.13 648.44
  A 13.04 13.04 0.0 0 0 641.17 635.40
  Z
  M 605.34 635.52
  A 7.15 7.15 0.0 0 0 598.19 628.37
  A 7.15 7.15 0.0 0 0 591.04 635.52
  A 7.15 7.15 0.0 0 0 598.19 642.67
  A 7.15 7.15 0.0 0 0 605.34 635.52
  Z
  M 611.29 665.12
  A 12.93 12.93 0.0 0 0 598.36 652.19
  A 12.93 12.93 0.0 0 0 585.43 665.12
  A 12.93 12.93 0.0 0 0 598.36 678.05
  A 12.93 12.93 0.0 0 0 611.29 665.12
  Z"
/>
<path fill="#020308" d="
  M 391.70 683.17
  L 391.77 591.88
  A 10.19 10.19 0.0 0 1 406.99 583.02
  L 486.40 628.05
  A 10.19 10.19 0.0 0 1 486.49 645.72
  L 407.01 691.98
  A 10.19 10.19 0.0 0 1 391.70 683.17
  Z
  M 392.92 683.46
  A 8.85 8.85 0.0 0 0 406.23 691.10
  L 485.98 644.69
  A 8.85 8.85 0.0 0 0 485.90 629.34
  L 406.13 584.01
  A 8.85 8.85 0.0 0 0 392.91 591.71
  L 392.92 683.46
  Z"
/>
<path fill="#fefcf6" d="
  M 392.92 683.46
  L 392.91 591.71
  A 8.85 8.85 0.0 0 1 406.13 584.01
  L 485.90 629.34
  A 8.85 8.85 0.0 0 1 485.98 644.69
  L 406.23 691.10
  A 8.85 8.85 0.0 0 1 392.92 683.46
  Z"
/>
<path fill="#020308" d="
  M 611.25 605.32
  A 12.98 12.98 0.0 0 1 598.27 618.30
  A 12.98 12.98 0.0 0 1 585.29 605.32
  A 12.98 12.98 0.0 0 1 598.27 592.34
  A 12.98 12.98 0.0 0 1 611.25 605.32
  Z
  M 610.06 605.40
  A 11.80 11.80 0.0 0 0 598.26 593.60
  A 11.80 11.80 0.0 0 0 586.46 605.40
  A 11.80 11.80 0.0 0 0 598.26 617.20
  A 11.80 11.80 0.0 0 0 610.06 605.40
  Z"
/>
<circle fill="#2a384d" cx="598.26" cy="605.40" r="11.80"/>
<path fill="#020308" d="
  M 581.62 635.31
  A 13.06 13.06 0.0 0 1 568.56 648.37
  A 13.06 13.06 0.0 0 1 555.50 635.31
  A 13.06 13.06 0.0 0 1 568.56 622.25
  A 13.06 13.06 0.0 0 1 581.62 635.31
  Z
  M 580.48 635.31
  A 11.92 11.92 0.0 0 0 568.56 623.39
  A 11.92 11.92 0.0 0 0 556.64 635.31
  A 11.92 11.92 0.0 0 0 568.56 647.23
  A 11.92 11.92 0.0 0 0 580.48 635.31
  Z"
/>
<path fill="#020308" d="
  M 641.17 635.40
  A 13.04 13.04 0.0 0 1 628.13 648.44
  A 13.04 13.04 0.0 0 1 615.09 635.40
  A 13.04 13.04 0.0 0 1 628.13 622.36
  A 13.04 13.04 0.0 0 1 641.17 635.40
  Z
  M 639.99 635.47
  A 11.86 11.86 0.0 0 0 628.13 623.61
  A 11.86 11.86 0.0 0 0 616.27 635.47
  A 11.86 11.86 0.0 0 0 628.13 647.33
  A 11.86 11.86 0.0 0 0 639.99 635.47
  Z"
/>
<circle fill="#2a384d" cx="568.56" cy="635.31" r="11.92"/>
<circle fill="#2a384d" cx="628.13" cy="635.47" r="11.86"/>
<path fill="#020308" d="
  M 605.34 635.52
  A 7.15 7.15 0.0 0 1 598.19 642.67
  A 7.15 7.15 0.0 0 1 591.04 635.52
  A 7.15 7.15 0.0 0 1 598.19 628.37
  A 7.15 7.15 0.0 0 1 605.34 635.52
  Z
  M 604.19 635.58
  A 6.03 6.03 0.0 0 0 598.16 629.55
  A 6.03 6.03 0.0 0 0 592.13 635.58
  A 6.03 6.03 0.0 0 0 598.16 641.61
  A 6.03 6.03 0.0 0 0 604.19 635.58
  Z"
/>
<circle fill="#2a384d" cx="598.16" cy="635.58" r="6.03"/>
<path fill="#020308" d="
  M 611.29 665.12
  A 12.93 12.93 0.0 0 1 598.36 678.05
  A 12.93 12.93 0.0 0 1 585.43 665.12
  A 12.93 12.93 0.0 0 1 598.36 652.19
  A 12.93 12.93 0.0 0 1 611.29 665.12
  Z
  M 610.17 665.12
  A 11.79 11.79 0.0 0 0 598.38 653.33
  A 11.79 11.79 0.0 0 0 586.59 665.12
  A 11.79 11.79 0.0 0 0 598.38 676.91
  A 11.79 11.79 0.0 0 0 610.17 665.12
  Z"
/>
<circle fill="#2a384d" cx="598.38" cy="665.12" r="11.79"/>
</svg>
