<svg viewBox="11 11 170 170" fill="none" xmlns="http://www.w3.org/2000/svg">
<style>
.logo { fill: #4A2D32; }
@media (prefers-color-scheme: dark) {
  .logo { fill: #fff; }
}
</style>
<g clip-path="url(#clip0_512_373)">
<path d="M132.046 110.448C133.704 110.968 135.375 111.411 137.069 111.687C137.919 111.824 138.769 111.92 139.631 111.956C140.062 111.974 140.493 111.98 140.93 111.962C141.367 111.944 141.81 111.92 142.241 111.866C143.115 111.77 143.965 111.597 144.803 111.357C145.222 111.238 145.635 111.1 146.042 110.944C146.449 110.789 146.856 110.615 147.257 110.43C148.047 110.052 148.801 109.615 149.514 109.119C149.873 108.867 150.22 108.604 150.555 108.328C150.891 108.053 151.22 107.754 151.537 107.448C152.166 106.832 152.734 106.173 153.249 105.473C153.764 104.773 154.219 104.024 154.614 103.234C155.009 102.444 155.332 101.642 155.59 100.81C155.847 99.9778 156.039 99.1278 156.158 98.2538C156.398 96.5059 156.344 94.7699 156.003 93.0399C155.662 91.3099 155.051 89.6817 154.165 88.1552C153.722 87.395 153.225 86.6766 152.668 86.0062C152.112 85.3358 151.507 84.7132 150.843 84.1325C150.178 83.5519 149.472 83.0371 148.73 82.5821C147.987 82.1272 147.209 81.7321 146.395 81.4029C145.988 81.2353 145.575 81.0916 145.156 80.9599C144.737 80.8282 144.318 80.7204 143.893 80.6247C143.043 80.4331 142.181 80.3194 141.307 80.2715C140.87 80.2475 140.427 80.2416 139.99 80.2535C139.553 80.2655 139.116 80.2894 138.685 80.3254C137.817 80.4032 136.961 80.5349 136.105 80.7025C134.399 81.0377 132.711 81.5226 131.053 82.0673C129.394 82.6121 127.766 83.2226 126.144 83.8572C122.899 85.1322 119.709 86.533 116.5 87.8978C116.045 88.0894 115.584 88.2749 115.118 88.4306C114.651 88.5862 114.178 88.7179 113.699 88.8197C113.22 88.9214 112.729 88.9933 112.232 89.0292C111.735 89.0651 111.233 89.0651 110.742 89.0292C110.251 88.9933 109.76 88.9155 109.275 88.7957C108.79 88.676 108.317 88.5144 107.862 88.3168C107.407 88.1193 106.976 87.8799 106.569 87.5985C106.162 87.3172 105.767 86.9939 105.42 86.6467C105.073 86.2995 104.756 85.9164 104.474 85.5034C104.193 85.0903 103.947 84.6533 103.75 84.1984C103.552 83.7434 103.391 83.2705 103.271 82.7857C103.151 82.3008 103.079 81.8099 103.038 81.3131C102.996 80.8162 103.002 80.3194 103.038 79.8165C103.073 79.3137 103.151 78.8288 103.253 78.344C103.355 77.8591 103.492 77.3862 103.648 76.9133C103.804 76.4404 103.995 75.9794 104.193 75.5185C105.737 71.9328 107.33 68.3651 108.742 64.7255C109.449 62.9057 110.113 61.074 110.67 59.2003C110.951 58.2605 111.203 57.3147 111.412 56.3509C111.622 55.3872 111.783 54.4174 111.879 53.4477C111.975 52.4779 112.005 51.4962 111.939 50.5145C111.909 50.0236 111.855 49.5267 111.777 49.0419C111.699 48.557 111.604 48.0781 111.478 47.5992C111.239 46.6534 110.909 45.7315 110.49 44.8336C110.071 43.9357 109.574 43.0857 109.006 42.2955C108.718 41.9004 108.419 41.5113 108.096 41.1402C107.773 40.769 107.431 40.4099 107.072 40.0687C106.36 39.3862 105.594 38.7816 104.773 38.2429C104.366 37.9735 103.941 37.7281 103.504 37.4946C103.067 37.2612 102.618 37.0517 102.164 36.8661C101.254 36.489 100.32 36.2016 99.362 36.0041C98.4042 35.8065 97.4106 35.6928 96.4288 35.6689C95.4471 35.6449 94.4714 35.7227 93.5016 35.8784C93.0167 35.9562 92.5319 36.0639 92.053 36.1897C91.5741 36.3154 91.1072 36.465 90.6462 36.6326C89.7304 36.9679 88.8444 37.3869 87.9944 37.8957C87.5694 38.1471 87.1563 38.4225 86.7612 38.7098C86.3661 38.9972 85.983 39.3084 85.6179 39.6317C84.8876 40.2782 84.2111 40.9905 83.6006 41.7747C82.99 42.5589 82.4632 43.379 82.0142 44.247C81.7927 44.684 81.5832 45.1269 81.4036 45.5819C81.2241 46.0368 81.0565 46.5097 80.9128 46.9767C80.6314 47.9225 80.4399 48.8802 80.3381 49.856C80.2902 50.3409 80.2603 50.8317 80.2543 51.3286C80.2483 51.8254 80.2603 52.3163 80.2962 52.8071C80.3621 53.7889 80.4997 54.7526 80.6793 55.7104C80.8589 56.6682 81.0924 57.62 81.3558 58.5598C81.6191 59.4996 81.9125 60.4395 82.2237 61.3733C82.535 62.3071 82.8702 63.223 83.2174 64.1449C83.9058 65.9826 84.6481 67.7964 85.4084 69.6042C85.6957 70.2866 85.989 70.969 86.2584 71.6634C86.3961 72.0106 86.5218 72.3578 86.6295 72.711C86.7373 73.0642 86.8271 73.4353 86.881 73.8005C86.9348 74.1656 86.9408 74.5428 86.8929 74.9139C86.845 75.285 86.7373 75.6502 86.5577 75.9794C86.3781 76.3087 86.1506 76.608 85.8753 76.8594C85.5999 77.1108 85.2827 77.3084 84.9355 77.458L84.8816 77.482C84.702 77.5538 84.5164 77.6196 84.3309 77.6615C84.1453 77.7034 83.9537 77.7394 83.7622 77.7513C83.5706 77.7633 83.3731 77.7633 83.1815 77.7513C82.99 77.7394 82.7984 77.7034 82.6128 77.6556C82.2417 77.5598 81.8766 77.4041 81.5533 77.2006C81.23 76.9971 80.9248 76.7457 80.6614 76.4703C80.1346 75.9256 79.7215 75.309 79.3324 74.6685C78.9433 74.028 78.5842 73.3755 78.213 72.723C76.5549 69.7718 74.9326 66.8027 73.4122 63.7857C71.8917 60.7687 70.473 57.7098 69.3117 54.5311C69.0184 53.735 68.743 52.9388 68.4916 52.1247C68.2402 51.3106 68.0007 50.4965 67.7912 49.6704C67.3722 48.0242 67.0489 46.3661 66.8454 44.69C66.7436 43.8519 66.6718 43.0079 66.6359 42.1638C66.6 41.3198 66.594 40.4638 66.6239 39.6077C66.6838 37.9017 66.8813 36.2256 67.2165 34.5794C67.5518 32.9332 68.0306 31.3169 68.6472 29.7306C68.9585 28.9345 69.3057 28.1503 69.6768 27.396C70.048 26.6418 70.461 25.8935 70.898 25.1752C71.772 23.7325 72.7657 22.3677 73.8851 21.0807C74.4478 20.4402 75.0344 19.8176 75.645 19.231C76.2556 18.6443 76.8901 18.0816 77.5426 17.5489C78.8536 16.4833 80.2543 15.5375 81.7389 14.7054C82.4811 14.2864 83.2474 13.9033 84.0196 13.5561C84.7918 13.2089 85.576 12.8976 86.3721 12.6163C87.9644 12.0596 89.6046 11.6346 91.2867 11.3532C92.1308 11.2155 92.9808 11.1078 93.8308 11.0419C94.2559 11.006 94.6809 10.9821 95.1059 10.9701C95.5309 10.9581 95.9619 10.9521 96.3869 10.9521C98.081 10.9641 99.7571 11.1257 101.403 11.4251C102.229 11.5747 103.043 11.7603 103.858 11.9758C104.672 12.1913 105.474 12.4487 106.27 12.742C107.862 13.3227 109.383 14.035 110.837 14.8671C111.562 15.2861 112.274 15.7291 112.963 16.208C113.651 16.6869 114.327 17.2017 114.98 17.7404C116.285 18.8239 117.476 19.9972 118.566 21.2722C119.11 21.9068 119.625 22.5652 120.116 23.2536C120.607 23.942 121.074 24.6484 121.505 25.3727C122.373 26.8274 123.103 28.3359 123.702 29.8982C124.001 30.6824 124.27 31.4726 124.504 32.2807C124.737 33.0888 124.941 33.9149 125.102 34.747C125.432 36.4052 125.617 38.0753 125.665 39.7514C125.689 40.5895 125.683 41.4275 125.641 42.2716C125.599 43.1156 125.527 43.9596 125.42 44.7977C125.001 48.1499 124.109 51.3705 122.947 54.5192C122.367 56.0935 121.714 57.6499 121.02 59.1824C120.325 60.7148 119.589 62.2293 118.829 63.7199C117.308 66.7129 115.68 69.6521 114.028 72.5733C113.633 73.2677 113.238 73.9561 112.849 74.6505C112.46 75.3449 112.071 76.0393 111.67 76.7277C111.472 77.0749 111.268 77.4161 111.065 77.7573C110.861 78.0985 110.658 78.4397 110.46 78.7869C110.365 78.9605 110.269 79.1341 110.185 79.3137C110.101 79.4933 110.023 79.6789 109.969 79.8704C109.916 80.062 109.892 80.2655 109.904 80.463C109.916 80.6606 109.975 80.8581 110.059 81.0377C110.245 81.4388 110.562 81.756 110.957 81.9416C111.143 82.0254 111.334 82.0853 111.532 82.0973C111.729 82.1092 111.933 82.0853 112.124 82.0374C112.316 81.9895 112.502 81.9117 112.681 81.8279C112.861 81.7441 113.034 81.6483 113.208 81.5525C113.555 81.361 113.896 81.1574 114.244 80.9539C114.591 80.7504 114.932 80.5528 115.279 80.3553C115.974 79.9602 116.668 79.5771 117.362 79.188C118.057 78.7989 118.751 78.4098 119.445 78.0207C122.217 76.4703 125.001 74.9438 127.826 73.5132C130.652 72.0765 133.525 70.7296 136.494 69.5863C137.979 69.0176 139.487 68.4968 141.013 68.0598C142.54 67.6228 144.072 67.2636 145.629 67.0062C147.185 66.7488 148.766 66.5872 150.364 66.5453C151.962 66.5034 153.554 66.5812 155.123 66.7788C156.691 66.9763 158.242 67.2996 159.78 67.7545C160.546 67.982 161.306 68.2394 162.049 68.5207C162.791 68.8021 163.515 69.1193 164.228 69.4605C165.652 70.143 167.023 70.9391 168.328 71.855C168.981 72.3099 169.621 72.7948 170.238 73.3036C170.854 73.8125 171.441 74.3392 172.01 74.89C173.147 75.9914 174.189 77.1826 175.14 78.4577C175.613 79.0982 176.068 79.7627 176.493 80.4391C176.918 81.1155 177.307 81.8039 177.673 82.5103C178.403 83.917 179.013 85.3717 179.51 86.8862C179.756 87.6404 179.977 88.4126 180.163 89.1908C180.348 89.969 180.504 90.7472 180.624 91.5314C180.869 93.0998 180.983 94.6741 180.977 96.2604C180.977 97.0566 180.935 97.8527 180.863 98.6489C180.791 99.4451 180.69 100.235 180.558 101.019C180.294 102.582 179.905 104.114 179.391 105.617C179.133 106.365 178.846 107.107 178.529 107.844C178.211 108.58 177.864 109.298 177.487 109.999C176.739 111.399 175.883 112.728 174.925 113.991C174.446 114.62 173.937 115.23 173.404 115.829C172.872 116.428 172.309 116.996 171.734 117.541C170.579 118.631 169.346 119.624 168.035 120.51C167.382 120.953 166.706 121.372 166.012 121.767C165.317 122.162 164.605 122.528 163.88 122.863C162.438 123.533 160.953 124.078 159.433 124.509C157.912 124.94 156.362 125.239 154.77 125.425C151.585 125.79 148.424 125.646 145.288 125.09C144.503 124.952 143.719 124.784 142.947 124.599C142.175 124.413 141.409 124.204 140.648 123.976C139.128 123.521 137.643 123 136.171 122.42C133.232 121.264 130.376 119.9 127.557 118.445C124.737 116.99 121.894 115.41 119.092 113.842C116.291 112.273 113.489 110.693 110.694 109.113C105.103 105.946 99.5177 102.767 93.9446 99.5767C91.155 97.9844 88.3655 96.3861 85.576 94.7938C82.7864 93.2015 79.9969 91.6032 77.2014 90.0229C75.8066 89.2327 74.4059 88.4425 73.0051 87.6584C71.6044 86.8742 70.1976 86.102 68.7789 85.3477C67.3602 84.5935 65.9355 83.8632 64.4689 83.1987C63.7386 82.8695 62.9903 82.5582 62.2361 82.2709C61.4818 81.9835 60.7096 81.7261 59.9314 81.4807C58.2733 80.9599 56.6031 80.5169 54.9091 80.2416C54.059 80.1039 53.209 80.0081 52.347 79.9722C51.916 79.9542 51.485 79.9482 51.048 79.9662C50.611 79.9842 50.168 80.0081 49.737 80.062C48.8631 80.1578 48.013 80.3314 47.175 80.5708C46.7559 80.6905 46.3429 80.8282 45.9358 80.9838C45.5288 81.1395 45.1217 81.3131 44.7207 81.4986C43.9305 81.8758 43.1762 82.3128 42.4639 82.8096C42.1047 83.061 41.7575 83.3244 41.4223 83.5998C41.0871 83.8751 40.7579 84.1744 40.4406 84.4797C39.812 85.0963 39.2434 85.7548 38.7286 86.4552C38.2137 87.1555 37.7588 87.9038 37.3637 88.694C36.9686 89.4841 36.6454 90.2863 36.388 91.1183C36.1306 91.9504 35.939 92.8005 35.8193 93.6744C35.5799 95.4224 35.6337 97.1584 35.9749 98.8883C36.3161 100.618 36.9267 102.247 37.8127 103.773C38.2557 104.533 38.7525 105.252 39.3092 105.922C39.8659 106.592 40.4705 107.215 41.135 107.796C41.7994 108.376 42.5058 108.891 43.2481 109.346C43.9904 109.801 44.7686 110.196 45.5827 110.525C45.9897 110.693 46.4028 110.837 46.8218 110.968C47.2408 111.1 47.6599 111.208 48.0849 111.304C48.9349 111.495 49.7969 111.609 50.6709 111.657C51.1079 111.681 51.5508 111.687 51.9878 111.675C52.4248 111.663 52.8618 111.639 53.2928 111.603C54.1608 111.525 55.0168 111.393 55.8728 111.226C57.5789 110.891 59.267 110.406 60.9251 109.861C62.5833 109.316 64.2115 108.706 65.8337 108.071C69.0782 106.796 72.2688 105.395 75.4774 104.03C75.9323 103.839 76.3933 103.653 76.8602 103.498C77.3271 103.342 77.8 103.21 78.2789 103.109C78.7578 103.007 79.2486 102.935 79.7455 102.899C80.2423 102.863 80.7452 102.863 81.236 102.899C81.7269 102.935 82.2178 103.013 82.7026 103.133C83.1875 103.252 83.6604 103.414 84.1154 103.611C84.5703 103.809 85.0013 104.048 85.4084 104.33C85.8154 104.611 86.2105 104.934 86.5577 105.282C86.9049 105.629 87.2222 106.012 87.5035 106.425C87.7849 106.838 88.0303 107.275 88.2278 107.73C88.4254 108.185 88.587 108.658 88.7067 109.143C88.8264 109.627 88.8983 110.118 88.9402 110.615C88.9821 111.112 88.9761 111.609 88.9402 112.112C88.9043 112.615 88.8264 113.099 88.7247 113.584C88.6229 114.069 88.4852 114.542 88.3296 115.015C88.174 115.488 87.9824 115.949 87.7849 116.41C86.2404 119.995 84.6481 123.563 83.2354 127.203C82.529 129.022 81.8646 130.854 81.3079 132.728C81.0265 133.668 80.7751 134.614 80.5656 135.577C80.3561 136.541 80.1944 137.511 80.0987 138.481C80.0029 139.45 79.973 140.432 80.0388 141.414C80.0687 141.905 80.1226 142.401 80.2004 142.886C80.2783 143.371 80.374 143.85 80.4997 144.329C80.7392 145.275 81.0684 146.197 81.4875 147.095C81.9065 147.993 82.4033 148.843 82.972 149.633C83.2593 150.028 83.5587 150.417 83.8819 150.788C84.2052 151.159 84.5464 151.518 84.9055 151.86C85.6179 152.542 86.3841 153.147 87.2042 153.685C87.6113 153.955 88.0363 154.2 88.4733 154.434C88.9103 154.667 89.3592 154.877 89.8142 155.062C90.7241 155.439 91.6579 155.727 92.6157 155.924C93.5734 156.122 94.5671 156.235 95.5489 156.259C96.5306 156.283 97.5063 156.205 98.4761 156.05C98.961 155.972 99.4458 155.864 99.9247 155.739C100.404 155.613 100.871 155.463 101.331 155.296C102.247 154.96 103.133 154.541 103.983 154.033C104.408 153.781 104.821 153.506 105.216 153.218C105.612 152.931 105.995 152.62 106.36 152.297C107.09 151.65 107.767 150.938 108.377 150.154C108.988 149.369 109.515 148.549 109.963 147.681C110.185 147.244 110.394 146.801 110.574 146.346C110.754 145.891 110.921 145.419 111.065 144.952C111.346 144.006 111.538 143.048 111.64 142.072C111.687 141.587 111.717 141.097 111.723 140.6C111.729 140.103 111.717 139.612 111.681 139.121C111.616 138.139 111.478 137.176 111.298 136.218C111.119 135.26 110.885 134.308 110.622 133.368C110.359 132.429 110.065 131.489 109.754 130.555C109.443 129.621 109.107 128.705 108.76 127.783C108.072 125.946 107.33 124.132 106.569 122.324C106.282 121.642 105.989 120.959 105.719 120.265C105.582 119.918 105.456 119.57 105.348 119.217C105.24 118.864 105.151 118.493 105.097 118.128C105.043 117.763 105.037 117.385 105.085 117.014C105.133 116.643 105.24 116.278 105.42 115.949C105.6 115.62 105.827 115.32 106.102 115.069C106.378 114.817 106.695 114.62 107.042 114.47L107.096 114.446C107.276 114.374 107.461 114.309 107.647 114.267C107.832 114.225 108.024 114.189 108.216 114.177C108.407 114.165 108.605 114.165 108.796 114.177C108.988 114.189 109.179 114.225 109.365 114.273C109.736 114.368 110.101 114.524 110.424 114.728C110.748 114.931 111.053 115.183 111.316 115.458C111.843 116.003 112.256 116.619 112.645 117.26C113.034 117.9 113.394 118.553 113.765 119.205C115.423 122.156 117.045 125.126 118.566 128.143C120.086 131.16 121.505 134.218 122.666 137.397C122.959 138.193 123.235 138.989 123.486 139.804C123.738 140.618 123.977 141.432 124.186 142.258C124.606 143.904 124.929 145.562 125.132 147.238C125.234 148.076 125.306 148.92 125.342 149.764C125.378 150.608 125.384 151.464 125.354 152.321C125.294 154.027 125.096 155.703 124.761 157.349C124.426 158.995 123.947 160.611 123.33 162.198C123.019 162.994 122.672 163.778 122.301 164.532C121.93 165.286 121.517 166.035 121.08 166.753C120.206 168.196 119.212 169.561 118.093 170.848C117.53 171.488 116.943 172.111 116.333 172.697C115.722 173.284 115.088 173.847 114.435 174.379C113.124 175.445 111.723 176.391 110.239 177.223C109.497 177.642 108.73 178.025 107.958 178.372C107.186 178.719 106.402 179.031 105.606 179.312C104.013 179.869 102.373 180.294 100.691 180.575C99.8469 180.713 98.9969 180.82 98.1468 180.886C97.7218 180.922 97.2968 180.946 96.8718 180.958C96.4468 180.97 96.0158 180.976 95.5908 180.976C93.8967 180.964 92.2206 180.802 90.5744 180.503C89.7483 180.354 88.9342 180.168 88.1201 179.952C87.306 179.737 86.5038 179.48 85.7077 179.186C84.1154 178.606 82.5949 177.893 81.1403 177.061C80.4159 176.642 79.7036 176.199 79.0152 175.72C78.3268 175.241 77.6503 174.727 76.9979 174.188C75.6929 173.104 74.5016 171.931 73.4122 170.656C72.8674 170.021 72.3526 169.363 71.8618 168.675C71.3709 167.986 70.904 167.28 70.473 166.555C69.605 165.101 68.8747 163.592 68.2761 162.03C67.9768 161.246 67.7074 160.456 67.4739 159.648C67.2405 158.839 67.0369 158.013 66.8753 157.181C66.5461 155.523 66.3605 153.853 66.3126 152.177C66.2887 151.339 66.2947 150.501 66.3366 149.657C66.3785 148.813 66.4503 147.969 66.5581 147.131C66.9771 143.778 67.869 140.558 69.0303 137.409C69.611 135.835 70.2635 134.278 70.9579 132.746C71.6522 131.213 72.3885 129.705 73.1488 128.208C74.6693 125.215 76.2975 122.276 77.9496 119.355C78.3447 118.661 78.7398 117.972 79.1289 117.278C79.518 116.583 79.9071 115.889 80.3022 115.201C80.4997 114.853 80.7033 114.512 80.9068 114.171C81.1103 113.83 81.3139 113.489 81.5114 113.141C81.6072 112.968 81.703 112.794 81.7868 112.615C81.8706 112.435 81.9484 112.255 82.0023 112.058C82.0561 111.86 82.0801 111.663 82.0681 111.465C82.0561 111.268 81.9963 111.07 81.9125 110.891C81.7269 110.489 81.4096 110.172 81.0145 109.987C80.835 109.903 80.6374 109.843 80.4399 109.831C80.2423 109.819 80.0388 109.843 79.8473 109.891C79.6557 109.939 79.4701 110.017 79.2905 110.1C79.111 110.184 78.9314 110.28 78.7578 110.376C78.4106 110.567 78.0694 110.771 77.7222 110.974C77.375 111.178 77.0338 111.375 76.6866 111.573C75.9922 111.968 75.2978 112.351 74.6034 112.74C73.909 113.129 73.2146 113.518 72.5202 113.908C69.7487 115.458 66.9651 116.984 64.1397 118.415C61.3142 119.852 58.4409 121.199 55.4717 122.342C53.9872 122.911 52.4787 123.431 50.9522 123.868C49.4317 124.305 47.8933 124.665 46.3369 124.922C44.7805 125.179 43.2002 125.341 41.6019 125.383C40.0036 125.425 38.4113 125.347 36.8429 125.149C35.2746 124.952 33.7242 124.629 32.1857 124.174C31.4195 123.946 30.6593 123.689 29.917 123.408C29.1747 123.126 28.4504 122.809 27.738 122.468C26.3133 121.785 24.9425 120.989 23.6375 120.073C22.985 119.618 22.3445 119.133 21.728 118.625C21.1114 118.116 20.5247 117.589 19.9561 117.038C18.8187 115.937 17.7771 114.746 16.8253 113.471C16.3524 112.83 15.8975 112.166 15.4725 111.489C15.0474 110.813 14.6583 110.124 14.2932 109.418C13.5629 108.011 12.9523 106.557 12.4554 105.042C12.21 104.288 11.9885 103.516 11.803 102.737C11.6174 101.959 11.4617 101.181 11.342 100.397C11.1086 98.8405 10.9888 97.2661 11.0008 95.6738C11.0008 94.8776 11.0427 94.0815 11.1146 93.2853C11.1864 92.4892 11.2882 91.699 11.4198 90.9148C11.6832 89.3524 12.0723 87.82 12.5871 86.3175C12.8445 85.5692 13.1319 84.8269 13.4491 84.0906C13.7664 83.3543 14.1136 82.636 14.4907 81.9356C15.239 80.5349 16.095 79.206 17.0528 77.9429C17.5317 77.3143 18.0405 76.7038 18.5733 76.1051C19.106 75.5065 19.6687 74.9379 20.2434 74.3931C21.3987 73.3036 22.6319 72.3099 23.9428 71.424C24.5953 70.981 25.2717 70.562 25.9661 70.1669C26.6605 69.7718 27.3729 69.4067 28.0972 69.0714C29.5398 68.401 31.0244 67.8563 32.5449 67.4253C34.0654 66.9943 35.6158 66.695 37.2081 66.5094C40.3927 66.1442 43.5534 66.2879 46.6901 66.8446C47.4743 66.9823 48.2585 67.1499 49.0307 67.3355C49.8029 67.521 50.5691 67.7306 51.3294 67.958C52.8498 68.413 54.3344 68.9338 55.807 69.5144C58.7462 70.6697 61.6015 72.0346 64.421 73.4892C65.8517 74.2255 67.2644 74.9917 68.6652 75.7759C70.0659 76.5601 71.4547 77.3682 72.8495 78.1763C75.627 79.7866 78.4046 81.4089 81.1822 83.0311C86.7373 86.2696 92.2924 89.4961 97.8715 92.6927C100.661 94.291 103.451 95.8893 106.246 97.4696C109.042 99.05 111.849 100.624 114.663 102.175C116.069 102.947 117.482 103.719 118.901 104.473C120.319 105.228 121.738 105.976 123.169 106.7C124.6 107.425 126.042 108.125 127.515 108.765C128.251 109.083 128.993 109.388 129.754 109.663C130.514 109.939 131.274 110.202 132.046 110.442V110.448Z" class="logo"/>
</g>
</svg>
