<?xml version="1.0" encoding="UTF-8"?>
<svg id="_图层_2" data-name="图层 2" xmlns="http://www.w3.org/2000/svg" viewBox="27.82 27.82 277.33 277.33">
  <defs>
    <style>
      .cls-1 {
        fill: #1b1b1b;
      }

      .cls-3 {
        fill: #cdfe02;
        stroke: #1b1b1b;
        stroke-width: 10;
      }
    </style>
  </defs>
  <g>
    <path class="cls-3" d="M247.92,90.11L106.29,43.77c-29.88-9.78-60.59,12.49-60.59,43.93V245.27c0,30.8,29.56,52.98,59.13,44.38l141.29-41.11c24.38-7.09,41.14-29.43,41.14-54.82v-49.34c0-24.69-15.87-46.58-39.34-54.26Z"/>
    <ellipse class="cls-1" cx="118.22" cy="137.49" rx="18.77" ry="22.18"/>
    <path class="cls-1" d="M230.19,195.49c-9.92,24.65-29.86,41.08-62.78,41.08s-52.86-16.42-62.78-41.08c-3.76-9.34,6.34-18.12,15.21-13.35,13.97,7.5,30.22,11.8,47.58,11.8s33.61-4.3,47.58-11.8c8.87-4.76,18.96,4.01,15.21,13.35Z"/>
    <ellipse class="cls-1" cx="214.23" cy="137.49" rx="18.77" ry="22.18"/>
  </g>
</svg>