<?xml version="1.0" encoding="UTF-8" standalone="no"?>
<!DOCTYPE svg PUBLIC "-//W3C//DTD SVG 1.1//EN" "http://www.w3.org/Graphics/SVG/1.1/DTD/svg11.dtd">
<svg xmlns="http://www.w3.org/2000/svg" version="1.1" viewBox="0.00 0.00 128.00 128.00">
<g stroke-width="2.00" fill="none" stroke-linecap="butt">
<path stroke="#8e8514" vector-effect="non-scaling-stroke" d="
  M 94.73 22.39
  Q 94.19 22.77 86.01 28.00
  Q 77.94 33.15 71.69 39.75
  A 3.35 3.28 78.1 0 0 71.00 40.83
  Q 69.45 44.67 69.12 48.87
  Q 68.80 52.86 68.94 56.61
  A 0.08 0.07 78.3 0 1 68.90 56.68
  L 68.59 56.82
  A 0.20 0.20 0.0 0 1 68.31 56.67
  Q 67.44 50.31 68.46 43.71
  A 0.29 0.29 0.0 0 0 67.99 43.45
  Q 60.88 49.59 61.64 59.24
  Q 61.92 62.74 61.67 65.54
  A 0.09 0.09 0.0 0 1 61.50 65.55
  Q 60.13 58.81 61.06 52.29
  A 0.18 0.17 64.9 0 0 60.74 52.17
  C 58.73 55.44 55.98 59.31 55.28 63.02
  Q 54.63 66.46 54.93 67.74
  Q 56.01 72.40 56.09 73.00
  A 0.20 0.20 0.0 0 1 55.72 73.14
  C 54.53 71.42 54.53 69.25 53.60 67.76
  A 0.31 0.31 0.0 0 0 53.04 67.85
  Q 50.42 78.11 55.41 87.89
  A 0.19 0.19 0.0 0 0 55.76 87.87
  Q 60.56 76.66 67.72 66.26
  Q 77.55 51.99 89.64 40.40
  Q 92.74 37.42 105.22 27.57
  A 0.33 0.33 0.0 0 1 105.69 27.62
  L 105.70 27.63
  A 0.33 0.32 50.8 0 1 105.66 28.08
  Q 78.75 50.33 62.76 81.99
  Q 54.22 98.89 49.99 113.54
  A 1.51 1.51 0.0 0 0 51.31 115.46
  L 51.40 115.47
  A 2.31 2.31 0.0 0 0 53.82 113.83
  Q 57.23 102.45 60.69 92.21
  Q 61.41 90.06 62.06 89.25
  A 1.39 1.35 15.5 0 1 62.94 88.77
  Q 76.10 87.27 85.66 77.66
  A 0.26 0.25 43.5 0 0 85.65 77.29
  L 85.63 77.27
  A 0.26 0.26 0.0 0 0 85.26 77.29
  Q 84.85 77.81 83.78 78.28
  Q 75.92 81.72 67.73 81.73
  A 0.30 0.29 89.0 0 1 67.44 81.44
  L 67.43 81.37
  A 0.27 0.27 0.0 0 1 67.68 81.10
  Q 76.42 80.54 84.62 77.10
  Q 88.08 75.66 90.00 73.76
  Q 93.07 70.73 94.31 69.02
  A 0.21 0.21 0.0 0 0 94.06 68.70
  Q 87.52 71.59 80.04 72.24
  A 0.12 0.12 0.0 0 1 79.91 72.12
  L 79.91 71.78
  A 0.25 0.24 87.5 0 1 80.13 71.53
  C 87.82 70.60 95.26 67.81 100.32 61.83
  Q 105.79 55.36 109.56 47.75
  A 0.11 0.11 0.0 0 0 109.38 47.62
  C 105.91 50.85 99.86 52.97 95.68 53.41
  Q 87.87 54.25 82.55 55.53
  A 0.24 0.23 -14.3 0 1 82.27 55.37
  L 82.26 55.32
  A 0.28 0.28 0.0 0 1 82.45 54.97
  Q 88.72 53.01 95.24 52.09
  Q 103.35 50.94 108.50 44.99
  A 0.13 0.12 -69.1 0 0 108.41 44.78
  L 105.68 44.78
  A 0.10 0.10 0.0 0 1 105.64 44.59
  Q 108.42 43.40 110.12 42.25
  A 4.40 4.29 -0.5 0 0 111.29 41.09
  Q 114.77 36.07 116.38 29.10
  A 0.39 0.39 0.0 0 0 115.84 28.66
  L 110.95 30.89
  A 0.03 0.02 58.3 0 1 110.93 30.88
  L 110.80 30.68
  A 0.24 0.24 0.0 0 1 110.87 30.35
  L 115.94 26.73
  A 1.32 1.25 1.5 0 0 116.14 26.55
  C 118.56 23.73 118.38 19.46 118.19 16.42
  A 0.51 0.50 -3.4 0 0 117.65 15.95
  Q 110.11 16.37 103.03 18.82
  C 97.87 20.61 95.85 23.48 93.07 28.39
  A 0.16 0.15 -63.4 0 1 92.87 28.46
  L 92.62 28.36
  A 0.05 0.04 27.1 0 1 92.60 28.31
  L 95.01 22.61
  A 0.19 0.18 -6.4 0 0 94.73 22.39"
/>
<path stroke="#988e17" vector-effect="non-scaling-stroke" d="
  M 42.85 43.75
  A 0.32 0.32 0.0 0 1 42.66 43.56
  L 40.75 38.39
  A 0.32 0.32 0.0 0 0 40.15 38.39
  L 38.18 43.54
  A 0.32 0.32 0.0 0 1 37.99 43.73
  L 32.82 45.64
  A 0.32 0.32 0.0 0 0 32.82 46.24
  L 37.97 48.21
  A 0.32 0.32 0.0 0 1 38.16 48.40
  L 40.07 53.57
  A 0.32 0.32 0.0 0 0 40.67 53.57
  L 42.64 48.42
  A 0.32 0.32 0.0 0 1 42.83 48.23
  L 48.00 46.32
  A 0.32 0.32 0.0 0 0 48.00 45.72
  L 42.85 43.75"
/>
<path stroke="#988e17" vector-effect="non-scaling-stroke" d="
  M 11.89 62.83
  Q 11.89 62.97 12.37 63.05
  Q 19.98 64.20 21.01 71.67
  A 0.15 0.15 0.0 0 0 21.30 71.70
  C 22.60 67.54 24.65 64.53 28.63 63.48
  Q 30.88 62.88 30.88 62.84
  Q 30.88 62.81 28.63 62.20
  C 24.65 61.14 22.61 58.13 21.31 53.97
  A 0.15 0.15 0.0 0 0 21.02 54.00
  Q 19.98 61.47 12.37 62.61
  Q 11.89 62.68 11.89 62.83"
/>
<path stroke="#988e17" vector-effect="non-scaling-stroke" d="
  M 35.32 80.03
  A 0.32 0.32 0.0 0 1 35.12 79.83
  L 33.94 76.43
  A 0.32 0.32 0.0 0 0 33.33 76.43
  L 32.20 79.85
  A 0.32 0.32 0.0 0 1 32.00 80.05
  L 28.60 81.23
  A 0.32 0.32 0.0 0 0 28.60 81.84
  L 32.02 82.97
  A 0.32 0.32 0.0 0 1 32.22 83.17
  L 33.40 86.57
  A 0.32 0.32 0.0 0 0 34.01 86.57
  L 35.14 83.15
  A 0.32 0.32 0.0 0 1 35.34 82.95
  L 38.74 81.77
  A 0.32 0.32 0.0 0 0 38.74 81.16
  L 35.32 80.03"
/>
</g>
<path fill="#fbeb0c" d="
  M 106.01 0.00
  Q 120.67 1.88 126.52 15.50
  Q 127.30 17.31 128.00 21.94
  L 128.00 105.99
  C 126.73 115.91 120.59 124.18 110.84 126.94
  Q 108.97 127.47 107.06 128.00
  L 22.05 128.00
  Q 11.88 126.88 5.60 119.42
  Q 1.36 114.39 0.00 107.03
  L 0.00 22.02
  C 1.37 11.64 7.75 3.43 17.98 0.81
  Q 19.46 0.43 20.92 0.00
  L 106.01 0.00
  Z
  M 94.73 22.39
  Q 94.19 22.77 86.01 28.00
  Q 77.94 33.15 71.69 39.75
  A 3.35 3.28 78.1 0 0 71.00 40.83
  Q 69.45 44.67 69.12 48.87
  Q 68.80 52.86 68.94 56.61
  A 0.08 0.07 78.3 0 1 68.90 56.68
  L 68.59 56.82
  A 0.20 0.20 0.0 0 1 68.31 56.67
  Q 67.44 50.31 68.46 43.71
  A 0.29 0.29 0.0 0 0 67.99 43.45
  Q 60.88 49.59 61.64 59.24
  Q 61.92 62.74 61.67 65.54
  A 0.09 0.09 0.0 0 1 61.50 65.55
  Q 60.13 58.81 61.06 52.29
  A 0.18 0.17 64.9 0 0 60.74 52.17
  C 58.73 55.44 55.98 59.31 55.28 63.02
  Q 54.63 66.46 54.93 67.74
  Q 56.01 72.40 56.09 73.00
  A 0.20 0.20 0.0 0 1 55.72 73.14
  C 54.53 71.42 54.53 69.25 53.60 67.76
  A 0.31 0.31 0.0 0 0 53.04 67.85
  Q 50.42 78.11 55.41 87.89
  A 0.19 0.19 0.0 0 0 55.76 87.87
  Q 60.56 76.66 67.72 66.26
  Q 77.55 51.99 89.64 40.40
  Q 92.74 37.42 105.22 27.57
  A 0.33 0.33 0.0 0 1 105.69 27.62
  L 105.70 27.63
  A 0.33 0.32 50.8 0 1 105.66 28.08
  Q 78.75 50.33 62.76 81.99
  Q 54.22 98.89 49.99 113.54
  A 1.51 1.51 0.0 0 0 51.31 115.46
  L 51.40 115.47
  A 2.31 2.31 0.0 0 0 53.82 113.83
  Q 57.23 102.45 60.69 92.21
  Q 61.41 90.06 62.06 89.25
  A 1.39 1.35 15.5 0 1 62.94 88.77
  Q 76.10 87.27 85.66 77.66
  A 0.26 0.25 43.5 0 0 85.65 77.29
  L 85.63 77.27
  A 0.26 0.26 0.0 0 0 85.26 77.29
  Q 84.85 77.81 83.78 78.28
  Q 75.92 81.72 67.73 81.73
  A 0.30 0.29 89.0 0 1 67.44 81.44
  L 67.43 81.37
  A 0.27 0.27 0.0 0 1 67.68 81.10
  Q 76.42 80.54 84.62 77.10
  Q 88.08 75.66 90.00 73.76
  Q 93.07 70.73 94.31 69.02
  A 0.21 0.21 0.0 0 0 94.06 68.70
  Q 87.52 71.59 80.04 72.24
  A 0.12 0.12 0.0 0 1 79.91 72.12
  L 79.91 71.78
  A 0.25 0.24 87.5 0 1 80.13 71.53
  C 87.82 70.60 95.26 67.81 100.32 61.83
  Q 105.79 55.36 109.56 47.75
  A 0.11 0.11 0.0 0 0 109.38 47.62
  C 105.91 50.85 99.86 52.97 95.68 53.41
  Q 87.87 54.25 82.55 55.53
  A 0.24 0.23 -14.3 0 1 82.27 55.37
  L 82.26 55.32
  A 0.28 0.28 0.0 0 1 82.45 54.97
  Q 88.72 53.01 95.24 52.09
  Q 103.35 50.94 108.50 44.99
  A 0.13 0.12 -69.1 0 0 108.41 44.78
  L 105.68 44.78
  A 0.10 0.10 0.0 0 1 105.64 44.59
  Q 108.42 43.40 110.12 42.25
  A 4.40 4.29 -0.5 0 0 111.29 41.09
  Q 114.77 36.07 116.38 29.10
  A 0.39 0.39 0.0 0 0 115.84 28.66
  L 110.95 30.89
  A 0.03 0.02 58.3 0 1 110.93 30.88
  L 110.80 30.68
  A 0.24 0.24 0.0 0 1 110.87 30.35
  L 115.94 26.73
  A 1.32 1.25 1.5 0 0 116.14 26.55
  C 118.56 23.73 118.38 19.46 118.19 16.42
  A 0.51 0.50 -3.4 0 0 117.65 15.95
  Q 110.11 16.37 103.03 18.82
  C 97.87 20.61 95.85 23.48 93.07 28.39
  A 0.16 0.15 -63.4 0 1 92.87 28.46
  L 92.62 28.36
  A 0.05 0.04 27.1 0 1 92.60 28.31
  L 95.01 22.61
  A 0.19 0.18 -6.4 0 0 94.73 22.39
  Z
  M 42.85 43.75
  A 0.32 0.32 0.0 0 1 42.66 43.56
  L 40.75 38.39
  A 0.32 0.32 0.0 0 0 40.15 38.39
  L 38.18 43.54
  A 0.32 0.32 0.0 0 1 37.99 43.73
  L 32.82 45.64
  A 0.32 0.32 0.0 0 0 32.82 46.24
  L 37.97 48.21
  A 0.32 0.32 0.0 0 1 38.16 48.40
  L 40.07 53.57
  A 0.32 0.32 0.0 0 0 40.67 53.57
  L 42.64 48.42
  A 0.32 0.32 0.0 0 1 42.83 48.23
  L 48.00 46.32
  A 0.32 0.32 0.0 0 0 48.00 45.72
  L 42.85 43.75
  Z
  M 11.89 62.83
  Q 11.89 62.97 12.37 63.05
  Q 19.98 64.20 21.01 71.67
  A 0.15 0.15 0.0 0 0 21.30 71.70
  C 22.60 67.54 24.65 64.53 28.63 63.48
  Q 30.88 62.88 30.88 62.84
  Q 30.88 62.81 28.63 62.20
  C 24.65 61.14 22.61 58.13 21.31 53.97
  A 0.15 0.15 0.0 0 0 21.02 54.00
  Q 19.98 61.47 12.37 62.61
  Q 11.89 62.68 11.89 62.83
  Z
  M 35.32 80.03
  A 0.32 0.32 0.0 0 1 35.12 79.83
  L 33.94 76.43
  A 0.32 0.32 0.0 0 0 33.33 76.43
  L 32.20 79.85
  A 0.32 0.32 0.0 0 1 32.00 80.05
  L 28.60 81.23
  A 0.32 0.32 0.0 0 0 28.60 81.84
  L 32.02 82.97
  A 0.32 0.32 0.0 0 1 32.22 83.17
  L 33.40 86.57
  A 0.32 0.32 0.0 0 0 34.01 86.57
  L 35.14 83.15
  A 0.32 0.32 0.0 0 1 35.34 82.95
  L 38.74 81.77
  A 0.32 0.32 0.0 0 0 38.74 81.16
  L 35.32 80.03
  Z"
/>
<path fill="#201f1c" d="
  M 95.01 22.61
  L 92.60 28.31
  A 0.05 0.04 27.1 0 0 92.62 28.36
  L 92.87 28.46
  A 0.16 0.15 -63.4 0 0 93.07 28.39
  C 95.85 23.48 97.87 20.61 103.03 18.82
  Q 110.11 16.37 117.65 15.95
  A 0.51 0.50 -3.4 0 1 118.19 16.42
  C 118.38 19.46 118.56 23.73 116.14 26.55
  A 1.32 1.25 1.5 0 1 115.94 26.73
  L 110.87 30.35
  A 0.24 0.24 0.0 0 0 110.80 30.68
  L 110.93 30.88
  A 0.03 0.02 58.3 0 0 110.95 30.89
  L 115.84 28.66
  A 0.39 0.39 0.0 0 1 116.38 29.10
  Q 114.77 36.07 111.29 41.09
  A 4.40 4.29 -0.5 0 1 110.12 42.25
  Q 108.42 43.40 105.64 44.59
  A 0.10 0.10 0.0 0 0 105.68 44.78
  L 108.41 44.78
  A 0.13 0.12 -69.1 0 1 108.50 44.99
  Q 103.35 50.94 95.24 52.09
  Q 88.72 53.01 82.45 54.97
  A 0.28 0.28 0.0 0 0 82.26 55.32
  L 82.27 55.37
  A 0.24 0.23 -14.3 0 0 82.55 55.53
  Q 87.87 54.25 95.68 53.41
  C 99.86 52.97 105.91 50.85 109.38 47.62
  A 0.11 0.11 0.0 0 1 109.56 47.75
  Q 105.79 55.36 100.32 61.83
  C 95.26 67.81 87.82 70.60 80.13 71.53
  A 0.25 0.24 87.5 0 0 79.91 71.78
  L 79.91 72.12
  A 0.12 0.12 0.0 0 0 80.04 72.24
  Q 87.52 71.59 94.06 68.70
  A 0.21 0.21 0.0 0 1 94.31 69.02
  Q 93.07 70.73 90.00 73.76
  Q 88.08 75.66 84.62 77.10
  Q 76.42 80.54 67.68 81.10
  A 0.27 0.27 0.0 0 0 67.43 81.37
  L 67.44 81.44
  A 0.30 0.29 89.0 0 0 67.73 81.73
  Q 75.92 81.72 83.78 78.28
  Q 84.85 77.81 85.26 77.29
  A 0.26 0.26 0.0 0 1 85.63 77.27
  L 85.65 77.29
  A 0.26 0.25 43.5 0 1 85.66 77.66
  Q 76.10 87.27 62.94 88.77
  A 1.39 1.35 15.5 0 0 62.06 89.25
  Q 61.41 90.06 60.69 92.21
  Q 57.23 102.45 53.82 113.83
  A 2.31 2.31 0.0 0 1 51.40 115.47
  L 51.31 115.46
  A 1.51 1.51 0.0 0 1 49.99 113.54
  Q 54.22 98.89 62.76 81.99
  Q 78.75 50.33 105.66 28.08
  A 0.33 0.32 50.8 0 0 105.70 27.63
  L 105.69 27.62
  A 0.33 0.33 0.0 0 0 105.22 27.57
  Q 92.74 37.42 89.64 40.40
  Q 77.55 51.99 67.72 66.26
  Q 60.56 76.66 55.76 87.87
  A 0.19 0.19 0.0 0 1 55.41 87.89
  Q 50.42 78.11 53.04 67.85
  A 0.31 0.31 0.0 0 1 53.60 67.76
  C 54.53 69.25 54.53 71.42 55.72 73.14
  A 0.20 0.20 0.0 0 0 56.09 73.00
  Q 56.01 72.40 54.93 67.74
  Q 54.63 66.46 55.28 63.02
  C 55.98 59.31 58.73 55.44 60.74 52.17
  A 0.18 0.17 64.9 0 1 61.06 52.29
  Q 60.13 58.81 61.50 65.55
  A 0.09 0.09 0.0 0 0 61.67 65.54
  Q 61.92 62.74 61.64 59.24
  Q 60.88 49.59 67.99 43.45
  A 0.29 0.29 0.0 0 1 68.46 43.71
  Q 67.44 50.31 68.31 56.67
  A 0.20 0.20 0.0 0 0 68.59 56.82
  L 68.90 56.68
  A 0.08 0.07 78.3 0 0 68.94 56.61
  Q 68.80 52.86 69.12 48.87
  Q 69.45 44.67 71.00 40.83
  A 3.35 3.28 78.1 0 1 71.69 39.75
  Q 77.94 33.15 86.01 28.00
  Q 94.19 22.77 94.73 22.39
  A 0.19 0.18 -6.4 0 1 95.01 22.61
  Z"
/>
<path fill="#343022" d="
  M 42.85 43.75
  L 48.00 45.72
  A 0.32 0.32 0.0 0 1 48.00 46.32
  L 42.83 48.23
  A 0.32 0.32 0.0 0 0 42.64 48.42
  L 40.67 53.57
  A 0.32 0.32 0.0 0 1 40.07 53.57
  L 38.16 48.40
  A 0.32 0.32 0.0 0 0 37.97 48.21
  L 32.82 46.24
  A 0.32 0.32 0.0 0 1 32.82 45.64
  L 37.99 43.73
  A 0.32 0.32 0.0 0 0 38.18 43.54
  L 40.15 38.39
  A 0.32 0.32 0.0 0 1 40.75 38.39
  L 42.66 43.56
  A 0.32 0.32 0.0 0 0 42.85 43.75
  Z"
/>
<path fill="#343022" d="
  M 30.88 62.84
  Q 30.88 62.88 28.63 63.48
  C 24.65 64.53 22.60 67.54 21.30 71.70
  A 0.15 0.15 0.0 0 1 21.01 71.67
  Q 19.98 64.20 12.37 63.05
  Q 11.89 62.97 11.89 62.83
  Q 11.89 62.68 12.37 62.61
  Q 19.98 61.47 21.02 54.00
  A 0.15 0.15 0.0 0 1 21.31 53.97
  C 22.61 58.13 24.65 61.14 28.63 62.20
  Q 30.88 62.81 30.88 62.84
  Z"
/>
<path fill="#343022" d="
  M 35.32 80.03
  L 38.74 81.16
  A 0.32 0.32 0.0 0 1 38.74 81.77
  L 35.34 82.95
  A 0.32 0.32 0.0 0 0 35.14 83.15
  L 34.01 86.57
  A 0.32 0.32 0.0 0 1 33.40 86.57
  L 32.22 83.17
  A 0.32 0.32 0.0 0 0 32.02 82.97
  L 28.60 81.84
  A 0.32 0.32 0.0 0 1 28.60 81.23
  L 32.00 80.05
  A 0.32 0.32 0.0 0 0 32.20 79.85
  L 33.33 76.43
  A 0.32 0.32 0.0 0 1 33.94 76.43
  L 35.12 79.83
  A 0.32 0.32 0.0 0 0 35.32 80.03
  Z"
/>
</svg>
