<?xml version="1.0" encoding="UTF-8" standalone="no"?>
<!DOCTYPE svg PUBLIC "-//W3C//DTD SVG 1.1//EN" "http://www.w3.org/Graphics/SVG/1.1/DTD/svg11.dtd">
<svg xmlns="http://www.w3.org/2000/svg" version="1.1" viewBox="0.00 0.00 180.00 180.00">
<g stroke-width="2.00" fill="none" stroke-linecap="butt">
<path stroke="#acb2f9" vector-effect="non-scaling-stroke" d="
  M 128.22 102.52
  C 130.61 102.53 132.69 102.85 134.30 101.50
  C 136.08 100.02 136.36 97.21 134.80 95.60
  Q 132.75 93.49 128.70 94.24
  A 1.06 1.05 82.6 0 1 127.46 93.28
  C 127.19 89.80 128.44 81.10 126.46 76.75
  C 123.15 69.47 117.41 69.04 109.16 69.10
  Q 97.09 69.19 94.73 69.13
  A 0.57 0.57 0.0 0 1 94.18 68.57
  Q 94.11 64.55 94.20 58.72
  C 94.25 55.28 93.58 52.57 89.77 52.55
  Q 82.60 52.51 73.20 52.55
  A 4.01 4.00 -0.1 0 0 69.21 56.54
  L 69.21 56.64
  A 4.19 4.19 0.0 0 0 73.40 60.85
  L 85.38 60.87
  A 0.46 0.45 -0.0 0 1 85.84 61.32
  L 85.84 68.72
  A 0.40 0.40 0.0 0 1 85.44 69.12
  Q 76.22 69.19 68.87 69.10
  Q 62.13 69.02 59.32 70.52
  C 53.36 73.72 52.31 78.78 52.49 85.71
  Q 52.53 87.09 52.48 93.68
  A 0.51 0.51 0.0 0 1 51.92 94.19
  Q 51.09 94.09 48.51 94.17
  C 42.85 94.34 42.77 102.18 48.30 102.48
  Q 50.57 102.60 51.91 102.57
  A 0.56 0.56 0.0 0 1 52.48 103.12
  Q 52.53 104.96 52.49 110.53
  Q 52.44 116.48 52.88 117.96
  Q 54.54 123.69 59.73 126.35
  Q 62.15 127.59 70.51 127.58
  Q 99.82 127.54 110.67 127.57
  C 118.25 127.59 122.87 126.69 126.32 120.34
  C 128.40 116.52 127.35 106.88 127.53 103.18
  A 0.69 0.69 0.0 0 1 128.22 102.52"
/>
<path stroke="#acb2f9" vector-effect="non-scaling-stroke" d="
  M 119.15 81.65
  A 4.10 4.10 0.0 0 0 115.05 77.55
  L 64.95 77.55
  A 4.10 4.10 0.0 0 0 60.85 81.65
  L 60.85 115.03
  A 4.10 4.10 0.0 0 0 64.95 119.13
  L 115.05 119.13
  A 4.10 4.10 0.0 0 0 119.15 115.03
  L 119.15 81.65"
/>
<path stroke="#acb2f9" vector-effect="non-scaling-stroke" d="
  M 81.6095 93.9512
  A 3.92 3.92 0.0 0 0 77.6623 90.0587
  L 77.2223 90.0617
  A 3.92 3.92 0.0 0 0 73.3297 94.0090
  L 73.3905 102.7088
  A 3.92 3.92 0.0 0 0 77.3377 106.6013
  L 77.7777 106.5983
  A 3.92 3.92 0.0 0 0 81.6703 102.6510
  L 81.6095 93.9512"
/>
<path stroke="#acb2f9" vector-effect="non-scaling-stroke" d="
  M 106.6095 93.9512
  A 3.92 3.92 0.0 0 0 102.6623 90.0587
  L 102.2223 90.0617
  A 3.92 3.92 0.0 0 0 98.3297 94.0090
  L 98.3905 102.7088
  A 3.92 3.92 0.0 0 0 102.3377 106.6013
  L 102.7777 106.5983
  A 3.92 3.92 0.0 0 0 106.6703 102.6510
  L 106.6095 93.9512"
/>
</g>
<path fill="#5865f2" d="
  M 150.40 0.00
  C 166.48 1.62 178.18 13.41 180.00 29.51
  L 180.00 150.39
  C 178.37 166.47 166.59 178.16 150.48 180.00
  L 29.73 180.00
  C 13.61 178.43 1.86 166.65 0.00 150.52
  L 0.00 29.44
  C 1.99 13.13 13.25 2.04 29.49 0.00
  L 150.40 0.00
  Z
  M 128.22 102.52
  C 130.61 102.53 132.69 102.85 134.30 101.50
  C 136.08 100.02 136.36 97.21 134.80 95.60
  Q 132.75 93.49 128.70 94.24
  A 1.06 1.05 82.6 0 1 127.46 93.28
  C 127.19 89.80 128.44 81.10 126.46 76.75
  C 123.15 69.47 117.41 69.04 109.16 69.10
  Q 97.09 69.19 94.73 69.13
  A 0.57 0.57 0.0 0 1 94.18 68.57
  Q 94.11 64.55 94.20 58.72
  C 94.25 55.28 93.58 52.57 89.77 52.55
  Q 82.60 52.51 73.20 52.55
  A 4.01 4.00 -0.1 0 0 69.21 56.54
  L 69.21 56.64
  A 4.19 4.19 0.0 0 0 73.40 60.85
  L 85.38 60.87
  A 0.46 0.45 -0.0 0 1 85.84 61.32
  L 85.84 68.72
  A 0.40 0.40 0.0 0 1 85.44 69.12
  Q 76.22 69.19 68.87 69.10
  Q 62.13 69.02 59.32 70.52
  C 53.36 73.72 52.31 78.78 52.49 85.71
  Q 52.53 87.09 52.48 93.68
  A 0.51 0.51 0.0 0 1 51.92 94.19
  Q 51.09 94.09 48.51 94.17
  C 42.85 94.34 42.77 102.18 48.30 102.48
  Q 50.57 102.60 51.91 102.57
  A 0.56 0.56 0.0 0 1 52.48 103.12
  Q 52.53 104.96 52.49 110.53
  Q 52.44 116.48 52.88 117.96
  Q 54.54 123.69 59.73 126.35
  Q 62.15 127.59 70.51 127.58
  Q 99.82 127.54 110.67 127.57
  C 118.25 127.59 122.87 126.69 126.32 120.34
  C 128.40 116.52 127.35 106.88 127.53 103.18
  A 0.69 0.69 0.0 0 1 128.22 102.52
  Z"
/>
<path fill="#ffffff" d="
  M 127.53 103.18
  C 127.35 106.88 128.40 116.52 126.32 120.34
  C 122.87 126.69 118.25 127.59 110.67 127.57
  Q 99.82 127.54 70.51 127.58
  Q 62.15 127.59 59.73 126.35
  Q 54.54 123.69 52.88 117.96
  Q 52.44 116.48 52.49 110.53
  Q 52.53 104.96 52.48 103.12
  A 0.56 0.56 0.0 0 0 51.91 102.57
  Q 50.57 102.60 48.30 102.48
  C 42.77 102.18 42.85 94.34 48.51 94.17
  Q 51.09 94.09 51.92 94.19
  A 0.51 0.51 0.0 0 0 52.48 93.68
  Q 52.53 87.09 52.49 85.71
  C 52.31 78.78 53.36 73.72 59.32 70.52
  Q 62.13 69.02 68.87 69.10
  Q 76.22 69.19 85.44 69.12
  A 0.40 0.40 0.0 0 0 85.84 68.72
  L 85.84 61.32
  A 0.46 0.45 0.0 0 0 85.38 60.87
  L 73.40 60.85
  A 4.19 4.19 0.0 0 1 69.21 56.64
  L 69.21 56.54
  A 4.01 4.00 -0.1 0 1 73.20 52.55
  Q 82.60 52.51 89.77 52.55
  C 93.58 52.57 94.25 55.28 94.20 58.72
  Q 94.11 64.55 94.18 68.57
  A 0.57 0.57 0.0 0 0 94.73 69.13
  Q 97.09 69.19 109.16 69.10
  C 117.41 69.04 123.15 69.47 126.46 76.75
  C 128.44 81.10 127.19 89.80 127.46 93.28
  A 1.06 1.05 82.6 0 0 128.70 94.24
  Q 132.75 93.49 134.80 95.60
  C 136.36 97.21 136.08 100.02 134.30 101.50
  C 132.69 102.85 130.61 102.53 128.22 102.52
  A 0.69 0.69 0.0 0 0 127.53 103.18
  Z
  M 119.15 81.65
  A 4.10 4.10 0.0 0 0 115.05 77.55
  L 64.95 77.55
  A 4.10 4.10 0.0 0 0 60.85 81.65
  L 60.85 115.03
  A 4.10 4.10 0.0 0 0 64.95 119.13
  L 115.05 119.13
  A 4.10 4.10 0.0 0 0 119.15 115.03
  L 119.15 81.65
  Z"
/>
<path fill="#5865f2" d="
  M 119.15 115.03
  A 4.10 4.10 0.0 0 1 115.05 119.13
  L 64.95 119.13
  A 4.10 4.10 0.0 0 1 60.85 115.03
  L 60.85 81.65
  A 4.10 4.10 0.0 0 1 64.95 77.55
  L 115.05 77.55
  A 4.10 4.10 0.0 0 1 119.15 81.65
  L 119.15 115.03
  Z
  M 81.6095 93.9512
  A 3.92 3.92 0.0 0 0 77.6623 90.0587
  L 77.2223 90.0617
  A 3.92 3.92 0.0 0 0 73.3297 94.0090
  L 73.3905 102.7088
  A 3.92 3.92 0.0 0 0 77.3377 106.6013
  L 77.7777 106.5983
  A 3.92 3.92 0.0 0 0 81.6703 102.6510
  L 81.6095 93.9512
  Z
  M 106.6095 93.9512
  A 3.92 3.92 0.0 0 0 102.6623 90.0587
  L 102.2223 90.0617
  A 3.92 3.92 0.0 0 0 98.3297 94.0090
  L 98.3905 102.7088
  A 3.92 3.92 0.0 0 0 102.3377 106.6013
  L 102.7777 106.5983
  A 3.92 3.92 0.0 0 0 106.6703 102.6510
  L 106.6095 93.9512
  Z"
/>
<rect fill="#ffffff" x="-4.14" y="-8.27" transform="translate(77.50,98.33) rotate(-0.4)" width="8.28" height="16.54" rx="3.92"/>
<rect fill="#ffffff" x="-4.14" y="-8.27" transform="translate(102.50,98.33) rotate(-0.4)" width="8.28" height="16.54" rx="3.92"/>
</svg>
