<?xml version="1.0" encoding="UTF-8" standalone="no"?>
<!DOCTYPE svg PUBLIC "-//W3C//DTD SVG 1.1//EN" "http://www.w3.org/Graphics/SVG/1.1/DTD/svg11.dtd">
<svg xmlns="http://www.w3.org/2000/svg" version="1.1" viewBox="0.00 0.00 56.00 56.00">
<g stroke-width="2.00" fill="none" stroke-linecap="butt">
<path stroke="#a15cec" vector-effect="non-scaling-stroke" d="
  M 38.48 3.93
  Q 40.94 7.21 43.64 10.12
  Q 45.49 12.11 45.82 18.01
  A 0.40 0.40 0.0 0 1 45.20 18.37
  Q 44.89 18.17 44.74 17.30
  A 0.76 0.76 0.0 0 0 43.98 16.68
  L 41.90 16.71"
/>
<path stroke="#773b87" vector-effect="non-scaling-stroke" d="
  M 41.90 16.71
  Q 38.89 5.94 28.26 4.15
  Q 23.60 3.37 17.22 4.81"
/>
<path stroke="#5d7eef" vector-effect="non-scaling-stroke" d="
  M 49.11 12.49
  Q 49.15 16.01 49.86 19.50
  Q 50.17 21.02 49.21 25.02"
/>
<path stroke="#5497ee" vector-effect="non-scaling-stroke" d="
  M 49.21 25.02
  L 47.78 29.12"
/>
<path stroke="#5f73ed" vector-effect="non-scaling-stroke" d="
  M 47.78 29.12
  L 47.12 19.87
  A 0.01 0.00 -41.4 0 0 47.11 19.87
  Q 45.96 25.13 42.79 29.30
  A 0.59 0.58 36.7 0 1 41.99 29.41
  L 40.64 28.44"
/>
<path stroke="#423c88" vector-effect="non-scaling-stroke" d="
  M 41.90 16.71
  Q 42.98 22.74 40.64 28.44"
/>
<path stroke="#355188" vector-effect="non-scaling-stroke" d="
  M 40.64 28.44
  Q 37.60 35.37 31.02 39.22"
/>
<path stroke="#47488b" vector-effect="non-scaling-stroke" d="
  M 31.02 39.22
  L 30.72 39.06"
/>
<path stroke="#8b8c91" vector-effect="non-scaling-stroke" d="
  M 30.72 39.06
  L 30.42 36.29
  A 0.27 0.27 0.0 0 0 30.28 36.07
  Q 30.11 35.98 30.04 35.93
  A 0.86 0.85 30.4 0 1 29.78 34.94
  Q 29.94 34.57 29.52 34.00
  Q 29.22 33.59 29.35 33.28
  Q 29.61 32.68 29.61 32.66
  A 0.70 0.70 0.0 0 0 28.96 31.95
  Q 27.94 31.86 28.02 31.14
  A 0.27 0.24 -30.1 0 1 28.07 30.99
  L 30.39 27.77
  A 1.26 1.25 -32.1 0 0 30.61 26.82
  Q 30.29 25.05 30.76 23.23
  A 0.70 0.70 0.0 0 1 31.45 22.71
  Q 32.49 22.73 33.56 22.79
  Q 38.90 23.08 37.99 17.76
  C 37.15 12.78 32.89 8.66 28.13 6.95
  Q 20.72 4.30 12.63 8.17"
/>
<path stroke="#44b8f0" vector-effect="non-scaling-stroke" d="
  M 54.03 26.98
  L 49.42 29.75
  A 0.37 0.37 0.0 0 1 48.86 29.40
  L 49.21 25.02"
/>
<path stroke="#47acee" vector-effect="non-scaling-stroke" d="
  M 47.78 29.12
  Q 44.76 35.05 38.69 38.28"
/>
<path stroke="#657fef" vector-effect="non-scaling-stroke" d="
  M 38.69 38.28
  Q 34.89 40.34 31.02 39.22"
/>
<path stroke="#59a3f1" vector-effect="non-scaling-stroke" d="
  M 43.26 45.01
  Q 41.63 41.10 38.69 38.28"
/>
<path stroke="#bbbaf8" vector-effect="non-scaling-stroke" d="
  M 30.72 39.06
  Q 26.47 41.09 22.06 39.87
  A 0.18 0.18 0.0 0 0 21.86 40.15
  Q 24.97 44.80 31.41 46.66"
/>
<path stroke="#8b8c91" vector-effect="non-scaling-stroke" d="
  M 28.48 48.81
  Q 20.77 46.40 18.17 39.30
  C 17.29 36.89 18.23 33.38 21.53 33.79
  Q 22.97 33.98 24.56 33.34
  A 0.94 0.93 -16.7 0 0 25.14 32.27
  Q 24.82 30.85 25.80 29.84
  A 1.57 1.57 0.0 0 0 26.23 28.84
  L 26.31 27.05
  A 0.66 0.66 0.0 0 1 26.98 26.41
  Q 27.65 26.42 27.90 26.04
  A 0.74 0.73 -51.4 0 0 27.80 25.11
  Q 24.70 22.06 26.01 17.63"
/>
<path stroke="#a6cff8" vector-effect="non-scaling-stroke" d="
  M 26.01 17.63
  Q 27.79 16.84 30.25 16.67"
/>
<path stroke="#d7adf7" vector-effect="non-scaling-stroke" d="
  M 30.25 16.67
  L 34.42 17.03
  A 0.24 0.24 0.0 0 0 34.64 16.67
  Q 31.96 12.05 26.69 10.12"
/>
<path stroke="#a6cff8" vector-effect="non-scaling-stroke" d="
  M 26.69 10.12
  Q 22.16 8.28 17.32 9.22
  Q 15.16 9.64 13.06 10.04"
/>
<path stroke="#773b87" vector-effect="non-scaling-stroke" d="
  M 40.37 50.20
  Q 31.86 53.49 24.38 50.63
  Q 17.90 48.15 14.78 41.65"
/>
<path stroke="#4e388b" vector-effect="non-scaling-stroke" d="
  M 14.78 41.65
  Q 13.00 36.66 14.06 31.81"
/>
<path stroke="#323e84" vector-effect="non-scaling-stroke" d="
  M 14.06 31.81
  L 16.47 26.02"
/>
<path stroke="#7f7ef0" vector-effect="non-scaling-stroke" d="
  M 26.69 10.12
  L 24.99 14.05
  A 0.55 0.54 22.5 0 0 25.30 14.78
  L 30.25 16.67"
/>
<path stroke="#325d8a" vector-effect="non-scaling-stroke" d="
  M 26.01 17.63
  Q 19.95 20.21 16.47 26.02"
/>
<path stroke="#4d80eb" vector-effect="non-scaling-stroke" d="
  M 16.47 26.02
  L 12.97 25.86
  A 0.63 0.63 0.0 0 1 12.42 24.98
  L 14.77 19.66"
/>
<path stroke="#44b8f0" vector-effect="non-scaling-stroke" d="
  M 14.77 19.66
  L 18.42 17.58
  A 0.41 0.41 0.0 0 0 18.15 16.82
  L 16.24 17.16
  A 0.56 0.55 82.8 0 1 15.58 16.64
  Q 15.51 15.49 15.26 14.35
  Q 15.11 13.68 15.24 13.45
  Q 15.47 13.06 15.07 12.85
  A 0.49 0.48 -61.7 0 1 14.87 12.17
  L 15.69 10.75
  A 0.25 0.25 0.0 0 0 15.46 10.37
  L 12.80 10.49"
/>
<path stroke="#ad59ee" vector-effect="non-scaling-stroke" d="
  M 14.78 41.65
  Q 11.85 38.85 10.60 35.28
  A 0.43 0.43 0.0 0 0 9.77 35.50
  L 11.28 43.86
  A 0.84 0.82 -31.5 0 1 11.11 44.53
  Q 10.52 45.27 9.45 45.82"
/>
<path stroke="#695ceb" vector-effect="non-scaling-stroke" d="
  M 14.06 31.81
  L 12.56 31.25
  A 0.57 0.56 4.8 0 1 12.20 30.83
  L 11.63 27.65
  A 0.22 0.22 0.0 0 0 11.21 27.60
  L 6.46 38.15"
/>
<path stroke="#5075e8" vector-effect="non-scaling-stroke" d="
  M 6.46 38.15
  Q 5.05 30.30 10.13 23.84"
/>
<path stroke="#4499ea" vector-effect="non-scaling-stroke" d="
  M 14.77 19.66
  Q 12.01 21.45 10.13 23.84"
/>
<path stroke="#47acee" vector-effect="non-scaling-stroke" d="
  M 10.13 23.84
  Q 6.42 23.44 3.39 21.34"
/>
<path stroke="#6b6fef" vector-effect="non-scaling-stroke" d="
  M 6.46 38.15
  L 8.67 44.87"
/>
</g>
<path fill="#d65bea" d="
  M 38.48 3.93
  Q 40.94 7.21 43.64 10.12
  Q 45.49 12.11 45.82 18.01
  A 0.40 0.40 0.0 0 1 45.20 18.37
  Q 44.89 18.17 44.74 17.30
  A 0.76 0.76 0.0 0 0 43.98 16.68
  L 41.90 16.71
  Q 38.89 5.94 28.26 4.15
  Q 23.60 3.37 17.22 4.81
  Q 27.77 -0.43 38.48 3.93
  Z"
/>
<path fill="#171a23" d="
  M 41.90 16.71
  Q 42.98 22.74 40.64 28.44
  Q 37.60 35.37 31.02 39.22
  L 30.72 39.06
  L 30.42 36.29
  A 0.27 0.27 0.0 0 0 30.28 36.07
  Q 30.11 35.98 30.04 35.93
  A 0.86 0.85 30.4 0 1 29.78 34.94
  Q 29.94 34.57 29.52 34.00
  Q 29.22 33.59 29.35 33.28
  Q 29.61 32.68 29.61 32.66
  A 0.70 0.70 0.0 0 0 28.96 31.95
  Q 27.94 31.86 28.02 31.14
  A 0.27 0.24 -30.1 0 1 28.07 30.99
  L 30.39 27.77
  A 1.26 1.25 -32.1 0 0 30.61 26.82
  Q 30.29 25.05 30.76 23.23
  A 0.70 0.70 0.0 0 1 31.45 22.71
  Q 32.49 22.73 33.56 22.79
  Q 38.90 23.08 37.99 17.76
  C 37.15 12.78 32.89 8.66 28.13 6.95
  Q 20.72 4.30 12.63 8.17
  Q 14.73 5.76 17.22 4.81
  Q 23.60 3.37 28.26 4.15
  Q 38.89 5.94 41.90 16.71
  Z"
/>
<path fill="#6c5ded" d="
  M 49.11 12.49
  Q 49.15 16.01 49.86 19.50
  Q 50.17 21.02 49.21 25.02
  L 47.78 29.12
  L 47.12 19.87
  A 0.01 0.00 -41.4 0 0 47.11 19.87
  Q 45.96 25.13 42.79 29.30
  A 0.59 0.58 36.7 0 1 41.99 29.41
  L 40.64 28.44
  Q 42.98 22.74 41.90 16.71
  L 43.98 16.68
  A 0.76 0.76 0.0 0 1 44.74 17.30
  Q 44.89 18.17 45.20 18.37
  A 0.40 0.40 0.0 0 0 45.82 18.01
  Q 45.49 12.11 43.64 10.12
  Q 40.94 7.21 38.48 3.93
  Q 44.97 6.77 49.11 12.49
  Z"
/>
<path fill="#fefefe" d="
  M 30.72 39.06
  Q 26.47 41.09 22.06 39.87
  A 0.18 0.18 0.0 0 0 21.86 40.15
  Q 24.97 44.80 31.41 46.66
  L 28.48 48.81
  Q 20.77 46.40 18.17 39.30
  C 17.29 36.89 18.23 33.38 21.53 33.79
  Q 22.97 33.98 24.56 33.34
  A 0.94 0.93 -16.7 0 0 25.14 32.27
  Q 24.82 30.85 25.80 29.84
  A 1.57 1.57 0.0 0 0 26.23 28.84
  L 26.31 27.05
  A 0.66 0.66 0.0 0 1 26.98 26.41
  Q 27.65 26.42 27.90 26.04
  A 0.74 0.73 -51.4 0 0 27.80 25.11
  Q 24.70 22.06 26.01 17.63
  Q 27.79 16.84 30.25 16.67
  L 34.42 17.03
  A 0.24 0.24 0.0 0 0 34.64 16.67
  Q 31.96 12.05 26.69 10.12
  Q 22.16 8.28 17.32 9.22
  Q 15.16 9.64 13.06 10.04
  L 11.99 9.18
  A 0.35 0.34 -74.3 0 1 11.88 8.98
  Q 11.77 8.29 12.63 8.17
  Q 20.72 4.30 28.13 6.95
  C 32.89 8.66 37.15 12.78 37.99 17.76
  Q 38.90 23.08 33.56 22.79
  Q 32.49 22.73 31.45 22.71
  A 0.70 0.70 0.0 0 0 30.76 23.23
  Q 30.29 25.05 30.61 26.82
  A 1.26 1.25 -32.1 0 1 30.39 27.77
  L 28.07 30.99
  A 0.27 0.24 -30.1 0 0 28.02 31.14
  Q 27.94 31.86 28.96 31.95
  A 0.70 0.70 0.0 0 1 29.61 32.66
  Q 29.61 32.68 29.35 33.28
  Q 29.22 33.59 29.52 34.00
  Q 29.94 34.57 29.78 34.94
  A 0.86 0.85 30.4 0 0 30.04 35.93
  Q 30.11 35.98 30.28 36.07
  A 0.27 0.27 0.0 0 1 30.42 36.29
  L 30.72 39.06
  Z"
/>
<path fill="#4d9ff1" d="
  M 26.69 10.12
  L 24.99 14.05
  A 0.55 0.54 22.5 0 0 25.30 14.78
  L 30.25 16.67
  Q 27.79 16.84 26.01 17.63
  Q 19.95 20.21 16.47 26.02
  L 12.97 25.86
  A 0.63 0.63 0.0 0 1 12.42 24.98
  L 14.77 19.66
  L 18.42 17.58
  A 0.41 0.41 0.0 0 0 18.15 16.82
  L 16.24 17.16
  A 0.56 0.55 82.8 0 1 15.58 16.64
  Q 15.51 15.49 15.26 14.35
  Q 15.11 13.68 15.24 13.45
  Q 15.47 13.06 15.07 12.85
  A 0.49 0.48 -61.7 0 1 14.87 12.17
  L 15.69 10.75
  A 0.25 0.25 0.0 0 0 15.46 10.37
  L 12.80 10.49
  Q 12.91 10.19 13.06 10.04
  Q 15.16 9.64 17.32 9.22
  Q 22.16 8.28 26.69 10.12
  Z"
/>
<path fill="#3bd0ef" d="
  M 14.77 19.66
  Q 12.01 21.45 10.13 23.84
  Q 6.42 23.44 3.39 21.34
  Q 6.05 14.10 12.80 10.49
  L 15.46 10.37
  A 0.25 0.25 0.0 0 1 15.69 10.75
  L 14.87 12.17
  A 0.49 0.48 -61.7 0 0 15.07 12.85
  Q 15.47 13.06 15.24 13.45
  Q 15.11 13.68 15.26 14.35
  Q 15.51 15.49 15.58 16.64
  A 0.56 0.55 82.8 0 0 16.24 17.16
  L 18.15 16.82
  A 0.41 0.41 0.0 0 1 18.42 17.58
  L 14.77 19.66
  Z"
/>
<path fill="#b05cef" d="
  M 26.69 10.12
  Q 31.96 12.05 34.64 16.67
  A 0.24 0.24 0.0 0 1 34.42 17.03
  L 30.25 16.67
  L 25.30 14.78
  A 0.55 0.54 22.5 0 1 24.99 14.05
  L 26.69 10.12
  Z"
/>
<path fill="#4d9ff1" d="
  M 54.03 26.98
  L 49.42 29.75
  A 0.37 0.37 0.0 0 1 48.86 29.40
  L 49.21 25.02
  Q 50.17 21.02 49.86 19.50
  Q 49.15 16.01 49.11 12.49
  Q 53.94 18.90 54.03 26.98
  Z"
/>
<path fill="#171a23" d="
  M 26.01 17.63
  Q 24.70 22.06 27.80 25.11
  A 0.74 0.73 -51.4 0 1 27.90 26.04
  Q 27.65 26.42 26.98 26.41
  A 0.66 0.66 0.0 0 0 26.31 27.05
  L 26.23 28.84
  A 1.57 1.57 0.0 0 1 25.80 29.84
  Q 24.82 30.85 25.14 32.27
  A 0.94 0.93 -16.7 0 1 24.56 33.34
  Q 22.97 33.98 21.53 33.79
  C 18.23 33.38 17.29 36.89 18.17 39.30
  Q 20.77 46.40 28.48 48.81
  Q 37.11 51.29 45.13 46.60
  A 0.08 0.08 0.0 0 1 45.23 46.73
  Q 42.84 48.95 40.37 50.20
  Q 31.86 53.49 24.38 50.63
  Q 17.90 48.15 14.78 41.65
  Q 13.00 36.66 14.06 31.81
  L 16.47 26.02
  Q 19.95 20.21 26.01 17.63
  Z"
/>
<path fill="#4d61e4" d="
  M 14.77 19.66
  L 12.42 24.98
  A 0.63 0.63 0.0 0 0 12.97 25.86
  L 16.47 26.02
  L 14.06 31.81
  L 12.56 31.25
  A 0.57 0.56 4.8 0 1 12.20 30.83
  L 11.63 27.65
  A 0.22 0.22 0.0 0 0 11.21 27.60
  L 6.46 38.15
  Q 5.05 30.30 10.13 23.84
  Q 12.01 21.45 14.77 19.66
  Z"
/>
<path fill="#5288ec" d="
  M 47.78 29.12
  Q 44.76 35.05 38.69 38.28
  Q 34.89 40.34 31.02 39.22
  Q 37.60 35.37 40.64 28.44
  L 41.99 29.41
  A 0.59 0.58 36.7 0 0 42.79 29.30
  Q 45.96 25.13 47.11 19.87
  A 0.01 0.00 -41.4 0 1 47.12 19.87
  L 47.78 29.12
  Z"
/>
<path fill="#5288ec" d="
  M 3.39 21.34
  Q 6.42 23.44 10.13 23.84
  Q 5.05 30.30 6.46 38.15
  L 8.67 44.87
  Q -0.57 34.56 3.39 21.34
  Z"
/>
<path fill="#3bd0ef" d="
  M 49.21 25.02
  L 48.86 29.40
  A 0.37 0.37 0.0 0 0 49.42 29.75
  L 54.03 26.98
  Q 53.74 39.45 43.26 45.01
  Q 41.63 41.10 38.69 38.28
  Q 44.76 35.05 47.78 29.12
  L 49.21 25.02
  Z"
/>
<path fill="#8456f2" d="
  M 14.06 31.81
  Q 13.00 36.66 14.78 41.65
  Q 11.85 38.85 10.60 35.28
  A 0.43 0.43 0.0 0 0 9.77 35.50
  L 11.28 43.86
  A 0.84 0.82 -31.5 0 1 11.11 44.53
  Q 10.52 45.27 9.45 45.82
  Q 8.77 45.16 8.67 44.87
  L 6.46 38.15
  L 11.21 27.60
  A 0.22 0.22 0.0 0 1 11.63 27.65
  L 12.20 30.83
  A 0.57 0.56 4.8 0 0 12.56 31.25
  L 14.06 31.81
  Z"
/>
<path fill="#d65bea" d="
  M 14.78 41.65
  Q 17.90 48.15 24.38 50.63
  Q 31.86 53.49 40.37 50.20
  C 30.35 56.24 17.46 54.06 9.45 45.82
  Q 10.52 45.27 11.11 44.53
  A 0.84 0.82 -31.5 0 0 11.28 43.86
  L 9.77 35.50
  A 0.43 0.43 0.0 0 1 10.60 35.28
  Q 11.85 38.85 14.78 41.65
  Z"
/>
<path fill="#7775f2" d="
  M 38.69 38.28
  Q 41.63 41.10 43.26 45.01
  Q 40.34 46.40 37.24 46.62
  Q 33.86 46.87 31.41 46.66
  Q 24.97 44.80 21.86 40.15
  A 0.18 0.18 0.0 0 1 22.06 39.87
  Q 26.47 41.09 30.72 39.06
  L 31.02 39.22
  Q 34.89 40.34 38.69 38.28
  Z"
/>
</svg>
